{"glyphs":{"0":{"ha":680,"x_min":45,"x_max":635,"o":"m 301 0 l 301 144 q 198 343 220 160 q 191 460 191 397 l 191 505 q 267 788 193 728 q 301 804 283 802 l 301 948 q 81 755 144 947 q 45 476 45 644 q 235 11 45 77 q 301 0 266 0 m 378 0 q 600 199 538 1 q 635 476 635 311 q 450 935 635 865 q 378 948 416 948 l 378 804 q 480 632 454 792 q 490 505 490 572 l 490 460 q 378 144 488 170 l 378 0 z "},"1":{"ha":330,"x_min":45,"x_max":285,"o":"m 45 741 l 45 879 l 133 949 l 285 949 l 285 0 l 133 0 l 133 741 l 45 741 z "},"2":{"ha":677,"x_min":45,"x_max":633,"o":"m 45 707 q 133 886 49 811 q 290 949 202 947 l 290 810 q 216 774 251 810 q 176 681 182 739 l 45 707 m 73 0 l 73 148 l 621 148 l 621 0 l 73 0 m 73 214 q 228 437 73 334 q 282 472 247 450 q 327 500 315 492 q 359 522 338 507 q 475 623 452 583 q 492 678 492 650 q 412 802 492 774 q 361 810 388 810 l 361 949 q 606 810 543 949 q 632 680 632 751 q 551 494 632 570 q 469 431 518 464 q 406 392 449 418 q 267 288 298 330 q 240 214 241 252 l 73 214 z "},"3":{"ha":684,"x_min":45,"x_max":639,"o":"m 365 -1 l 365 138 q 490 216 463 142 q 498 266 498 239 q 389 397 498 373 q 311 404 354 404 l 311 544 q 496 658 484 544 q 498 681 498 670 q 408 803 498 777 q 365 810 387 808 l 365 949 q 571 865 492 949 q 639 684 639 793 q 543 473 637 540 q 639 264 637 406 q 513 37 639 109 q 365 -1 445 -1 m 45 241 l 176 267 q 266 144 184 170 q 290 138 281 138 l 290 -1 q 100 95 176 1 q 45 241 47 163 m 45 707 q 133 886 49 811 q 290 949 202 947 l 290 810 q 176 685 187 792 q 176 681 176 682 l 45 707 z "},"4":{"ha":670,"x_min":31,"x_max":625,"o":"m 31 194 l 31 334 l 328 842 l 328 572 l 187 334 l 328 334 l 328 194 l 31 194 m 401 0 l 401 951 l 552 951 l 552 334 l 625 334 l 625 194 l 552 194 l 552 0 l 401 0 z "},"5":{"ha":705,"x_min":45,"x_max":661,"o":"m 60 480 l 99 949 l 583 949 l 583 810 l 229 808 l 209 582 q 307 606 259 606 l 307 473 q 186 406 225 467 l 60 480 m 377 0 l 377 136 q 498 214 457 146 q 522 304 522 255 q 438 454 522 407 q 377 473 407 471 l 377 606 q 620 467 545 604 q 661 302 661 393 q 541 54 661 140 q 377 0 468 3 m 45 212 l 175 243 q 263 148 191 174 q 304 140 285 141 l 304 -1 q 110 84 193 -1 q 45 212 54 142 z "},"6":{"ha":696,"x_min":45,"x_max":652,"o":"m 320 -1 l 320 138 q 214 233 241 148 q 205 288 205 260 q 264 416 205 374 q 320 437 290 433 l 320 576 q 190 524 233 575 q 307 806 190 772 q 320 808 313 807 l 320 948 q 56 642 103 943 q 45 481 45 568 q 182 39 45 136 q 320 -1 239 0 m 395 -1 q 587 94 511 -1 q 652 286 652 175 q 553 525 652 445 q 395 576 487 576 l 395 437 q 496 357 467 426 q 510 288 510 324 q 457 165 510 212 q 395 138 429 144 l 395 -1 m 503 727 l 618 806 q 477 933 574 897 q 393 948 435 948 l 393 808 q 488 755 453 808 q 503 727 498 742 z "},"7":{"ha":605,"x_min":45,"x_max":586,"o":"m 586 808 l 45 808 l 45 949 l 586 949 l 586 808 m 224 0 q 358 609 232 304 q 419 738 388 678 l 574 738 q 382 99 416 438 q 376 0 377 47 l 224 0 z "},"8":{"ha":678,"x_min":45,"x_max":633,"o":"m 300 -1 q 117 84 195 -1 q 45 269 45 164 q 136 471 45 411 q 140 473 138 472 q 47 640 61 524 q 46 675 46 658 q 142 884 46 800 q 301 948 216 948 l 301 810 q 197 724 224 802 q 187 671 187 699 q 251 556 187 589 q 300 543 273 545 l 300 404 q 194 330 221 396 q 184 277 184 305 q 256 149 184 184 q 300 137 277 140 l 300 -1 m 377 -1 l 377 137 q 484 221 457 146 q 494 277 494 247 q 419 393 494 362 q 378 404 399 401 l 378 543 q 484 627 460 549 q 491 671 491 648 q 435 789 491 750 q 377 810 408 806 l 377 948 q 557 863 479 948 q 632 675 632 781 q 551 483 632 548 q 538 473 544 477 q 633 269 629 406 q 538 61 633 144 q 377 -1 464 -1 z "},"9":{"ha":696,"x_min":45,"x_max":651,"o":"m 373 0 q 644 334 608 -1 q 651 463 651 392 q 511 910 651 815 q 373 949 453 949 l 373 808 q 479 719 450 799 q 490 662 490 690 q 414 524 490 557 q 373 513 393 515 l 373 372 q 500 418 435 372 q 505 420 503 419 q 407 148 505 190 q 373 140 391 141 l 373 0 m 304 372 l 304 513 q 195 605 221 524 q 187 661 187 632 q 240 780 187 735 q 304 808 269 803 l 304 949 q 111 854 187 949 q 45 661 45 772 q 149 419 45 496 q 304 372 213 372 m 75 146 q 254 4 134 28 q 304 0 279 0 l 304 140 q 205 197 245 141 q 190 224 195 210 l 75 146 z "},"A":{"ha":677,"x_min":42,"x_max":647,"o":"m 42 0 l 221 796 l 241 796 l 304 509 l 191 0 l 42 0 m 293 136 l 324 283 l 426 283 l 279 949 l 429 949 l 647 0 l 496 0 l 467 136 l 293 136 z "},"Æ":{"ha":986,"x_min":57,"x_max":951,"o":"m 57 0 l 301 949 l 951 949 l 951 799 l 628 799 l 628 547 l 823 547 l 823 396 l 628 396 l 628 151 l 951 151 l 951 0 l 477 0 l 477 217 l 347 217 l 380 347 l 477 347 l 477 799 l 423 799 l 224 0 l 57 0 z "},"Á":{"ha":677,"x_min":42,"x_max":647,"o":"m 307 1039 l 357 1245 l 495 1245 l 406 1039 l 307 1039 m 42 0 l 221 796 l 241 796 l 304 509 l 191 0 l 42 0 m 293 136 l 324 283 l 426 283 l 279 949 l 429 949 l 647 0 l 496 0 l 467 136 l 293 136 z "},"Ă":{"ha":677,"x_min":42,"x_max":647,"o":"m 237 1156 l 312 1156 q 342 1114 312 1123 q 355 1112 350 1112 q 397 1142 388 1112 q 399 1156 399 1150 l 473 1156 q 419 1058 473 1093 q 355 1039 389 1039 q 254 1097 289 1039 q 237 1156 237 1126 m 42 0 l 221 796 l 241 796 l 304 509 l 191 0 l 42 0 m 293 136 l 324 283 l 426 283 l 279 949 l 429 949 l 647 0 l 496 0 l 467 136 l 293 136 z "},"Â":{"ha":677,"x_min":42,"x_max":647,"o":"m 216 1039 l 317 1245 l 393 1245 l 498 1039 l 404 1039 l 355 1138 l 308 1039 l 216 1039 m 42 0 l 221 796 l 241 796 l 304 509 l 191 0 l 42 0 m 293 136 l 324 283 l 426 283 l 279 949 l 429 949 l 647 0 l 496 0 l 467 136 l 293 136 z "},"Ä":{"ha":677,"x_min":42,"x_max":647,"o":"m 171 1122 q 217 1196 171 1173 q 254 1206 235 1206 q 328 1157 307 1206 q 336 1122 336 1139 q 290 1047 336 1069 q 254 1039 273 1039 q 179 1086 201 1039 q 171 1122 171 1104 m 374 1122 q 420 1196 374 1173 q 457 1206 438 1206 q 532 1157 510 1206 q 540 1122 540 1139 q 494 1047 540 1069 q 457 1039 476 1039 q 382 1086 404 1039 q 374 1122 374 1104 m 42 0 l 221 796 l 241 796 l 304 509 l 191 0 l 42 0 m 293 136 l 324 283 l 426 283 l 279 949 l 429 949 l 647 0 l 496 0 l 467 136 l 293 136 z "},"À":{"ha":677,"x_min":42,"x_max":647,"o":"m 209 1245 l 347 1245 l 397 1039 l 298 1039 l 209 1245 m 42 0 l 221 796 l 241 796 l 304 509 l 191 0 l 42 0 m 293 136 l 324 283 l 426 283 l 279 949 l 429 949 l 647 0 l 496 0 l 467 136 l 293 136 z "},"Ā":{"ha":677,"x_min":42,"x_max":647,"o":"m 141 1039 l 141 1128 l 570 1128 l 570 1039 l 141 1039 m 42 0 l 221 796 l 241 796 l 304 509 l 191 0 l 42 0 m 293 136 l 324 283 l 426 283 l 279 949 l 429 949 l 647 0 l 496 0 l 467 136 l 293 136 z "},"Ą":{"ha":677,"x_min":42,"x_max":741,"o":"m 741 -259 q 540 -140 589 -259 q 524 -54 524 -99 l 628 -54 q 709 -155 628 -138 q 741 -157 726 -157 l 741 -259 m 42 0 l 221 796 l 241 796 l 304 509 l 191 0 l 42 0 m 293 136 l 324 283 l 426 283 l 279 949 l 429 949 l 647 0 l 496 0 l 467 136 l 293 136 z "},"Å":{"ha":700,"x_min":54,"x_max":646,"o":"m 54 0 l 232 796 l 254 796 l 315 509 l 203 0 l 54 0 m 304 136 l 336 283 l 438 283 l 292 945 q 244 1038 245 978 q 302 1142 244 1107 q 365 1158 332 1158 q 468 1101 433 1158 q 486 1038 486 1072 q 441 947 484 979 l 646 0 l 499 0 l 468 136 l 304 136 m 319 1038 q 350 994 319 1005 q 365 991 358 991 q 408 1023 397 991 q 411 1038 411 1031 q 380 1081 411 1070 q 365 1084 372 1084 q 321 1053 332 1084 q 319 1038 319 1044 z "},"Ã":{"ha":677,"x_min":42,"x_max":647,"o":"m 164 1046 l 164 1160 q 259 1190 217 1190 q 355 1158 293 1190 q 437 1134 403 1134 q 545 1172 484 1135 l 545 1059 q 431 1021 483 1021 q 331 1053 395 1021 q 254 1076 285 1076 q 164 1046 212 1074 m 42 0 l 221 796 l 241 796 l 304 509 l 191 0 l 42 0 m 293 136 l 324 283 l 426 283 l 279 949 l 429 949 l 647 0 l 496 0 l 467 136 l 293 136 z "},"B":{"ha":671,"x_min":45,"x_max":627,"o":"m 45 0 l 195 0 l 195 949 l 45 949 l 45 0 m 266 0 l 342 0 q 585 121 509 0 q 627 270 627 187 q 532 476 625 404 q 621 643 608 532 q 624 681 624 662 q 534 887 624 810 q 340 949 458 949 l 266 949 l 266 817 l 321 817 q 460 735 420 817 q 473 671 473 704 q 399 552 473 581 q 336 541 370 541 l 266 541 l 266 410 l 336 410 q 467 327 438 410 q 475 279 475 304 q 404 156 475 195 q 308 133 363 133 l 266 133 l 266 0 z "},"C":{"ha":678,"x_min":53,"x_max":644,"o":"m 53 245 q 111 92 53 167 q 321 -7 190 -5 l 321 144 q 212 214 241 144 q 203 245 203 233 l 203 703 q 237 773 203 739 q 321 806 273 804 l 321 956 q 91 826 168 956 q 53 703 53 762 l 53 245 m 391 -7 q 576 77 498 -7 q 644 247 644 152 l 498 282 q 496 263 498 267 q 490 214 496 235 q 454 170 479 187 q 410 148 430 152 l 391 144 l 391 -7 m 391 806 q 426 795 391 806 q 490 728 472 772 q 496 682 496 708 l 496 662 l 644 700 q 557 886 644 804 q 391 956 480 956 l 391 806 z "},"Ć":{"ha":678,"x_min":53,"x_max":644,"o":"m 317 1039 l 368 1245 l 506 1245 l 416 1039 l 317 1039 m 53 245 q 111 92 53 167 q 321 -7 190 -5 l 321 144 q 212 214 241 144 q 203 245 203 233 l 203 703 q 237 773 203 739 q 321 806 273 804 l 321 956 q 91 826 168 956 q 53 703 53 762 l 53 245 m 391 -7 q 576 77 498 -7 q 644 247 644 152 l 498 282 q 496 263 498 267 q 490 214 496 235 q 454 170 479 187 q 410 148 430 152 l 391 144 l 391 -7 m 391 806 q 426 795 391 806 q 490 728 472 772 q 496 682 496 708 l 496 662 l 644 700 q 557 886 644 804 q 391 956 480 956 l 391 806 z "},"Č":{"ha":678,"x_min":53,"x_max":644,"o":"m 214 1245 l 307 1245 l 354 1146 l 403 1245 l 496 1245 l 392 1039 l 316 1039 l 214 1245 m 53 245 q 111 92 53 167 q 321 -7 190 -5 l 321 144 q 212 214 241 144 q 203 245 203 233 l 203 703 q 237 773 203 739 q 321 806 273 804 l 321 956 q 91 826 168 956 q 53 703 53 762 l 53 245 m 391 -7 q 576 77 498 -7 q 644 247 644 152 l 498 282 q 496 263 498 267 q 490 214 496 235 q 454 170 479 187 q 410 148 430 152 l 391 144 l 391 -7 m 391 806 q 426 795 391 806 q 490 728 472 772 q 496 682 496 708 l 496 662 l 644 700 q 557 886 644 804 q 391 956 480 956 l 391 806 z "},"Ç":{"ha":678,"x_min":53,"x_max":644,"o":"m 190 -259 l 190 -157 q 297 -91 277 -157 q 302 -54 302 -73 l 407 -54 q 324 -222 407 -167 q 190 -259 270 -259 m 53 245 q 111 92 53 167 q 321 -7 190 -5 l 321 144 q 212 214 241 144 q 203 245 203 233 l 203 703 q 237 773 203 739 q 321 806 273 804 l 321 956 q 91 826 168 956 q 53 703 53 762 l 53 245 m 391 -7 q 576 77 498 -7 q 644 247 644 152 l 498 282 q 496 263 498 267 q 490 214 496 235 q 454 170 479 187 q 410 148 430 152 l 391 144 l 391 -7 m 391 806 q 426 795 391 806 q 490 728 472 772 q 496 682 496 708 l 496 662 l 644 700 q 557 886 644 804 q 391 956 480 956 l 391 806 z "},"D":{"ha":640,"x_min":56,"x_max":587,"o":"m 56 0 l 56 949 l 208 949 l 208 0 l 56 0 m 278 0 l 278 151 q 437 264 434 151 q 437 267 437 266 l 437 682 q 346 789 437 764 q 278 799 315 799 l 278 949 q 537 836 452 949 q 587 682 587 768 l 587 267 q 410 20 587 79 q 278 0 349 0 z "},"Ď":{"ha":640,"x_min":56,"x_max":587,"o":"m 182 1245 l 274 1245 l 321 1146 l 370 1245 l 464 1245 l 359 1039 l 283 1039 l 182 1245 m 56 0 l 56 949 l 208 949 l 208 0 l 56 0 m 278 0 l 278 151 q 437 264 434 151 q 437 267 437 266 l 437 682 q 346 789 437 764 q 278 799 315 799 l 278 949 q 537 836 452 949 q 587 682 587 768 l 587 267 q 410 20 587 79 q 278 0 349 0 z "},"Đ":{"ha":661,"x_min":35,"x_max":644,"o":"m 35 412 l 35 551 l 113 551 l 113 949 l 263 949 l 263 551 l 339 551 l 339 412 l 263 412 l 263 0 l 113 0 l 113 412 l 35 412 m 334 0 l 334 151 q 492 264 490 151 q 492 267 492 266 l 492 682 q 401 789 492 764 q 334 799 372 799 l 334 949 q 593 837 506 949 q 644 682 644 768 l 644 267 q 467 20 644 79 q 334 0 404 0 z "},"E":{"ha":602,"x_min":56,"x_max":549,"o":"m 56 0 l 56 949 l 549 949 l 549 800 l 208 800 l 208 548 l 422 548 l 422 396 l 208 396 l 208 151 l 549 151 l 549 0 l 56 0 z "},"É":{"ha":602,"x_min":56,"x_max":549,"o":"m 328 1039 l 378 1245 l 517 1245 l 427 1039 l 328 1039 m 56 0 l 56 949 l 549 949 l 549 800 l 208 800 l 208 548 l 422 548 l 422 396 l 208 396 l 208 151 l 549 151 l 549 0 l 56 0 z "},"Ě":{"ha":602,"x_min":56,"x_max":549,"o":"m 163 1245 l 255 1245 l 302 1146 l 351 1245 l 445 1245 l 340 1039 l 264 1039 l 163 1245 m 56 0 l 56 949 l 549 949 l 549 800 l 208 800 l 208 548 l 422 548 l 422 396 l 208 396 l 208 151 l 549 151 l 549 0 l 56 0 z "},"Ê":{"ha":602,"x_min":56,"x_max":549,"o":"m 163 1039 l 264 1245 l 340 1245 l 445 1039 l 351 1039 l 302 1138 l 255 1039 l 163 1039 m 56 0 l 56 949 l 549 949 l 549 800 l 208 800 l 208 548 l 422 548 l 422 396 l 208 396 l 208 151 l 549 151 l 549 0 l 56 0 z "},"Ë":{"ha":602,"x_min":56,"x_max":549,"o":"m 119 1122 q 165 1196 119 1173 q 202 1206 183 1206 q 277 1157 255 1206 q 285 1122 285 1139 q 239 1047 285 1069 q 202 1039 221 1039 q 127 1086 149 1039 q 119 1122 119 1104 m 323 1122 q 369 1196 323 1173 q 406 1206 387 1206 q 480 1157 458 1206 q 488 1122 488 1139 q 442 1047 488 1069 q 406 1039 425 1039 q 331 1086 353 1039 q 323 1122 323 1104 m 56 0 l 56 949 l 549 949 l 549 800 l 208 800 l 208 548 l 422 548 l 422 396 l 208 396 l 208 151 l 549 151 l 549 0 l 56 0 z "},"Ė":{"ha":602,"x_min":56,"x_max":549,"o":"m 220 1123 q 266 1200 220 1177 q 304 1208 285 1208 q 380 1161 357 1208 q 388 1123 388 1142 q 340 1047 388 1069 q 304 1039 323 1039 q 228 1086 250 1039 q 220 1123 220 1104 m 56 0 l 56 949 l 549 949 l 549 800 l 208 800 l 208 548 l 422 548 l 422 396 l 208 396 l 208 151 l 549 151 l 549 0 l 56 0 z "},"È":{"ha":602,"x_min":56,"x_max":549,"o":"m 156 1245 l 294 1245 l 345 1039 l 245 1039 l 156 1245 m 56 0 l 56 949 l 549 949 l 549 800 l 208 800 l 208 548 l 422 548 l 422 396 l 208 396 l 208 151 l 549 151 l 549 0 l 56 0 z "},"Ē":{"ha":602,"x_min":56,"x_max":549,"o":"m 90 1039 l 90 1128 l 518 1128 l 518 1039 l 90 1039 m 56 0 l 56 949 l 549 949 l 549 800 l 208 800 l 208 548 l 422 548 l 422 396 l 208 396 l 208 151 l 549 151 l 549 0 l 56 0 z "},"Ę":{"ha":602,"x_min":56,"x_max":571,"o":"m 571 -259 l 571 -157 q 464 -91 484 -157 q 458 -54 458 -73 l 354 -54 q 437 -222 354 -167 q 571 -259 491 -259 m 56 0 l 56 949 l 549 949 l 549 800 l 208 800 l 208 548 l 422 548 l 422 396 l 208 396 l 208 151 l 549 151 l 549 0 l 56 0 z "},"Ð":{"ha":661,"x_min":35,"x_max":644,"o":"m 35 412 l 35 551 l 113 551 l 113 949 l 263 949 l 263 551 l 339 551 l 339 412 l 263 412 l 263 0 l 113 0 l 113 412 l 35 412 m 334 0 l 334 151 q 492 264 490 151 q 492 267 492 266 l 492 682 q 401 789 492 764 q 334 799 372 799 l 334 949 q 593 837 506 949 q 644 682 644 768 l 644 267 q 467 20 644 79 q 334 0 404 0 z "},"€":{"ha":741,"x_min":68,"x_max":704,"o":"m 68 359 l 68 430 l 130 430 l 130 511 l 68 511 l 68 582 l 130 582 l 130 681 q 210 875 130 792 q 381 949 283 947 l 381 800 q 285 734 309 800 q 278 693 278 713 l 278 582 l 553 582 l 553 510 l 278 510 l 278 430 l 553 430 l 553 359 l 278 359 l 278 266 q 338 157 278 184 q 381 149 358 149 l 381 0 q 175 115 248 5 q 130 247 134 178 l 130 359 l 68 359 m 457 0 l 457 149 q 536 195 506 152 q 556 247 551 218 q 557 253 556 248 q 558 264 557 258 q 559 277 559 270 q 560 289 560 283 q 560 298 560 294 l 560 302 l 704 251 q 620 73 704 155 q 457 0 544 1 m 457 800 l 457 949 q 654 852 581 948 q 704 699 704 784 l 559 646 q 556 709 559 701 q 477 798 540 781 q 457 800 465 800 z "},"F":{"ha":590,"x_min":56,"x_max":549,"o":"m 56 1 l 56 949 l 549 949 l 549 800 l 208 800 l 208 548 l 422 548 l 422 396 l 208 396 l 208 1 l 56 1 z "},"G":{"ha":690,"x_min":53,"x_max":643,"o":"m 53 260 q 187 33 53 109 q 320 -7 256 -7 l 320 144 q 247 174 286 144 q 203 260 205 209 l 203 689 q 250 781 203 745 q 320 806 281 804 l 320 956 q 94 829 172 956 q 53 711 58 769 l 53 260 m 389 -7 q 562 77 476 -5 q 643 239 642 159 l 643 479 l 389 479 l 389 339 l 490 339 l 490 258 q 427 159 490 198 q 389 144 404 144 l 389 -7 m 389 806 q 472 758 439 804 q 494 689 491 728 l 494 646 l 643 700 q 556 886 643 804 q 389 956 479 956 l 389 806 z "},"Ğ":{"ha":690,"x_min":53,"x_max":643,"o":"m 236 1156 l 311 1156 q 340 1114 311 1123 q 354 1112 349 1112 q 396 1142 387 1112 q 397 1156 397 1150 l 472 1156 q 418 1058 472 1093 q 354 1039 388 1039 q 252 1097 288 1039 q 236 1156 236 1126 m 53 260 q 187 33 53 109 q 320 -7 256 -7 l 320 144 q 247 174 286 144 q 203 260 205 209 l 203 689 q 250 781 203 745 q 320 806 281 804 l 320 956 q 94 829 172 956 q 53 711 58 769 l 53 260 m 389 -7 q 562 77 476 -5 q 643 239 642 159 l 643 479 l 389 479 l 389 339 l 490 339 l 490 258 q 427 159 490 198 q 389 144 404 144 l 389 -7 m 389 806 q 472 758 439 804 q 494 689 491 728 l 494 646 l 643 700 q 556 886 643 804 q 389 956 479 956 l 389 806 z "},"H":{"ha":663,"x_min":54,"x_max":609,"o":"m 54 0 l 54 949 l 206 949 l 206 552 l 296 552 l 296 404 l 206 404 l 206 0 l 54 0 m 368 404 l 368 552 l 457 552 l 457 949 l 609 949 l 609 0 l 457 0 l 457 404 l 368 404 z "},"I":{"ha":266,"x_min":57,"x_max":209,"o":"m 57 0 l 57 949 l 209 949 l 209 0 l 57 0 z "},"Í":{"ha":266,"x_min":57,"x_max":271,"o":"m 83 1039 l 133 1245 l 271 1245 l 182 1039 l 83 1039 m 57 0 l 57 949 l 209 949 l 209 0 l 57 0 z "},"Î":{"ha":266,"x_min":-8,"x_max":274,"o":"m -8 1039 l 94 1245 l 170 1245 l 274 1039 l 180 1039 l 132 1138 l 84 1039 l -8 1039 m 57 0 l 57 949 l 209 949 l 209 0 l 57 0 z "},"Ï":{"ha":266,"x_min":-52,"x_max":317,"o":"m -52 1122 q -5 1196 -52 1173 q 31 1206 12 1206 q 106 1157 84 1206 q 114 1122 114 1139 q 68 1047 114 1069 q 31 1039 50 1039 q -43 1086 -22 1039 q -52 1122 -52 1104 m 152 1122 q 198 1196 152 1173 q 235 1206 216 1206 q 309 1157 288 1206 q 317 1122 317 1139 q 271 1047 317 1069 q 235 1039 254 1039 q 160 1086 182 1039 q 152 1122 152 1104 m 57 0 l 57 949 l 209 949 l 209 0 l 57 0 z "},"İ":{"ha":266,"x_min":49,"x_max":217,"o":"m 49 1123 q 95 1200 49 1177 q 133 1208 114 1208 q 209 1161 186 1208 q 217 1123 217 1142 q 170 1047 217 1069 q 133 1039 152 1039 q 57 1086 79 1039 q 49 1123 49 1104 m 57 0 l 57 949 l 209 949 l 209 0 l 57 0 z "},"Ì":{"ha":266,"x_min":-7,"x_max":209,"o":"m -7 1245 l 132 1245 l 182 1039 l 83 1039 l -7 1245 m 57 0 l 57 949 l 209 949 l 209 0 l 57 0 z "},"Ī":{"ha":266,"x_min":-81,"x_max":347,"o":"m -81 1039 l -81 1128 l 347 1128 l 347 1039 l -81 1039 m 57 0 l 57 949 l 209 949 l 209 0 l 57 0 z "},"Į":{"ha":266,"x_min":57,"x_max":298,"o":"m 298 -256 q 98 -137 146 -256 q 81 -52 81 -96 l 186 -52 q 267 -152 186 -136 q 298 -155 283 -155 l 298 -256 m 57 0 l 57 949 l 209 949 l 209 0 l 57 0 z "},"J":{"ha":662,"x_min":22,"x_max":614,"o":"m 22 262 l 22 328 l 174 328 l 174 264 q 245 153 175 186 q 278 145 264 145 l 278 -7 q 127 50 203 -7 q 22 262 23 132 m 347 -7 l 347 145 q 419 175 380 145 q 464 262 463 210 l 464 949 l 614 949 l 614 262 q 480 34 614 111 q 347 -7 410 -7 z "},"K":{"ha":663,"x_min":56,"x_max":640,"o":"m 56 0 l 56 949 l 208 949 l 208 0 l 56 0 m 264 463 l 481 949 l 635 949 l 418 463 l 640 0 l 488 0 l 264 463 z "},"L":{"ha":589,"x_min":56,"x_max":566,"o":"m 56 0 l 56 949 l 208 949 l 208 149 l 566 149 l 566 0 l 56 0 z "},"Ĺ":{"ha":589,"x_min":56,"x_max":566,"o":"m 83 1039 l 133 1245 l 271 1245 l 182 1039 l 83 1039 m 56 0 l 56 949 l 208 949 l 208 149 l 566 149 l 566 0 l 56 0 z "},"Ľ":{"ha":589,"x_min":56,"x_max":566,"o":"m 320 750 l 370 956 l 507 956 l 457 750 l 320 750 m 56 0 l 56 949 l 208 949 l 208 149 l 566 149 l 566 0 l 56 0 z "},"Ł":{"ha":678,"x_min":45,"x_max":685,"o":"m 45 397 l 175 498 l 175 949 l 327 949 l 327 616 l 429 696 l 507 593 l 327 453 l 327 149 l 685 149 l 685 0 l 175 0 l 175 335 l 125 296 l 45 397 z "},"M":{"ha":944,"x_min":57,"x_max":887,"o":"m 57 0 l 57 643 l 69 643 l 209 308 l 209 0 l 57 0 m 57 852 l 57 949 l 178 949 l 465 251 l 652 674 l 666 674 l 666 330 l 519 0 l 411 0 l 57 852 m 735 0 l 735 949 l 887 949 l 887 0 l 735 0 z "},"N":{"ha":718,"x_min":57,"x_max":661,"o":"m 57 0 l 57 708 l 68 708 l 209 481 l 209 0 l 57 0 m 57 852 l 57 949 l 183 949 l 661 183 l 661 0 l 587 0 l 57 852 m 509 553 l 509 949 l 661 949 l 661 327 l 650 327 l 509 553 z "},"Ń":{"ha":718,"x_min":57,"x_max":661,"o":"m 309 1039 l 359 1245 l 498 1245 l 408 1039 l 309 1039 m 57 0 l 57 708 l 68 708 l 209 481 l 209 0 l 57 0 m 57 852 l 57 949 l 183 949 l 661 183 l 661 0 l 587 0 l 57 852 m 509 553 l 509 949 l 661 949 l 661 327 l 650 327 l 509 553 z "},"Ň":{"ha":718,"x_min":57,"x_max":661,"o":"m 218 1245 l 311 1245 l 358 1146 l 407 1245 l 500 1245 l 396 1039 l 320 1039 l 218 1245 m 57 0 l 57 708 l 68 708 l 209 481 l 209 0 l 57 0 m 57 852 l 57 949 l 183 949 l 661 183 l 661 0 l 587 0 l 57 852 m 509 553 l 509 949 l 661 949 l 661 327 l 650 327 l 509 553 z "},"Ñ":{"ha":718,"x_min":57,"x_max":661,"o":"m 168 1063 l 168 1177 q 263 1207 221 1207 q 359 1176 297 1207 q 441 1152 407 1152 q 549 1190 488 1153 l 549 1077 q 435 1039 487 1039 q 335 1070 399 1039 q 258 1093 289 1093 q 168 1063 216 1092 m 57 0 l 57 708 l 68 708 l 209 481 l 209 0 l 57 0 m 57 852 l 57 949 l 183 949 l 661 183 l 661 0 l 587 0 l 57 852 m 509 553 l 509 949 l 661 949 l 661 327 l 650 327 l 509 553 z "},"O":{"ha":712,"x_min":53,"x_max":661,"o":"m 53 264 l 53 711 q 114 857 53 783 q 320 956 195 955 l 320 806 q 214 730 250 804 q 203 689 203 705 l 203 264 q 279 156 203 191 q 319 145 302 145 l 319 -7 q 164 49 241 -7 q 53 264 54 130 m 393 -7 l 393 145 q 467 178 429 145 q 509 264 507 214 l 509 689 q 473 768 509 730 q 393 806 439 804 l 393 956 q 613 838 530 956 q 661 711 661 770 l 661 264 q 526 34 661 114 q 393 -7 456 -7 z "},"Œ":{"ha":863,"x_min":15,"x_max":947,"o":"m 15 270 l 15 697 q 118 892 15 821 q 316 949 199 949 l 316 799 q 170 715 193 798 q 165 682 165 699 l 165 270 q 315 152 167 152 l 315 0 q 81 87 164 0 q 15 270 15 157 m 387 0 l 387 152 l 453 152 l 453 799 l 387 799 l 387 949 l 947 949 l 947 800 l 605 800 l 605 548 l 819 548 l 819 396 l 605 396 l 605 151 l 947 151 l 947 0 l 387 0 z "},"Ó":{"ha":712,"x_min":53,"x_max":661,"o":"m 307 1039 l 357 1245 l 495 1245 l 406 1039 l 307 1039 m 53 264 l 53 711 q 114 857 53 783 q 320 956 195 955 l 320 806 q 214 730 250 804 q 203 689 203 705 l 203 264 q 279 156 203 191 q 319 145 302 145 l 319 -7 q 164 49 241 -7 q 53 264 54 130 m 393 -7 l 393 145 q 467 178 429 145 q 509 264 507 214 l 509 689 q 473 768 509 730 q 393 806 439 804 l 393 956 q 613 838 530 956 q 661 711 661 770 l 661 264 q 526 34 661 114 q 393 -7 456 -7 z "},"Ô":{"ha":712,"x_min":53,"x_max":661,"o":"m 214 1039 l 316 1245 l 392 1245 l 496 1039 l 403 1039 l 354 1138 l 307 1039 l 214 1039 m 53 264 l 53 711 q 114 857 53 783 q 320 956 195 955 l 320 806 q 214 730 250 804 q 203 689 203 705 l 203 264 q 279 156 203 191 q 319 145 302 145 l 319 -7 q 164 49 241 -7 q 53 264 54 130 m 393 -7 l 393 145 q 467 178 429 145 q 509 264 507 214 l 509 689 q 473 768 509 730 q 393 806 439 804 l 393 956 q 613 838 530 956 q 661 711 661 770 l 661 264 q 526 34 661 114 q 393 -7 456 -7 z "},"Ö":{"ha":712,"x_min":53,"x_max":661,"o":"m 171 1122 q 217 1196 171 1173 q 254 1206 235 1206 q 328 1157 307 1206 q 336 1122 336 1139 q 290 1047 336 1069 q 254 1039 273 1039 q 179 1086 201 1039 q 171 1122 171 1104 m 374 1122 q 420 1196 374 1173 q 457 1206 438 1206 q 532 1157 510 1206 q 540 1122 540 1139 q 494 1047 540 1069 q 457 1039 476 1039 q 382 1086 404 1039 q 374 1122 374 1104 m 53 264 l 53 711 q 114 857 53 783 q 320 956 195 955 l 320 806 q 214 730 250 804 q 203 689 203 705 l 203 264 q 279 156 203 191 q 319 145 302 145 l 319 -7 q 164 49 241 -7 q 53 264 54 130 m 393 -7 l 393 145 q 467 178 429 145 q 509 264 507 214 l 509 689 q 473 768 509 730 q 393 806 439 804 l 393 956 q 613 838 530 956 q 661 711 661 770 l 661 264 q 526 34 661 114 q 393 -7 456 -7 z "},"Ò":{"ha":712,"x_min":53,"x_max":661,"o":"m 208 1245 l 346 1245 l 396 1039 l 297 1039 l 208 1245 m 53 264 l 53 711 q 114 857 53 783 q 320 956 195 955 l 320 806 q 214 730 250 804 q 203 689 203 705 l 203 264 q 279 156 203 191 q 319 145 302 145 l 319 -7 q 164 49 241 -7 q 53 264 54 130 m 393 -7 l 393 145 q 467 178 429 145 q 509 264 507 214 l 509 689 q 473 768 509 730 q 393 806 439 804 l 393 956 q 613 838 530 956 q 661 711 661 770 l 661 264 q 526 34 661 114 q 393 -7 456 -7 z "},"Ő":{"ha":712,"x_min":53,"x_max":661,"o":"m 412 1039 l 463 1245 l 601 1245 l 511 1039 l 412 1039 m 224 1039 l 274 1245 l 412 1245 l 323 1039 l 224 1039 m 53 264 l 53 711 q 114 857 53 783 q 320 956 195 955 l 320 806 q 214 730 250 804 q 203 689 203 705 l 203 264 q 279 156 203 191 q 319 145 302 145 l 319 -7 q 164 49 241 -7 q 53 264 54 130 m 393 -7 l 393 145 q 467 178 429 145 q 509 264 507 214 l 509 689 q 473 768 509 730 q 393 806 439 804 l 393 956 q 613 838 530 956 q 661 711 661 770 l 661 264 q 526 34 661 114 q 393 -7 456 -7 z "},"Ō":{"ha":712,"x_min":53,"x_max":661,"o":"m 141 1039 l 141 1128 l 570 1128 l 570 1039 l 141 1039 m 53 264 l 53 711 q 114 857 53 783 q 320 956 195 955 l 320 806 q 214 730 250 804 q 203 689 203 705 l 203 264 q 279 156 203 191 q 319 145 302 145 l 319 -7 q 164 49 241 -7 q 53 264 54 130 m 393 -7 l 393 145 q 467 178 429 145 q 509 264 507 214 l 509 689 q 473 768 509 730 q 393 806 439 804 l 393 956 q 613 838 530 956 q 661 711 661 770 l 661 264 q 526 34 661 114 q 393 -7 456 -7 z "},"Ø":{"ha":902,"x_min":9,"x_max":887,"o":"m 9 165 l 146 289 l 146 711 q 208 857 146 783 q 414 956 289 955 l 414 806 q 308 728 339 804 q 298 684 298 704 l 298 426 l 601 699 q 538 793 591 765 q 487 806 515 804 l 487 956 q 704 840 624 956 q 723 808 715 823 l 803 880 l 887 785 l 754 665 l 754 264 q 620 34 754 114 q 487 -7 549 -7 l 487 145 q 562 178 524 145 q 602 264 601 214 l 602 528 l 300 254 q 378 155 305 186 q 412 145 399 145 l 412 -7 q 258 49 336 -7 q 176 144 205 90 l 95 71 l 9 165 z "},"Õ":{"ha":712,"x_min":53,"x_max":661,"o":"m 164 1051 l 164 1165 q 259 1195 217 1195 q 355 1164 293 1195 q 437 1139 403 1139 q 545 1177 484 1141 l 545 1065 q 431 1027 483 1027 q 331 1058 395 1027 q 254 1081 285 1081 q 164 1051 212 1080 m 53 264 l 53 711 q 114 857 53 783 q 320 956 195 955 l 320 806 q 214 730 250 804 q 203 689 203 705 l 203 264 q 279 156 203 191 q 319 145 302 145 l 319 -7 q 164 49 241 -7 q 53 264 54 130 m 393 -7 l 393 145 q 467 178 429 145 q 509 264 507 214 l 509 689 q 473 768 509 730 q 393 806 439 804 l 393 956 q 613 838 530 956 q 661 711 661 770 l 661 264 q 526 34 661 114 q 393 -7 456 -7 z "},"P":{"ha":651,"x_min":57,"x_max":629,"o":"m 57 0 l 57 949 l 209 949 l 209 0 l 57 0 m 278 429 l 278 576 l 369 576 q 476 673 468 576 q 476 689 476 681 q 369 802 467 796 l 278 802 l 278 949 l 381 949 q 629 692 628 945 q 505 446 629 495 q 381 429 453 429 q 278 429 378 429 z "},"Q":{"ha":715,"x_min":53,"x_max":661,"o":"m 53 264 l 53 711 q 113 856 53 783 q 321 956 195 955 l 321 806 q 214 731 248 804 q 203 689 203 707 l 203 264 q 290 152 203 183 q 320 145 309 145 l 320 -7 q 161 50 240 -7 q 53 264 54 132 m 391 -7 l 391 145 q 458 172 419 145 q 509 264 507 208 l 509 689 q 472 769 509 731 q 391 806 438 804 l 391 956 q 613 838 530 956 q 661 711 661 770 l 661 264 q 534 46 659 130 l 609 -64 l 490 -145 l 391 -7 z "},"R":{"ha":686,"x_min":57,"x_max":654,"o":"m 57 0 l 57 949 l 209 949 l 209 0 l 57 0 m 278 400 l 278 536 l 354 536 q 484 648 472 536 q 486 671 486 661 q 382 806 486 785 q 343 808 363 808 l 278 808 l 278 949 l 361 949 q 604 815 541 945 q 629 690 629 761 q 537 472 628 540 q 627 327 608 431 q 631 294 629 309 l 654 0 l 513 0 l 492 241 q 431 385 481 355 q 357 400 401 400 l 278 400 z "},"Ŕ":{"ha":686,"x_min":57,"x_max":654,"o":"m 258 1039 l 308 1245 l 446 1245 l 357 1039 l 258 1039 m 57 0 l 57 949 l 209 949 l 209 0 l 57 0 m 278 400 l 278 536 l 354 536 q 484 648 472 536 q 486 671 486 661 q 382 806 486 785 q 343 808 363 808 l 278 808 l 278 949 l 361 949 q 604 815 541 945 q 629 690 629 761 q 537 472 628 540 q 627 327 608 431 q 631 294 629 309 l 654 0 l 513 0 l 492 241 q 431 385 481 355 q 357 400 401 400 l 278 400 z "},"Ř":{"ha":686,"x_min":57,"x_max":654,"o":"m 149 1245 l 241 1245 l 289 1146 l 338 1245 l 431 1245 l 327 1039 l 251 1039 l 149 1245 m 57 0 l 57 949 l 209 949 l 209 0 l 57 0 m 278 400 l 278 536 l 354 536 q 484 648 472 536 q 486 671 486 661 q 382 806 486 785 q 343 808 363 808 l 278 808 l 278 949 l 361 949 q 604 815 541 945 q 629 690 629 761 q 537 472 628 540 q 627 327 608 431 q 631 294 629 309 l 654 0 l 513 0 l 492 241 q 431 385 481 355 q 357 400 401 400 l 278 400 z "},"S":{"ha":661,"x_min":31,"x_max":629,"o":"m 31 214 l 168 263 q 264 141 176 175 q 281 136 281 136 l 281 -4 q 83 96 164 -4 q 31 214 33 160 m 42 692 q 170 914 42 840 q 281 949 229 948 l 281 807 q 208 758 239 800 q 187 694 187 728 q 289 582 187 624 q 365 556 313 572 q 456 524 430 536 q 609 385 574 465 q 629 281 629 338 q 537 73 629 161 q 351 -4 454 -4 l 351 136 q 444 184 403 138 q 477 278 477 225 q 362 403 477 361 q 286 427 338 412 q 209 453 229 444 q 62 582 95 503 q 42 692 42 629 m 351 807 l 351 949 q 547 849 468 949 q 591 750 589 795 l 452 704 q 421 770 446 745 q 374 802 396 796 l 351 807 z "},"Ś":{"ha":661,"x_min":31,"x_max":629,"o":"m 263 1039 l 313 1245 l 452 1245 l 362 1039 l 263 1039 m 31 214 l 168 263 q 264 141 176 175 q 281 136 281 136 l 281 -4 q 83 96 164 -4 q 31 214 33 160 m 42 692 q 170 914 42 840 q 281 949 229 948 l 281 807 q 208 758 239 800 q 187 694 187 728 q 289 582 187 624 q 365 556 313 572 q 456 524 430 536 q 609 385 574 465 q 629 281 629 338 q 537 73 629 161 q 351 -4 454 -4 l 351 136 q 444 184 403 138 q 477 278 477 225 q 362 403 477 361 q 286 427 338 412 q 209 453 229 444 q 62 582 95 503 q 42 692 42 629 m 351 807 l 351 949 q 547 849 468 949 q 591 750 589 795 l 452 704 q 421 770 446 745 q 374 802 396 796 l 351 807 z "},"Š":{"ha":661,"x_min":22,"x_max":620,"o":"m 160 1245 l 252 1245 l 300 1146 l 349 1245 l 442 1245 l 338 1039 l 262 1039 l 160 1245 m 22 214 l 159 263 q 255 141 167 175 q 271 136 271 136 l 271 -4 q 73 96 155 -4 q 22 214 23 160 m 33 692 q 160 914 33 840 q 271 949 220 948 l 271 807 q 198 758 229 800 q 178 694 178 728 q 279 582 178 624 q 355 556 304 572 q 446 524 420 536 q 600 385 564 465 q 620 281 620 338 q 528 73 620 161 q 342 -4 445 -4 l 342 136 q 434 184 393 138 q 468 278 468 225 q 353 403 468 361 q 277 427 328 412 q 199 453 220 444 q 53 582 85 503 q 33 692 33 629 m 342 807 l 342 949 q 537 849 458 949 q 582 750 579 795 l 442 704 q 412 770 437 745 q 363 802 387 796 l 342 807 z "},"T":{"ha":632,"x_min":22,"x_max":609,"o":"m 22 802 l 22 949 l 609 949 l 609 802 l 392 802 l 392 0 l 240 0 l 240 802 l 22 802 z "},"Ť":{"ha":632,"x_min":22,"x_max":609,"o":"m 174 1245 l 266 1245 l 313 1146 l 362 1245 l 456 1245 l 351 1039 l 275 1039 l 174 1245 m 22 802 l 22 949 l 609 949 l 609 802 l 392 802 l 392 0 l 240 0 l 240 802 l 22 802 z "},"Þ":{"ha":643,"x_min":56,"x_max":609,"o":"m 56 0 l 56 949 l 206 949 l 206 0 l 56 0 m 278 282 l 278 431 l 327 431 q 454 540 453 434 q 327 651 453 651 l 278 651 l 278 800 q 576 689 514 803 q 608 544 606 633 q 473 308 609 359 q 278 282 399 279 z "},"U":{"ha":700,"x_min":46,"x_max":652,"o":"m 46 262 l 46 949 l 198 949 l 198 262 q 281 153 199 186 q 315 145 301 145 l 315 -7 q 159 47 237 -7 q 46 262 47 127 m 385 -7 l 385 145 q 458 175 420 145 q 502 262 500 210 l 502 949 l 652 949 l 652 262 q 517 33 652 109 q 385 -7 448 -7 z "},"Ú":{"ha":700,"x_min":46,"x_max":652,"o":"m 297 1039 l 347 1245 l 486 1245 l 396 1039 l 297 1039 m 46 262 l 46 949 l 198 949 l 198 262 q 281 153 199 186 q 315 145 301 145 l 315 -7 q 159 47 237 -7 q 46 262 47 127 m 385 -7 l 385 145 q 458 175 420 145 q 502 262 500 210 l 502 949 l 652 949 l 652 262 q 517 33 652 109 q 385 -7 448 -7 z "},"Û":{"ha":700,"x_min":46,"x_max":652,"o":"m 206 1039 l 308 1245 l 384 1245 l 488 1039 l 395 1039 l 346 1138 l 298 1039 l 206 1039 m 46 262 l 46 949 l 198 949 l 198 262 q 281 153 199 186 q 315 145 301 145 l 315 -7 q 159 47 237 -7 q 46 262 47 127 m 385 -7 l 385 145 q 458 175 420 145 q 502 262 500 210 l 502 949 l 652 949 l 652 262 q 517 33 652 109 q 385 -7 448 -7 z "},"Ü":{"ha":700,"x_min":46,"x_max":652,"o":"m 161 1122 q 208 1196 161 1173 q 244 1206 225 1206 q 319 1157 297 1206 q 327 1122 327 1139 q 281 1047 327 1069 q 244 1039 263 1039 q 170 1086 191 1039 q 161 1122 161 1104 m 365 1122 q 411 1196 365 1173 q 448 1206 429 1206 q 522 1157 500 1206 q 530 1122 530 1139 q 484 1047 530 1069 q 448 1039 467 1039 q 373 1086 395 1039 q 365 1122 365 1104 m 46 262 l 46 949 l 198 949 l 198 262 q 281 153 199 186 q 315 145 301 145 l 315 -7 q 159 47 237 -7 q 46 262 47 127 m 385 -7 l 385 145 q 458 175 420 145 q 502 262 500 210 l 502 949 l 652 949 l 652 262 q 517 33 652 109 q 385 -7 448 -7 z "},"Ù":{"ha":700,"x_min":46,"x_max":652,"o":"m 199 1245 l 338 1245 l 388 1039 l 289 1039 l 199 1245 m 46 262 l 46 949 l 198 949 l 198 262 q 281 153 199 186 q 315 145 301 145 l 315 -7 q 159 47 237 -7 q 46 262 47 127 m 385 -7 l 385 145 q 458 175 420 145 q 502 262 500 210 l 502 949 l 652 949 l 652 262 q 517 33 652 109 q 385 -7 448 -7 z "},"Ű":{"ha":700,"x_min":46,"x_max":652,"o":"m 415 1039 l 465 1245 l 604 1245 l 514 1039 l 415 1039 m 227 1039 l 277 1245 l 415 1245 l 326 1039 l 227 1039 m 46 262 l 46 949 l 198 949 l 198 262 q 281 153 199 186 q 315 145 301 145 l 315 -7 q 159 47 237 -7 q 46 262 47 127 m 385 -7 l 385 145 q 458 175 420 145 q 502 262 500 210 l 502 949 l 652 949 l 652 262 q 517 33 652 109 q 385 -7 448 -7 z "},"Ū":{"ha":700,"x_min":46,"x_max":652,"o":"m 133 1039 l 133 1128 l 562 1128 l 562 1039 l 133 1039 m 46 262 l 46 949 l 198 949 l 198 262 q 281 153 199 186 q 315 145 301 145 l 315 -7 q 159 47 237 -7 q 46 262 47 127 m 385 -7 l 385 145 q 458 175 420 145 q 502 262 500 210 l 502 949 l 652 949 l 652 262 q 517 33 652 109 q 385 -7 448 -7 z "},"Ų":{"ha":700,"x_min":46,"x_max":652,"o":"m 513 -259 q 312 -140 361 -259 q 296 -54 296 -99 l 400 -54 q 481 -155 400 -138 q 513 -157 498 -157 l 513 -259 m 46 262 l 46 949 l 198 949 l 198 262 q 281 153 199 186 q 315 145 301 145 l 315 -7 q 159 47 237 -7 q 46 262 47 127 m 385 -7 l 385 145 q 458 175 420 145 q 502 262 500 210 l 502 949 l 652 949 l 652 262 q 517 33 652 109 q 385 -7 448 -7 z "},"Ů":{"ha":700,"x_min":46,"x_max":652,"o":"m 228 1169 q 285 1271 228 1234 q 347 1289 315 1289 q 449 1232 412 1289 q 467 1169 467 1202 q 410 1067 467 1104 q 347 1050 380 1050 q 245 1107 282 1050 q 228 1169 228 1137 m 304 1169 q 334 1127 304 1137 q 347 1126 342 1126 q 389 1156 380 1126 q 391 1169 391 1164 q 361 1211 391 1202 q 347 1213 353 1213 q 305 1183 315 1213 q 304 1169 304 1175 m 46 262 l 46 949 l 198 949 l 198 262 q 281 153 199 186 q 315 145 301 145 l 315 -7 q 159 47 237 -7 q 46 262 47 127 m 385 -7 l 385 145 q 458 175 420 145 q 502 262 500 210 l 502 949 l 652 949 l 652 262 q 517 33 652 109 q 385 -7 448 -7 z "},"V":{"ha":642,"x_min":12,"x_max":631,"o":"m 12 949 l 165 949 l 395 165 l 339 0 l 288 0 l 12 949 m 351 560 l 476 949 l 631 949 q 572 765 618 909 q 434 324 461 416 l 420 324 l 351 560 z "},"W":{"ha":1074,"x_min":14,"x_max":1061,"o":"m 14 949 l 289 0 l 340 0 l 396 170 l 168 949 l 14 949 m 350 567 l 419 331 l 433 331 q 533 681 483 505 l 724 0 l 776 0 l 831 167 l 610 949 l 457 949 l 350 567 m 793 566 l 863 331 l 876 331 l 1061 949 l 906 949 l 793 566 z "},"X":{"ha":612,"x_min":26,"x_max":585,"o":"m 26 0 l 231 490 l 42 949 l 190 949 l 305 685 l 422 949 l 568 949 l 381 490 l 585 0 l 430 0 l 305 289 l 182 0 l 26 0 z "},"Y":{"ha":625,"x_min":23,"x_max":602,"o":"m 23 949 l 180 949 l 378 343 l 378 0 l 222 0 l 222 342 l 23 949 m 347 685 l 446 949 l 602 949 l 429 441 l 418 441 l 347 685 z "},"Ý":{"ha":625,"x_min":23,"x_max":602,"o":"m 256 1039 l 307 1245 l 445 1245 l 355 1039 l 256 1039 m 23 949 l 180 949 l 378 343 l 378 0 l 222 0 l 222 342 l 23 949 m 347 685 l 446 949 l 602 949 l 429 441 l 418 441 l 347 685 z "},"Ÿ":{"ha":625,"x_min":23,"x_max":602,"o":"m 121 1122 q 167 1196 121 1173 q 203 1206 184 1206 q 278 1157 256 1206 q 286 1122 286 1139 q 240 1047 286 1069 q 203 1039 222 1039 q 129 1086 151 1039 q 121 1122 121 1104 m 324 1122 q 370 1196 324 1173 q 407 1206 388 1206 q 481 1157 460 1206 q 490 1122 490 1139 q 444 1047 490 1069 q 407 1039 426 1039 q 332 1086 354 1039 q 324 1122 324 1104 m 23 949 l 180 949 l 378 343 l 378 0 l 222 0 l 222 342 l 23 949 m 347 685 l 446 949 l 602 949 l 429 441 l 418 441 l 347 685 z "},"Z":{"ha":586,"x_min":45,"x_max":541,"o":"m 45 0 l 45 149 l 374 800 l 45 800 l 45 949 l 541 949 l 541 804 l 212 153 l 541 153 l 541 0 l 45 0 z "},"Ź":{"ha":586,"x_min":45,"x_max":541,"o":"m 240 1039 l 290 1245 l 429 1245 l 339 1039 l 240 1039 m 45 0 l 45 149 l 374 800 l 45 800 l 45 949 l 541 949 l 541 804 l 212 153 l 541 153 l 541 0 l 45 0 z "},"Ž":{"ha":586,"x_min":45,"x_max":541,"o":"m 148 1245 l 240 1245 l 288 1146 l 336 1245 l 430 1245 l 326 1039 l 250 1039 l 148 1245 m 45 0 l 45 149 l 374 800 l 45 800 l 45 949 l 541 949 l 541 804 l 212 153 l 541 153 l 541 0 l 45 0 z "},"Ż":{"ha":586,"x_min":45,"x_max":541,"o":"m 205 1123 q 251 1200 205 1177 q 289 1208 270 1208 q 365 1161 342 1208 q 373 1123 373 1142 q 326 1047 373 1069 q 289 1039 308 1039 q 213 1086 235 1039 q 205 1123 205 1104 m 45 0 l 45 149 l 374 800 l 45 800 l 45 949 l 541 949 l 541 804 l 212 153 l 541 153 l 541 0 l 45 0 z "},"a":{"ha":637,"x_min":39,"x_max":597,"o":"m 39 175 q 113 46 39 99 q 264 0 176 0 l 264 134 q 163 205 164 136 l 163 233 q 179 271 164 260 q 307 311 190 279 q 420 350 388 332 l 420 216 q 359 137 420 151 q 334 134 347 134 l 334 0 q 477 46 423 1 q 597 0 525 0 l 597 136 q 560 179 562 138 l 560 544 q 495 689 560 625 q 332 753 430 753 l 332 620 q 414 570 393 620 q 420 536 420 553 l 420 507 q 271 426 420 472 q 111 372 130 382 q 39 241 41 330 l 39 175 m 50 564 l 175 517 q 235 614 175 594 q 264 620 250 620 l 264 753 q 103 685 171 753 q 50 564 50 631 z "},"á":{"ha":637,"x_min":39,"x_max":597,"o":"m 244 837 l 294 1043 l 433 1043 l 343 837 l 244 837 m 39 175 q 113 46 39 99 q 264 0 176 0 l 264 134 q 163 205 164 136 l 163 233 q 179 271 164 260 q 307 311 190 279 q 420 350 388 332 l 420 216 q 359 137 420 151 q 334 134 347 134 l 334 0 q 477 46 423 1 q 597 0 525 0 l 597 136 q 560 179 562 138 l 560 544 q 495 689 560 625 q 332 753 430 753 l 332 620 q 414 570 393 620 q 420 536 420 553 l 420 507 q 271 426 420 472 q 111 372 130 382 q 39 241 41 330 l 39 175 m 50 564 l 175 517 q 235 614 175 594 q 264 620 250 620 l 264 753 q 103 685 171 753 q 50 564 50 631 z "},"ă":{"ha":637,"x_min":39,"x_max":597,"o":"m 175 954 l 250 954 q 279 911 250 921 q 293 910 288 910 q 335 940 326 910 q 336 954 336 948 l 411 954 q 357 856 411 891 q 293 837 327 837 q 191 895 227 837 q 175 954 175 924 m 39 175 q 113 46 39 99 q 264 0 176 0 l 264 134 q 163 205 164 136 l 163 233 q 179 271 164 260 q 307 311 190 279 q 420 350 388 332 l 420 216 q 359 137 420 151 q 334 134 347 134 l 334 0 q 477 46 423 1 q 597 0 525 0 l 597 136 q 560 179 562 138 l 560 544 q 495 689 560 625 q 332 753 430 753 l 332 620 q 414 570 393 620 q 420 536 420 553 l 420 507 q 271 426 420 472 q 111 372 130 382 q 39 241 41 330 l 39 175 m 50 564 l 175 517 q 235 614 175 594 q 264 620 250 620 l 264 753 q 103 685 171 753 q 50 564 50 631 z "},"â":{"ha":637,"x_min":39,"x_max":597,"o":"m 152 837 l 254 1043 l 330 1043 l 434 837 l 340 837 l 292 936 l 244 837 l 152 837 m 39 175 q 113 46 39 99 q 264 0 176 0 l 264 134 q 163 205 164 136 l 163 233 q 179 271 164 260 q 307 311 190 279 q 420 350 388 332 l 420 216 q 359 137 420 151 q 334 134 347 134 l 334 0 q 477 46 423 1 q 597 0 525 0 l 597 136 q 560 179 562 138 l 560 544 q 495 689 560 625 q 332 753 430 753 l 332 620 q 414 570 393 620 q 420 536 420 553 l 420 507 q 271 426 420 472 q 111 372 130 382 q 39 241 41 330 l 39 175 m 50 564 l 175 517 q 235 614 175 594 q 264 620 250 620 l 264 753 q 103 685 171 753 q 50 564 50 631 z "},"´":{"ha":502,"x_min":156,"x_max":345,"o":"m 156 821 l 206 1027 l 345 1027 l 255 821 l 156 821 z "},"ä":{"ha":637,"x_min":39,"x_max":597,"o":"m 109 918 q 155 993 109 970 q 191 1002 172 1002 q 266 954 244 1002 q 274 918 274 936 q 228 844 274 865 q 191 836 210 836 q 117 883 138 836 q 109 918 109 901 m 312 918 q 358 993 312 970 q 395 1002 376 1002 q 469 954 448 1002 q 477 918 477 936 q 431 844 477 865 q 395 836 414 836 q 320 883 342 836 q 312 918 312 901 m 39 175 q 113 46 39 99 q 264 0 176 0 l 264 134 q 163 205 164 136 l 163 233 q 179 271 164 260 q 307 311 190 279 q 420 350 388 332 l 420 216 q 359 137 420 151 q 334 134 347 134 l 334 0 q 477 46 423 1 q 597 0 525 0 l 597 136 q 560 179 562 138 l 560 544 q 495 689 560 625 q 332 753 430 753 l 332 620 q 414 570 393 620 q 420 536 420 553 l 420 507 q 271 426 420 472 q 111 372 130 382 q 39 241 41 330 l 39 175 m 50 564 l 175 517 q 235 614 175 594 q 264 620 250 620 l 264 753 q 103 685 171 753 q 50 564 50 631 z "},"æ":{"ha":812,"x_min":35,"x_max":898,"o":"m 35 153 q 111 34 35 80 q 245 1 168 1 l 245 125 q 149 199 151 127 l 149 220 q 243 290 148 263 q 288 302 258 294 q 393 339 370 323 l 393 202 q 346 132 393 151 q 309 125 328 125 l 309 1 q 456 68 411 3 q 646 0 518 0 q 876 110 812 0 q 898 163 891 134 l 788 203 q 643 118 765 119 q 534 165 567 118 q 521 209 521 186 l 521 297 l 897 297 l 897 513 q 810 655 897 595 q 677 700 746 700 l 677 575 q 760 533 731 575 q 772 491 772 513 l 772 425 l 521 425 l 521 491 q 564 560 521 536 q 613 574 586 574 l 613 700 q 460 637 522 699 q 279 704 396 704 q 102 632 170 704 q 54 514 54 581 l 160 484 q 237 581 160 559 q 283 586 260 586 q 382 544 351 586 q 393 510 393 526 l 393 480 q 305 414 393 444 q 254 397 289 408 q 75 317 118 357 q 35 235 35 282 l 35 153 z "},"à":{"ha":637,"x_min":39,"x_max":597,"o":"m 153 1043 l 292 1043 l 342 837 l 243 837 l 153 1043 m 39 175 q 113 46 39 99 q 264 0 176 0 l 264 134 q 163 205 164 136 l 163 233 q 179 271 164 260 q 307 311 190 279 q 420 350 388 332 l 420 216 q 359 137 420 151 q 334 134 347 134 l 334 0 q 477 46 423 1 q 597 0 525 0 l 597 136 q 560 179 562 138 l 560 544 q 495 689 560 625 q 332 753 430 753 l 332 620 q 414 570 393 620 q 420 536 420 553 l 420 507 q 271 426 420 472 q 111 372 130 382 q 39 241 41 330 l 39 175 m 50 564 l 175 517 q 235 614 175 594 q 264 620 250 620 l 264 753 q 103 685 171 753 q 50 564 50 631 z "},"ā":{"ha":637,"x_min":39,"x_max":597,"o":"m 87 837 l 87 926 l 515 926 l 515 837 l 87 837 m 39 175 q 113 46 39 99 q 264 0 176 0 l 264 134 q 163 205 164 136 l 163 233 q 179 271 164 260 q 307 311 190 279 q 420 350 388 332 l 420 216 q 359 137 420 151 q 334 134 347 134 l 334 0 q 477 46 423 1 q 597 0 525 0 l 597 136 q 560 179 562 138 l 560 544 q 495 689 560 625 q 332 753 430 753 l 332 620 q 414 570 393 620 q 420 536 420 553 l 420 507 q 271 426 420 472 q 111 372 130 382 q 39 241 41 330 l 39 175 m 50 564 l 175 517 q 235 614 175 594 q 264 620 250 620 l 264 753 q 103 685 171 753 q 50 564 50 631 z "},"&":{"ha":884,"x_min":45,"x_max":840,"o":"m 433 186 q 338 148 389 148 q 220 208 263 148 q 195 285 195 243 q 248 391 197 346 l 148 506 q 45 289 46 419 q 149 68 45 153 q 338 0 232 0 q 530 72 448 1 l 433 186 m 503 723 q 458 803 499 776 q 430 815 445 811 l 430 958 q 604 846 543 943 q 639 758 629 804 l 503 723 m 355 815 q 290 762 309 808 q 282 723 282 743 q 327 631 282 681 q 330 628 330 628 l 582 340 q 633 460 625 389 q 633 468 633 465 l 787 468 q 688 220 776 331 l 840 46 l 686 5 l 220 537 q 144 688 152 618 q 142 722 142 704 q 235 907 142 837 q 355 958 288 948 l 355 815 z "},"ං":{"ha":628,"x_min":41,"x_max":587,"o":"m 347 61 l 347 202 q 437 281 425 202 q 441 336 441 304 l 441 422 q 395 547 441 524 q 347 556 374 556 l 347 697 l 377 697 q 582 503 551 697 q 587 422 587 465 l 587 336 q 444 71 587 113 q 377 61 412 61 l 347 61 m 251 61 q 46 255 77 61 q 41 336 41 293 l 41 422 q 184 688 41 646 q 251 697 216 697 l 279 697 l 279 556 q 189 473 201 556 q 186 422 186 452 l 186 336 q 237 210 186 231 q 279 202 256 202 l 279 61 l 251 61 z "},"ą":{"ha":637,"x_min":39,"x_max":650,"o":"m 650 -259 q 449 -140 498 -259 q 433 -54 433 -99 l 537 -54 q 618 -155 537 -138 q 650 -157 635 -157 l 650 -259 m 39 175 q 113 46 39 99 q 264 0 176 0 l 264 134 q 163 205 164 136 l 163 233 q 179 271 164 260 q 307 311 190 279 q 420 350 388 332 l 420 216 q 359 137 420 151 q 334 134 347 134 l 334 0 q 477 46 423 1 q 597 0 525 0 l 597 136 q 560 179 562 138 l 560 544 q 495 689 560 625 q 332 753 430 753 l 332 620 q 414 570 393 620 q 420 536 420 553 l 420 507 q 271 426 420 472 q 111 372 130 382 q 39 241 41 330 l 39 175 m 50 564 l 175 517 q 235 614 175 594 q 264 620 250 620 l 264 753 q 103 685 171 753 q 50 564 50 631 z "},"≈":{"ha":770,"x_min":68,"x_max":703,"o":"m 68 260 l 68 403 q 221 450 151 450 q 369 403 279 450 q 509 351 457 355 q 525 351 518 351 q 703 412 604 353 l 703 273 q 517 210 600 210 q 359 260 453 210 q 213 309 262 307 q 68 260 142 308 m 68 545 l 68 688 q 221 735 151 735 q 369 688 279 735 q 509 636 457 640 q 525 636 518 636 q 703 697 604 637 l 703 557 q 517 495 600 495 q 359 545 453 495 q 213 594 262 591 q 68 545 142 593 z "},"å":{"ha":637,"x_min":39,"x_max":597,"o":"m 179 967 q 236 1069 179 1032 q 298 1086 266 1086 q 400 1029 363 1086 q 418 967 418 1000 q 361 865 418 902 q 298 848 331 848 q 197 905 233 848 q 179 967 179 935 m 255 967 q 285 925 255 935 q 298 924 293 924 q 340 954 331 924 q 342 967 342 962 q 312 1009 342 1000 q 298 1010 304 1010 q 256 981 266 1010 q 255 967 255 972 m 39 175 q 113 46 39 99 q 264 0 176 0 l 264 134 q 163 205 164 136 l 163 233 q 179 271 164 260 q 307 311 190 279 q 420 350 388 332 l 420 216 q 359 137 420 151 q 334 134 347 134 l 334 0 q 477 46 423 1 q 597 0 525 0 l 597 136 q 560 179 562 138 l 560 544 q 495 689 560 625 q 332 753 430 753 l 332 620 q 414 570 393 620 q 420 536 420 553 l 420 507 q 271 426 420 472 q 111 372 130 382 q 39 241 41 330 l 39 175 m 50 564 l 175 517 q 235 614 175 594 q 264 620 250 620 l 264 753 q 103 685 171 753 q 50 564 50 631 z "},"^":{"ha":655,"x_min":77,"x_max":578,"o":"m 77 624 l 279 1025 l 376 1025 l 578 624 l 442 624 l 326 857 l 212 624 l 77 624 z "},"~":{"ha":852,"x_min":109,"x_max":743,"o":"m 109 388 l 109 530 q 262 578 191 578 q 410 530 320 578 q 549 479 498 483 q 566 479 559 479 q 743 540 644 480 l 743 400 q 557 338 640 338 q 400 388 494 338 q 254 437 302 434 q 109 388 183 435 z "},"*":{"ha":452,"x_min":31,"x_max":422,"o":"m 31 943 l 80 1010 l 182 945 l 182 1065 l 266 1065 l 266 941 l 373 1010 l 422 943 l 294 857 l 420 770 l 372 703 l 266 779 l 266 648 l 182 648 l 182 777 l 79 707 l 31 774 l 157 859 l 31 943 z "},"@":{"ha":1076,"x_min":31,"x_max":1043,"o":"m 31 419 q 179 788 31 636 q 574 955 334 945 q 601 955 587 955 q 902 854 776 955 q 1043 559 1042 742 q 880 218 1043 315 q 720 175 806 175 q 625 220 662 175 q 613 241 617 232 q 471 178 568 179 q 332 260 387 178 q 294 397 294 321 q 414 642 294 556 q 553 690 481 690 q 678 639 632 689 l 681 636 l 692 670 l 788 670 l 723 418 q 712 361 713 384 q 738 312 709 323 q 753 309 745 309 q 859 368 812 309 q 913 559 913 437 q 792 773 913 692 q 604 831 704 831 q 294 715 423 831 q 163 422 164 595 q 311 95 163 206 q 557 16 414 16 q 905 129 745 18 l 960 27 q 675 -95 853 -66 q 567 -104 620 -104 q 165 52 313 -104 q 31 419 31 194 z "},"ã":{"ha":637,"x_min":39,"x_max":597,"o":"m 106 860 l 106 974 q 201 1004 159 1004 q 297 972 235 1004 q 378 948 345 948 q 487 986 426 949 l 487 873 q 373 836 425 836 q 273 867 336 836 q 195 890 227 890 q 106 860 153 888 m 39 175 q 113 46 39 99 q 264 0 176 0 l 264 134 q 163 205 164 136 l 163 233 q 179 271 164 260 q 307 311 190 279 q 420 350 388 332 l 420 216 q 359 137 420 151 q 334 134 347 134 l 334 0 q 477 46 423 1 q 597 0 525 0 l 597 136 q 560 179 562 138 l 560 544 q 495 689 560 625 q 332 753 430 753 l 332 620 q 414 570 393 620 q 420 536 420 553 l 420 507 q 271 426 420 472 q 111 372 130 382 q 39 241 41 330 l 39 175 m 50 564 l 175 517 q 235 614 175 594 q 264 620 250 620 l 264 753 q 103 685 171 753 q 50 564 50 631 z "},"b":{"ha":617,"x_min":56,"x_max":576,"o":"m 56 0 l 56 964 l 205 964 l 205 0 l 56 0 m 273 0 l 273 140 l 354 140 q 427 184 403 140 q 435 208 435 198 l 435 544 q 403 595 435 572 q 355 612 380 610 l 273 612 l 273 751 l 355 751 q 538 652 471 751 q 576 549 575 600 l 576 205 q 524 79 576 142 q 354 0 456 1 l 273 0 z "},"\\":{"ha":487,"x_min":56,"x_max":431,"o":"m 56 971 l 194 971 l 431 -31 l 292 -31 l 56 971 z "},"|":{"ha":251,"x_min":68,"x_max":183,"o":"m 68 -182 l 68 1023 l 183 1023 l 183 -182 l 68 -182 z "},"{":{"ha":368,"x_min":20,"x_max":340,"o":"m 20 472 q 91 511 79 496 q 104 553 103 528 l 104 704 q 202 971 104 918 q 340 997 250 997 l 340 887 q 259 845 277 887 q 243 636 243 804 l 243 519 q 189 472 240 486 q 243 412 241 453 l 243 281 q 282 73 243 109 q 340 57 301 57 l 340 -52 q 183 -19 228 -50 q 104 239 104 41 l 104 393 q 62 450 104 427 q 42 461 57 454 q 20 472 27 468 z "},"}":{"ha":368,"x_min":27,"x_max":347,"o":"m 27 -52 l 27 57 q 103 100 84 57 q 125 282 125 149 l 125 412 q 179 472 127 454 q 125 521 126 487 l 125 636 q 107 845 123 807 q 27 887 88 887 l 27 997 q 201 944 151 997 q 263 704 263 876 l 263 553 q 307 490 264 510 q 347 472 315 486 q 281 435 288 441 q 263 393 263 418 l 263 239 q 160 -30 263 20 q 27 -52 115 -52 z "},"[":{"ha":319,"x_min":68,"x_max":286,"o":"m 68 -49 l 68 1002 l 286 1002 l 286 882 l 212 882 l 208 72 l 286 72 l 286 -49 l 68 -49 z "},"]":{"ha":312,"x_min":33,"x_max":251,"o":"m 33 -49 l 33 72 l 111 72 l 107 882 l 33 882 l 33 1002 l 251 1002 l 251 -49 l 33 -49 z "},"˘":{"ha":331,"x_min":47,"x_max":283,"o":"m 47 713 l 122 713 q 152 671 122 681 q 165 670 160 670 q 208 700 198 670 q 209 713 209 708 l 283 713 q 229 616 283 651 q 165 597 199 597 q 64 655 99 597 q 47 713 47 682 z "},"¦":{"ha":258,"x_min":57,"x_max":190,"o":"m 57 -187 l 57 296 l 190 296 l 190 -187 l 57 -187 m 57 549 l 57 1032 l 190 1032 l 190 549 l 57 549 z "},"•":{"ha":477,"x_min":71,"x_max":407,"o":"m 71 467 q 144 608 71 557 q 239 637 187 637 q 378 564 328 637 q 407 467 407 519 q 335 327 407 377 q 239 298 292 298 q 100 370 151 298 q 71 467 71 414 z "},"c":{"ha":609,"x_min":52,"x_max":579,"o":"m 52 205 q 107 73 52 134 q 286 0 175 0 l 286 138 q 198 186 216 138 q 194 205 194 195 l 194 545 q 233 602 194 582 q 286 614 256 614 l 286 751 q 85 646 153 751 q 52 548 53 595 l 52 205 m 347 613 q 426 552 412 613 q 429 530 429 541 l 429 492 l 562 543 q 480 707 562 643 q 347 751 420 751 l 347 613 m 347 -1 q 517 71 444 -4 q 578 209 578 133 l 445 259 l 445 222 q 347 137 438 138 l 347 -1 z "},"ć":{"ha":609,"x_min":52,"x_max":579,"o":"m 266 833 l 316 1039 l 454 1039 l 365 833 l 266 833 m 52 205 q 107 73 52 134 q 286 0 175 0 l 286 138 q 198 186 216 138 q 194 205 194 195 l 194 545 q 233 602 194 582 q 286 614 256 614 l 286 751 q 85 646 153 751 q 52 548 53 595 l 52 205 m 347 613 q 426 552 412 613 q 429 530 429 541 l 429 492 l 562 543 q 480 707 562 643 q 347 751 420 751 l 347 613 m 347 -1 q 517 71 444 -4 q 578 209 578 133 l 445 259 l 445 222 q 347 137 438 138 l 347 -1 z "},"ˇ":{"ha":366,"x_min":42,"x_max":324,"o":"m 42 903 l 134 903 l 182 804 l 231 903 l 324 903 l 220 697 l 144 697 l 42 903 z "},"č":{"ha":609,"x_min":52,"x_max":579,"o":"m 175 1039 l 267 1039 l 315 940 l 363 1039 l 457 1039 l 353 833 l 277 833 l 175 1039 m 52 205 q 107 73 52 134 q 286 0 175 0 l 286 138 q 198 186 216 138 q 194 205 194 195 l 194 545 q 233 602 194 582 q 286 614 256 614 l 286 751 q 85 646 153 751 q 52 548 53 595 l 52 205 m 347 613 q 426 552 412 613 q 429 530 429 541 l 429 492 l 562 543 q 480 707 562 643 q 347 751 420 751 l 347 613 m 347 -1 q 517 71 444 -4 q 578 209 578 133 l 445 259 l 445 222 q 347 137 438 138 l 347 -1 z "},"ç":{"ha":609,"x_min":52,"x_max":579,"o":"m 153 -259 l 153 -157 q 260 -91 240 -157 q 266 -54 266 -73 l 370 -54 q 288 -222 370 -167 q 153 -259 233 -259 m 52 205 q 107 73 52 134 q 286 0 175 0 l 286 138 q 198 186 216 138 q 194 205 194 195 l 194 545 q 233 602 194 582 q 286 614 256 614 l 286 751 q 85 646 153 751 q 52 548 53 595 l 52 205 m 347 613 q 426 552 412 613 q 429 530 429 541 l 429 492 l 562 543 q 480 707 562 643 q 347 751 420 751 l 347 613 m 347 -1 q 517 71 444 -4 q 578 209 578 133 l 445 259 l 445 222 q 347 137 438 138 l 347 -1 z "},"¸":{"ha":567,"x_min":167,"x_max":384,"o":"m 167 -38 l 167 64 q 274 130 254 64 q 279 167 279 148 l 384 167 q 301 -1 384 54 q 167 -38 247 -38 z "},"¢":{"ha":605,"x_min":52,"x_max":578,"o":"m 346 39 l 346 -114 l 408 -114 l 408 7 q 552 117 505 34 q 578 209 578 161 l 445 259 l 445 250 q 445 231 445 240 l 444 221 q 377 141 439 157 q 347 137 362 137 l 347 39 l 346 39 m 346 864 l 346 711 l 347 711 l 347 610 q 420 567 399 610 q 429 530 427 549 l 429 491 l 562 540 q 480 703 562 639 q 408 741 446 728 l 408 864 l 346 864 m 224 864 l 224 743 q 72 621 121 718 q 52 545 53 581 l 52 205 q 109 72 52 133 q 224 7 155 22 l 224 -114 l 285 -114 l 285 138 q 201 189 225 140 q 194 214 194 202 l 194 530 q 237 601 194 578 q 285 612 259 612 l 285 864 l 224 864 z "},"ˆ":{"ha":366,"x_min":42,"x_max":324,"o":"m 42 697 l 144 903 l 220 903 l 324 697 l 231 697 l 182 796 l 134 697 l 42 697 z "},":":{"ha":301,"x_min":68,"x_max":233,"o":"m 68 142 q 114 217 68 194 q 151 227 132 227 q 225 180 202 227 q 233 142 233 161 q 189 71 233 92 q 151 61 170 61 q 76 107 98 61 q 68 142 68 125 m 68 536 q 114 610 68 587 q 151 620 132 620 q 225 574 202 620 q 233 536 233 555 q 189 464 233 486 q 151 454 170 454 q 76 500 98 454 q 68 536 68 518 z "},",":{"ha":316,"x_min":65,"x_max":252,"o":"m 65 -31 l 115 175 l 252 175 l 202 -31 l 65 -31 z "},"©":{"ha":1095,"x_min":47,"x_max":1054,"o":"m 47 460 q 198 92 47 243 q 500 -52 328 -37 q 528 -53 515 -53 l 528 49 q 255 178 369 54 q 145 460 145 300 q 281 770 145 647 q 528 873 393 872 l 528 972 q 258 876 389 972 q 53 543 85 750 q 47 460 47 502 m 357 320 q 406 202 357 254 q 528 152 453 152 l 528 251 q 460 300 477 251 q 456 320 456 311 l 456 598 q 486 656 456 633 q 528 669 505 669 l 528 768 q 376 673 423 768 q 357 600 357 635 l 357 320 m 575 -53 q 880 72 743 -49 q 1053 414 1035 209 q 1054 448 1054 431 q 890 838 1054 684 q 608 971 764 956 q 575 972 590 972 l 575 873 q 827 764 716 872 q 956 453 956 637 q 841 172 956 293 q 575 49 727 54 l 575 -53 m 575 152 q 700 218 648 152 q 735 315 735 264 l 637 350 l 637 326 q 598 255 637 273 q 575 250 586 250 l 575 152 m 575 669 q 631 627 613 667 q 637 590 637 609 l 637 568 l 734 605 q 669 732 734 681 q 575 768 624 768 l 575 669 z "},"¤":{"ha":857,"x_min":54,"x_max":789,"o":"m 56 247 l 178 358 q 175 385 175 363 l 175 604 q 178 633 175 621 l 54 743 l 133 833 l 236 743 q 397 807 298 807 l 397 678 q 311 624 330 678 q 307 600 307 610 l 307 388 q 350 320 307 343 q 397 309 372 309 l 397 180 q 235 248 297 182 l 133 159 l 56 247 m 453 180 l 453 308 q 534 361 515 308 q 540 387 540 374 l 540 600 q 498 669 540 646 q 453 678 477 678 l 453 807 q 609 742 547 806 l 711 833 l 789 743 l 665 632 q 669 605 669 624 l 669 385 q 665 358 669 368 l 788 247 l 709 159 l 609 247 q 453 180 548 180 z "},"d":{"ha":612,"x_min":41,"x_max":556,"o":"m 41 205 l 41 548 q 102 680 42 617 q 260 750 168 749 l 339 750 l 339 609 l 260 609 q 189 564 212 609 q 182 541 182 551 l 182 208 q 217 155 182 178 q 263 140 239 140 l 339 140 l 339 0 l 263 0 q 73 107 140 0 q 41 205 41 160 m 407 0 l 407 964 l 556 964 l 556 0 l 407 0 z "},"†":{"ha":614,"x_min":35,"x_max":579,"o":"m 35 627 l 35 765 l 232 765 l 232 1036 l 382 1036 l 382 765 l 579 765 l 579 627 l 382 627 l 382 -76 l 232 -76 l 232 627 l 35 627 z "},"‡":{"ha":614,"x_min":35,"x_max":579,"o":"m 35 194 l 35 332 l 232 332 l 232 628 l 35 628 l 35 766 l 232 766 l 232 1036 l 384 1036 l 384 766 l 579 766 l 579 628 l 384 628 l 384 332 l 579 332 l 579 194 l 384 194 l 384 -76 l 232 -76 l 232 194 l 35 194 z "},"ď":{"ha":612,"x_min":41,"x_max":861,"o":"m 674 799 l 724 1005 l 861 1005 l 811 799 l 674 799 m 41 205 l 41 548 q 102 680 42 617 q 260 750 168 749 l 339 750 l 339 609 l 260 609 q 189 564 212 609 q 182 541 182 551 l 182 208 q 217 155 182 178 q 263 140 239 140 l 339 140 l 339 0 l 263 0 q 73 107 140 0 q 41 205 41 160 m 407 0 l 407 964 l 556 964 l 556 0 l 407 0 z "},"đ":{"ha":562,"x_min":39,"x_max":608,"o":"m 39 191 l 39 511 q 99 637 41 578 q 244 700 160 699 l 320 700 l 320 571 l 244 571 q 174 528 195 570 q 168 506 168 515 l 168 194 q 203 142 168 165 q 247 129 224 129 l 320 129 l 320 0 l 247 0 q 69 102 132 0 q 39 191 39 151 m 278 780 l 278 887 l 384 887 l 384 964 l 521 964 l 521 887 l 608 887 l 608 780 l 521 780 l 521 0 l 384 0 l 384 780 l 278 780 z "},"°":{"ha":372,"x_min":47,"x_max":324,"o":"m 47 791 q 111 907 47 865 q 186 929 146 929 q 302 865 260 929 q 324 791 324 830 q 260 674 324 716 q 186 652 225 652 q 69 716 111 652 q 47 791 47 751 m 134 791 q 168 742 134 754 q 186 739 178 739 q 236 774 224 739 q 239 791 239 783 q 203 841 239 829 q 186 844 195 844 q 138 810 151 844 q 134 791 134 800 z "},"¨":{"ha":518,"x_min":75,"x_max":444,"o":"m 75 920 q 121 994 75 971 q 157 1004 138 1004 q 232 955 210 1004 q 240 920 240 937 q 194 845 240 867 q 157 837 176 837 q 83 884 104 837 q 75 920 75 902 m 278 920 q 324 994 278 971 q 361 1004 342 1004 q 435 955 414 1004 q 444 920 444 937 q 397 845 444 867 q 361 837 380 837 q 286 884 308 837 q 278 920 278 902 z "},"÷":{"ha":882,"x_min":104,"x_max":715,"o":"m 104 327 l 104 464 l 715 464 l 715 327 l 104 327 m 334 629 q 381 708 334 684 q 420 718 400 718 q 499 669 475 718 q 509 629 509 650 q 460 551 509 575 q 420 541 441 541 q 345 587 369 541 q 334 629 334 608 m 334 195 q 381 274 334 250 q 420 283 400 283 q 499 235 475 283 q 509 195 509 216 q 460 117 509 141 q 420 107 441 107 q 345 153 369 107 q 334 195 334 174 z "},"$":{"ha":669,"x_min":35,"x_max":633,"o":"m 35 214 l 172 263 q 270 141 183 175 q 285 136 285 136 l 285 -64 l 205 -64 l 205 12 q 60 138 111 45 q 35 214 37 180 m 46 692 q 171 910 46 836 q 205 928 189 921 l 205 1017 l 285 1017 l 285 807 q 212 758 243 800 q 191 694 191 728 q 285 590 193 627 l 285 427 q 213 453 237 442 q 66 582 99 503 q 46 692 46 629 m 355 -64 l 355 136 q 448 184 407 138 q 481 278 481 225 q 376 396 481 355 q 355 403 366 399 l 355 562 q 460 524 418 544 q 613 385 578 465 q 633 281 633 338 q 540 75 633 161 q 435 11 492 31 l 435 -64 l 355 -64 m 355 807 l 355 1017 l 435 1017 l 435 930 q 578 798 526 895 q 595 750 591 769 l 454 704 q 422 770 448 745 q 377 802 397 796 l 355 807 z "},"˙":{"ha":274,"x_min":53,"x_max":221,"o":"m 53 920 q 99 997 53 974 q 137 1005 118 1005 q 213 958 190 1005 q 221 920 221 939 q 174 844 221 865 q 137 836 156 836 q 61 883 83 836 q 53 920 53 901 z "},"ı":{"ha":236,"x_min":52,"x_max":184,"o":"m 52 0 l 52 700 l 184 700 l 184 0 l 52 0 z "},"◌":{"ha":863,"x_min":49,"x_max":825,"o":"m 209 656 q 248 716 209 700 q 274 722 260 722 q 334 681 317 722 q 339 656 339 670 q 300 595 339 612 q 274 590 286 590 q 214 631 231 590 q 209 656 209 644 m 92 540 q 133 600 92 583 q 157 605 144 605 q 218 566 202 605 q 224 540 224 553 q 183 480 224 496 q 157 475 170 475 q 98 514 114 475 q 92 540 92 528 m 209 98 q 248 159 209 142 q 274 164 262 164 q 334 123 317 164 q 339 98 339 110 q 300 38 339 54 q 274 33 288 33 q 214 73 231 33 q 209 98 209 84 m 92 214 q 133 274 92 258 q 157 279 144 279 q 218 240 202 279 q 224 214 224 228 q 183 155 224 171 q 157 149 170 149 q 98 189 114 149 q 92 214 92 202 m 534 98 q 574 159 534 142 q 600 164 587 164 q 659 123 643 164 q 665 98 665 110 q 625 38 665 54 q 600 33 613 33 q 540 73 556 33 q 534 98 534 84 m 650 214 q 690 274 650 258 q 716 279 704 279 q 776 240 760 279 q 781 214 781 228 q 741 155 781 171 q 716 149 728 149 q 655 189 671 149 q 650 214 650 201 m 650 540 q 690 600 650 583 q 716 605 704 605 q 776 566 760 605 q 781 540 781 553 q 741 480 781 496 q 716 475 730 475 q 655 514 671 475 q 650 540 650 526 m 534 656 q 574 716 534 700 q 600 722 586 722 q 659 681 643 722 q 665 656 665 670 q 625 595 665 612 q 600 590 612 590 q 540 631 556 590 q 534 656 534 644 m 694 377 q 734 437 694 420 q 760 442 747 442 q 819 403 803 442 q 825 377 825 389 q 785 317 825 334 q 760 312 772 312 q 700 351 716 312 q 694 377 694 365 m 372 54 q 411 114 372 98 q 437 119 425 119 q 496 80 480 119 q 502 54 502 66 q 463 -5 502 11 q 437 -11 449 -11 q 377 28 393 -11 q 372 54 372 42 m 49 377 q 88 437 49 420 q 114 442 102 442 q 174 403 157 442 q 179 377 179 389 q 140 317 179 334 q 114 312 126 312 q 54 351 71 312 q 49 377 49 365 m 372 700 q 411 760 372 743 q 437 765 425 765 q 496 726 480 765 q 502 700 502 712 q 463 640 502 656 q 437 635 449 635 q 377 674 393 635 q 372 700 372 688 z "},"e":{"ha":644,"x_min":52,"x_max":593,"o":"m 52 205 l 52 549 q 113 678 54 616 q 286 751 184 750 l 286 616 q 206 568 233 616 q 197 538 197 552 l 197 457 l 454 457 l 454 537 q 392 612 454 594 q 357 617 374 617 l 357 751 q 528 685 453 751 q 591 551 590 625 l 591 317 l 197 317 l 197 205 q 236 146 197 170 q 289 133 260 133 l 289 0 q 90 102 163 0 q 52 205 52 157 m 357 0 l 357 134 q 465 201 435 134 q 472 218 469 210 l 593 175 q 483 33 568 83 q 357 0 425 0 z "},"é":{"ha":644,"x_min":52,"x_max":593,"o":"m 273 833 l 323 1039 l 461 1039 l 372 833 l 273 833 m 52 205 l 52 549 q 113 678 54 616 q 286 751 184 750 l 286 616 q 206 568 233 616 q 197 538 197 552 l 197 457 l 454 457 l 454 537 q 392 612 454 594 q 357 617 374 617 l 357 751 q 528 685 453 751 q 591 551 590 625 l 591 317 l 197 317 l 197 205 q 236 146 197 170 q 289 133 260 133 l 289 0 q 90 102 163 0 q 52 205 52 157 m 357 0 l 357 134 q 465 201 435 134 q 472 218 469 210 l 593 175 q 483 33 568 83 q 357 0 425 0 z "},"ě":{"ha":644,"x_min":52,"x_max":593,"o":"m 180 1039 l 273 1039 l 320 940 l 369 1039 l 463 1039 l 358 833 l 282 833 l 180 1039 m 52 205 l 52 549 q 113 678 54 616 q 286 751 184 750 l 286 616 q 206 568 233 616 q 197 538 197 552 l 197 457 l 454 457 l 454 537 q 392 612 454 594 q 357 617 374 617 l 357 751 q 528 685 453 751 q 591 551 590 625 l 591 317 l 197 317 l 197 205 q 236 146 197 170 q 289 133 260 133 l 289 0 q 90 102 163 0 q 52 205 52 157 m 357 0 l 357 134 q 465 201 435 134 q 472 218 469 210 l 593 175 q 483 33 568 83 q 357 0 425 0 z "},"ê":{"ha":644,"x_min":52,"x_max":593,"o":"m 180 833 l 282 1039 l 358 1039 l 463 833 l 369 833 l 320 932 l 273 833 l 180 833 m 52 205 l 52 549 q 113 678 54 616 q 286 751 184 750 l 286 616 q 206 568 233 616 q 197 538 197 552 l 197 457 l 454 457 l 454 537 q 392 612 454 594 q 357 617 374 617 l 357 751 q 528 685 453 751 q 591 551 590 625 l 591 317 l 197 317 l 197 205 q 236 146 197 170 q 289 133 260 133 l 289 0 q 90 102 163 0 q 52 205 52 157 m 357 0 l 357 134 q 465 201 435 134 q 472 218 469 210 l 593 175 q 483 33 568 83 q 357 0 425 0 z "},"ë":{"ha":644,"x_min":52,"x_max":593,"o":"m 137 914 q 183 989 137 966 q 220 998 201 998 q 294 949 273 998 q 302 914 302 932 q 256 840 302 861 q 220 831 239 831 q 145 879 167 831 q 137 914 137 897 m 340 914 q 387 989 340 966 q 423 998 404 998 q 498 949 476 998 q 506 914 506 932 q 460 840 506 861 q 423 831 442 831 q 349 879 370 831 q 340 914 340 897 m 52 205 l 52 549 q 113 678 54 616 q 286 751 184 750 l 286 616 q 206 568 233 616 q 197 538 197 552 l 197 457 l 454 457 l 454 537 q 392 612 454 594 q 357 617 374 617 l 357 751 q 528 685 453 751 q 591 551 590 625 l 591 317 l 197 317 l 197 205 q 236 146 197 170 q 289 133 260 133 l 289 0 q 90 102 163 0 q 52 205 52 157 m 357 0 l 357 134 q 465 201 435 134 q 472 218 469 210 l 593 175 q 483 33 568 83 q 357 0 425 0 z "},"ė":{"ha":644,"x_min":52,"x_max":593,"o":"m 237 917 q 283 994 237 971 q 321 1002 302 1002 q 397 955 374 1002 q 406 917 406 936 q 358 841 406 863 q 321 833 340 833 q 245 880 267 833 q 237 917 237 898 m 52 205 l 52 549 q 113 678 54 616 q 286 751 184 750 l 286 616 q 206 568 233 616 q 197 538 197 552 l 197 457 l 454 457 l 454 537 q 392 612 454 594 q 357 617 374 617 l 357 751 q 528 685 453 751 q 591 551 590 625 l 591 317 l 197 317 l 197 205 q 236 146 197 170 q 289 133 260 133 l 289 0 q 90 102 163 0 q 52 205 52 157 m 357 0 l 357 134 q 465 201 435 134 q 472 218 469 210 l 593 175 q 483 33 568 83 q 357 0 425 0 z "},"è":{"ha":644,"x_min":52,"x_max":593,"o":"m 182 1039 l 320 1039 l 370 833 l 271 833 l 182 1039 m 52 205 l 52 549 q 113 678 54 616 q 286 751 184 750 l 286 616 q 206 568 233 616 q 197 538 197 552 l 197 457 l 454 457 l 454 537 q 392 612 454 594 q 357 617 374 617 l 357 751 q 528 685 453 751 q 591 551 590 625 l 591 317 l 197 317 l 197 205 q 236 146 197 170 q 289 133 260 133 l 289 0 q 90 102 163 0 q 52 205 52 157 m 357 0 l 357 134 q 465 201 435 134 q 472 218 469 210 l 593 175 q 483 33 568 83 q 357 0 425 0 z "},"…":{"ha":846,"x_min":49,"x_max":798,"o":"m 49 54 q 94 127 49 104 q 132 137 113 137 q 203 91 182 137 q 213 54 213 73 q 167 -20 213 1 q 132 -28 149 -28 q 57 19 79 -28 q 49 54 49 37 m 342 54 q 387 127 342 104 q 423 137 404 137 q 496 91 473 137 q 506 54 506 73 q 458 -20 506 1 q 423 -28 441 -28 q 351 16 373 -28 q 342 54 342 35 m 633 54 q 678 127 633 104 q 715 137 696 137 q 788 91 765 137 q 798 54 798 73 q 750 -20 798 1 q 715 -28 732 -28 q 643 16 665 -28 q 633 54 633 35 z "},"ē":{"ha":644,"x_min":52,"x_max":593,"o":"m 107 833 l 107 922 l 536 922 l 536 833 l 107 833 m 52 205 l 52 549 q 113 678 54 616 q 286 751 184 750 l 286 616 q 206 568 233 616 q 197 538 197 552 l 197 457 l 454 457 l 454 537 q 392 612 454 594 q 357 617 374 617 l 357 751 q 528 685 453 751 q 591 551 590 625 l 591 317 l 197 317 l 197 205 q 236 146 197 170 q 289 133 260 133 l 289 0 q 90 102 163 0 q 52 205 52 157 m 357 0 l 357 134 q 465 201 435 134 q 472 218 469 210 l 593 175 q 483 33 568 83 q 357 0 425 0 z "},"—":{"ha":1229,"x_min":35,"x_max":1194,"o":"m 35 330 l 35 467 l 1194 467 l 1194 330 l 35 330 z "},"–":{"ha":722,"x_min":35,"x_max":686,"o":"m 35 330 l 35 467 l 686 467 l 686 330 l 35 330 z "},"ę":{"ha":644,"x_min":52,"x_max":593,"o":"m 491 -259 l 491 -157 q 384 -91 404 -157 q 378 -54 378 -73 l 274 -54 q 357 -222 274 -167 q 491 -259 411 -259 m 52 205 l 52 549 q 113 678 54 616 q 286 751 184 750 l 286 616 q 206 568 233 616 q 197 538 197 552 l 197 457 l 454 457 l 454 537 q 392 612 454 594 q 357 617 374 617 l 357 751 q 528 685 453 751 q 591 551 590 625 l 591 317 l 197 317 l 197 205 q 236 146 197 170 q 289 133 260 133 l 289 0 q 90 102 163 0 q 52 205 52 157 m 357 0 l 357 134 q 465 201 435 134 q 472 218 469 210 l 593 175 q 483 33 568 83 q 357 0 425 0 z "},"=":{"ha":567,"x_min":68,"x_max":499,"o":"m 68 212 l 68 350 l 499 350 l 499 212 l 68 212 m 68 441 l 68 579 l 499 579 l 499 441 l 68 441 z "},"℮":{"ha":720,"x_min":41,"x_max":661,"o":"m 313 -3 q 107 92 190 -3 q 41 271 41 170 l 41 682 q 137 890 41 807 q 313 956 214 956 l 313 807 q 206 727 237 802 q 191 646 191 692 l 191 522 l 510 522 l 510 646 q 431 796 510 761 q 388 807 410 806 l 388 956 q 593 863 510 956 q 661 682 661 783 l 661 373 l 191 373 l 191 309 q 273 157 191 190 q 313 148 293 149 l 313 -3 m 388 -3 l 388 148 q 491 208 454 151 q 510 256 506 229 l 659 218 q 543 43 646 109 q 388 -3 471 -3 z "},"ð":{"ha":570,"x_min":38,"x_max":544,"o":"m 38 191 l 38 510 q 95 631 38 572 q 260 700 161 700 l 260 571 q 174 515 193 571 q 170 492 170 503 l 170 209 q 214 138 170 160 q 260 127 236 127 l 260 -1 q 69 99 136 -1 q 38 191 38 148 m 260 892 l 260 968 q 450 865 382 945 l 522 888 l 544 818 l 492 802 q 532 597 532 718 l 532 191 q 476 68 532 127 q 316 -1 412 0 l 316 127 q 399 182 380 127 q 403 206 403 195 l 403 496 q 353 566 403 548 q 316 571 335 571 l 316 700 q 399 678 365 700 q 382 768 396 732 l 302 745 l 281 814 l 350 836 q 260 892 320 867 z "},"!":{"ha":288,"x_min":61,"x_max":227,"o":"m 61 60 q 107 134 61 111 q 144 144 125 144 q 218 98 195 144 q 227 60 227 79 q 179 -14 227 8 q 144 -22 161 -22 q 69 24 91 -22 q 61 60 61 42 m 75 225 l 75 949 l 214 949 l 214 225 l 75 225 z "},"¡":{"ha":290,"x_min":28,"x_max":205,"o":"m 28 669 q 76 746 28 722 q 117 757 96 757 q 195 708 171 757 q 205 669 205 689 q 159 593 205 617 q 117 582 138 582 q 39 628 65 582 q 28 669 28 648 m 45 -228 l 45 522 l 190 522 l 190 -228 l 45 -228 z "},"f":{"ha":404,"x_min":26,"x_max":397,"o":"m 26 547 l 26 688 l 118 688 l 118 754 q 168 886 118 822 q 328 964 231 963 l 397 964 l 365 825 l 328 825 q 263 754 270 812 l 263 688 l 358 688 l 358 547 l 263 547 l 263 0 l 118 0 l 118 547 l 26 547 z "},"ﬁ":{"ha":670,"x_min":52,"x_max":578,"o":"m 52 557 l 137 557 l 137 0 l 270 0 l 270 557 l 431 557 l 431 0 l 564 0 l 564 684 l 270 684 l 270 749 q 324 817 270 808 q 330 817 327 817 l 365 817 l 395 944 l 331 944 q 161 837 217 943 q 137 749 137 789 l 137 685 l 52 685 l 52 557 m 415 836 q 458 765 415 787 q 496 755 477 755 q 568 799 545 755 q 578 836 578 817 q 534 907 578 884 q 496 917 515 917 q 425 873 448 917 q 415 836 415 854 z "},"ﬂ":{"ha":589,"x_min":52,"x_max":571,"o":"m 52 557 l 137 557 l 137 0 l 270 0 l 270 557 l 358 557 l 358 685 l 270 684 l 270 749 q 294 803 270 783 q 332 817 311 815 l 434 817 l 434 0 l 571 0 l 571 944 l 331 944 q 161 837 217 943 q 137 749 137 789 l 137 685 l 52 685 l 52 557 z "},"ƒ":{"ha":518,"x_min":35,"x_max":483,"o":"m 35 -228 l 65 -111 l 130 -111 q 190 -62 182 -111 q 191 -52 191 -56 l 191 557 l 106 557 l 106 684 l 191 684 l 191 742 q 247 875 191 811 q 400 944 309 943 l 483 944 l 453 817 l 411 817 q 326 755 338 815 q 324 739 324 747 l 324 682 l 414 684 l 414 557 l 324 557 l 324 -41 q 241 -201 324 -152 q 127 -228 194 -228 l 35 -228 z "},"⁄":{"ha":723,"x_min":24,"x_max":699,"o":"m 24 -1 l 610 951 l 699 951 l 119 -1 l 24 -1 z "},"g":{"ha":609,"x_min":31,"x_max":559,"o":"m 31 -254 l 65 -121 l 327 -121 q 414 -68 391 -118 q 419 -49 419 -57 l 419 33 q 330 7 365 8 l 330 141 q 412 187 389 141 q 419 213 419 201 l 419 552 q 377 612 419 589 q 330 624 354 624 l 330 758 q 419 732 377 758 l 419 758 l 559 758 l 559 -49 q 506 -171 559 -107 q 336 -254 437 -252 l 31 -254 m 45 210 l 45 557 q 102 684 46 621 q 271 758 170 757 l 271 624 q 189 575 213 624 q 182 553 182 563 l 182 212 q 221 155 182 176 q 271 142 244 142 l 271 7 q 77 114 145 8 q 45 210 45 165 z "},"ğ":{"ha":609,"x_min":31,"x_max":559,"o":"m 178 958 l 252 958 q 282 916 252 925 q 296 914 290 914 q 338 944 328 914 q 339 958 339 952 l 414 958 q 359 860 414 895 q 296 841 330 841 q 194 899 229 841 q 178 958 178 928 m 31 -254 l 65 -121 l 327 -121 q 414 -68 391 -118 q 419 -49 419 -57 l 419 33 q 330 7 365 8 l 330 141 q 412 187 389 141 q 419 213 419 201 l 419 552 q 377 612 419 589 q 330 624 354 624 l 330 758 q 419 732 377 758 l 419 758 l 559 758 l 559 -49 q 506 -171 559 -107 q 336 -254 437 -252 l 31 -254 m 45 210 l 45 557 q 102 684 46 621 q 271 758 170 757 l 271 624 q 189 575 213 624 q 182 553 182 563 l 182 212 q 221 155 182 176 q 271 142 244 142 l 271 7 q 77 114 145 8 q 45 210 45 165 z "},"ß":{"ha":708,"x_min":35,"x_max":673,"o":"m 35 0 l 35 620 q 52 791 37 739 q 307 956 102 955 q 549 745 530 956 q 551 703 551 724 l 551 549 l 469 551 q 415 502 423 545 q 414 494 414 496 q 481 425 414 454 q 530 406 503 415 q 673 214 671 355 q 570 31 673 88 q 444 0 513 0 l 270 0 l 270 119 l 433 119 q 537 171 511 122 q 545 208 545 189 q 499 283 545 258 q 458 304 487 290 q 418 323 431 316 q 309 411 335 363 q 288 503 288 450 q 395 652 288 610 q 427 663 411 659 l 427 680 q 345 822 427 803 q 305 826 327 826 q 175 675 176 823 l 175 0 l 35 0 z "},"`":{"ha":395,"x_min":56,"x_max":244,"o":"m 56 1027 l 194 1027 l 244 821 l 145 821 l 56 1027 z "},">":{"ha":570,"x_min":45,"x_max":525,"o":"m 45 107 l 45 245 l 335 396 l 45 537 l 45 678 l 525 431 l 525 357 l 45 107 z "},"≥":{"ha":620,"x_min":39,"x_max":579,"o":"m 41 205 l 41 343 l 372 488 l 41 632 l 41 769 l 579 522 l 579 454 l 41 205 m 39 20 l 39 138 l 579 138 l 579 20 l 39 20 z "},"«":{"ha":627,"x_min":30,"x_max":602,"o":"m 30 359 l 30 427 l 316 639 l 316 498 l 170 396 l 316 285 l 316 146 l 30 359 m 316 359 l 316 427 l 602 639 l 602 498 l 456 396 l 602 285 l 602 146 l 316 359 z "},"»":{"ha":620,"x_min":20,"x_max":593,"o":"m 20 155 l 20 288 l 175 396 l 20 494 l 20 631 l 307 431 l 307 355 l 20 155 m 307 155 l 307 288 l 461 396 l 307 494 l 307 631 l 593 431 l 593 355 l 307 155 z "},"‹":{"ha":458,"x_min":56,"x_max":401,"o":"m 56 396 l 233 678 l 401 678 l 224 396 l 401 107 l 233 107 l 56 396 z "},"›":{"ha":458,"x_min":56,"x_max":403,"o":"m 56 107 l 233 396 l 56 678 l 225 678 l 403 396 l 225 107 l 56 107 z "},"h":{"ha":631,"x_min":56,"x_max":586,"o":"m 56 -7 l 56 964 l 191 964 l 191 705 q 293 734 237 734 l 293 600 q 203 551 237 600 q 193 521 193 534 l 193 -7 l 56 -7 m 358 600 l 358 734 q 552 642 487 734 q 586 534 586 591 l 586 -7 l 449 -7 l 449 521 q 412 585 449 562 q 358 600 388 600 z "},"˝":{"ha":446,"x_min":68,"x_max":445,"o":"m 256 821 l 307 1027 l 445 1027 l 355 821 l 256 821 m 68 821 l 118 1027 l 256 1027 l 167 821 l 68 821 z "},"-":{"ha":556,"x_min":64,"x_max":492,"o":"m 64 330 l 64 467 l 492 467 l 492 330 l 64 330 z "},"i":{"ha":290,"x_min":65,"x_max":227,"o":"m 65 856 q 110 928 65 906 q 145 936 127 936 q 218 891 197 936 q 227 856 227 873 q 180 785 227 807 q 145 777 163 777 q 73 821 96 777 q 65 856 65 837 m 75 0 l 75 723 l 220 723 l 220 0 l 75 0 z "},"í":{"ha":236,"x_min":52,"x_max":258,"o":"m 69 833 l 119 1039 l 258 1039 l 168 833 l 69 833 m 52 0 l 52 700 l 184 700 l 184 0 l 52 0 z "},"î":{"ha":236,"x_min":-23,"x_max":259,"o":"m -23 833 l 79 1039 l 155 1039 l 259 833 l 165 833 l 117 932 l 69 833 l -23 833 m 52 0 l 52 700 l 184 700 l 184 0 l 52 0 z "},"ï":{"ha":236,"x_min":-66,"x_max":302,"o":"m -66 914 q -20 989 -66 966 q 16 998 -3 998 q 91 949 69 998 q 99 914 99 932 q 53 840 99 861 q 16 831 35 831 q -58 879 -37 831 q -66 914 -66 897 m 137 914 q 183 989 137 966 q 220 998 201 998 q 294 949 273 998 q 302 914 302 932 q 256 840 302 861 q 220 831 239 831 q 145 879 167 831 q 137 914 137 897 m 52 0 l 52 700 l 184 700 l 184 0 l 52 0 z "},"ì":{"ha":236,"x_min":-22,"x_max":184,"o":"m -22 1039 l 117 1039 l 167 833 l 68 833 l -22 1039 m 52 0 l 52 700 l 184 700 l 184 0 l 52 0 z "},"ī":{"ha":236,"x_min":-96,"x_max":332,"o":"m -96 833 l -96 922 l 332 922 l 332 833 l -96 833 m 52 0 l 52 700 l 184 700 l 184 0 l 52 0 z "},"∞":{"ha":1082,"x_min":41,"x_max":1043,"o":"m 319 0 l 319 129 q 385 163 368 130 l 473 354 l 387 538 q 319 572 369 571 l 319 701 q 484 627 426 701 q 502 598 495 613 l 545 502 l 587 597 q 712 693 623 670 q 770 700 741 700 l 770 572 q 703 538 720 571 l 616 354 l 704 164 q 770 129 723 130 l 770 0 q 598 92 655 0 q 593 103 595 99 l 545 209 l 496 102 q 342 1 448 11 q 319 0 331 0 m 263 0 q 72 100 138 0 q 41 193 41 149 l 41 511 q 98 632 41 574 q 263 701 164 701 l 263 572 q 176 517 195 572 q 172 494 172 505 l 172 210 q 218 138 172 160 q 263 129 239 129 l 263 0 m 826 -1 l 826 127 q 909 179 886 127 q 916 208 916 194 l 916 492 q 864 567 916 548 q 826 572 846 572 l 826 700 q 1010 602 947 700 q 1043 510 1043 553 l 1043 191 q 989 69 1043 129 q 826 -1 924 0 z "},"∫":{"ha":441,"x_min":30,"x_max":411,"o":"m 30 -191 q 98 -170 57 -198 q 172 -4 171 -119 l 172 848 q 290 1070 172 1001 q 411 1101 353 1107 l 411 1028 q 340 1009 381 1036 q 270 848 271 962 l 270 -4 q 155 -231 270 -157 q 30 -264 91 -270 l 30 -191 z "},"į":{"ha":290,"x_min":65,"x_max":312,"o":"m 312 -258 q 111 -138 160 -258 q 95 -53 95 -98 l 199 -53 q 281 -153 199 -137 q 312 -156 297 -156 l 312 -258 m 65 856 q 110 928 65 906 q 145 936 127 936 q 218 891 197 936 q 227 856 227 873 q 180 785 227 807 q 145 777 163 777 q 73 821 96 777 q 65 856 65 837 m 75 0 l 75 723 l 220 723 l 220 0 l 75 0 z "},"j":{"ha":301,"x_min":-57,"x_max":237,"o":"m 85 723 l 231 723 l 231 -54 q 176 -183 231 -118 q 9 -263 110 -262 l -57 -263 l -24 -125 l 8 -125 q 80 -75 58 -122 q 85 -54 85 -64 l 85 723 m 77 856 q 122 928 77 906 q 157 936 140 936 q 229 891 206 936 q 237 856 237 873 q 193 785 237 807 q 157 777 176 777 q 85 821 109 777 q 77 856 77 837 z "},"k":{"ha":662,"x_min":56,"x_max":635,"o":"m 56 0 l 56 964 l 205 964 l 205 0 l 56 0 m 241 378 l 468 751 l 633 751 l 403 378 l 635 0 l 471 0 l 241 378 z "},"l":{"ha":269,"x_min":57,"x_max":212,"o":"m 57 0 l 57 964 l 212 964 l 212 0 l 57 0 z "},"ĺ":{"ha":269,"x_min":57,"x_max":273,"o":"m 84 1088 l 134 1294 l 273 1294 l 183 1088 l 84 1088 m 57 0 l 57 964 l 212 964 l 212 0 l 57 0 z "},"ľ":{"ha":441,"x_min":46,"x_max":448,"o":"m 260 799 l 311 1005 l 448 1005 l 397 799 l 260 799 m 46 0 l 46 964 l 201 964 l 201 0 l 46 0 z "},"<":{"ha":570,"x_min":45,"x_max":525,"o":"m 45 357 l 45 431 l 525 678 l 525 537 l 235 396 l 525 245 l 525 107 l 45 357 z "},"≤":{"ha":620,"x_min":35,"x_max":579,"o":"m 574 205 l 35 453 l 35 522 l 574 769 l 574 631 l 241 487 l 574 342 l 574 205 m 39 20 l 39 138 l 579 138 l 579 20 l 39 20 z "},"¬":{"ha":718,"x_min":54,"x_max":650,"o":"m 54 460 l 54 586 l 650 586 l 650 282 l 519 282 l 519 460 l 54 460 z "},"◊":{"ha":567,"x_min":-4,"x_max":567,"o":"m -4 477 l 245 958 l 319 958 l 567 477 l 317 -3 l 243 -3 l -4 477 m 137 477 l 278 187 l 429 477 l 279 768 l 137 477 z "},"ł":{"ha":575,"x_min":80,"x_max":522,"o":"m 228 -8 l 382 -8 l 382 487 l 522 595 l 442 697 l 382 651 l 382 955 l 228 955 l 228 530 l 80 415 l 160 313 l 228 366 l 228 -8 z "},"m":{"ha":1009,"x_min":52,"x_max":958,"o":"m 52 0 l 52 548 q 110 682 52 618 q 282 754 178 754 l 282 610 q 201 551 214 610 q 198 529 198 540 l 198 0 l 52 0 m 345 610 l 345 754 q 505 692 442 753 q 665 754 568 754 l 665 610 q 581 551 594 610 q 578 529 578 540 l 578 0 l 431 0 l 431 529 q 376 606 431 590 q 345 610 361 610 m 726 610 l 726 754 q 924 648 854 754 q 958 548 958 595 l 958 0 l 811 0 l 811 529 q 743 609 811 600 q 726 610 735 610 z "},"¯":{"ha":692,"x_min":45,"x_max":655,"o":"m 45 1084 l 655 1084 l 655 966 l 45 966 l 45 1084 z "},"−":{"ha":564,"x_min":64,"x_max":492,"o":"m 64 330 l 64 467 l 492 467 l 492 330 l 64 330 z "},"×":{"ha":865,"x_min":141,"x_max":791,"o":"m 239 240 l 141 338 l 369 566 l 141 795 l 237 892 l 465 665 l 693 891 l 791 793 l 563 567 l 791 339 l 693 241 l 465 468 l 239 240 z "},"n":{"ha":646,"x_min":52,"x_max":594,"o":"m 52 0 l 52 548 q 111 677 52 613 q 293 754 184 753 l 293 610 q 206 562 231 610 q 198 530 198 545 l 198 0 l 52 0 m 353 610 l 353 754 q 555 650 481 754 q 594 548 594 595 l 594 0 l 448 0 l 448 530 q 408 595 448 571 q 353 610 384 610 z "},"ń":{"ha":646,"x_min":52,"x_max":594,"o":"m 274 837 l 324 1043 l 463 1043 l 373 837 l 274 837 m 52 0 l 52 548 q 111 677 52 613 q 293 754 184 753 l 293 610 q 206 562 231 610 q 198 530 198 545 l 198 0 l 52 0 m 353 610 l 353 754 q 555 650 481 754 q 594 548 594 595 l 594 0 l 448 0 l 448 530 q 408 595 448 571 q 353 610 384 610 z "},"ň":{"ha":646,"x_min":52,"x_max":594,"o":"m 182 1043 l 274 1043 l 321 944 l 370 1043 l 464 1043 l 359 837 l 283 837 l 182 1043 m 52 0 l 52 548 q 111 677 52 613 q 293 754 184 753 l 293 610 q 206 562 231 610 q 198 530 198 545 l 198 0 l 52 0 m 353 610 l 353 754 q 555 650 481 754 q 594 548 594 595 l 594 0 l 448 0 l 448 530 q 408 595 448 571 q 353 610 384 610 z "},"≠":{"ha":567,"x_min":68,"x_max":499,"o":"m 90 -102 l 228 -102 l 301 212 l 499 212 l 499 350 l 334 350 l 355 441 l 499 441 l 499 579 l 388 579 l 464 901 l 327 901 l 251 579 l 68 579 l 68 441 l 218 441 l 197 350 l 68 350 l 68 212 l 164 212 l 90 -102 z "},"ñ":{"ha":646,"x_min":52,"x_max":594,"o":"m 132 860 l 132 974 q 227 1004 184 1004 q 323 972 260 1004 q 404 948 370 948 q 513 986 452 949 l 513 873 q 399 836 450 836 q 298 867 362 836 q 221 890 252 890 q 132 860 179 888 m 52 0 l 52 548 q 111 677 52 613 q 293 754 184 753 l 293 610 q 206 562 231 610 q 198 530 198 545 l 198 0 l 52 0 m 353 610 l 353 754 q 555 650 481 754 q 594 548 594 595 l 594 0 l 448 0 l 448 530 q 408 595 448 571 q 353 610 384 610 z "},"#":{"ha":1020,"x_min":42,"x_max":967,"o":"m 42 255 l 69 387 l 271 387 l 302 564 l 88 564 l 111 696 l 326 696 l 365 925 l 498 925 l 457 694 l 632 694 l 671 925 l 804 925 l 764 694 l 967 694 l 945 563 l 741 564 l 709 385 l 920 385 l 899 254 l 686 255 l 647 30 l 515 30 l 555 255 l 380 255 l 340 30 l 208 30 l 248 255 l 42 255 m 403 387 l 578 385 l 609 564 l 434 564 l 403 387 z "},"o":{"ha":632,"x_min":52,"x_max":581,"o":"m 52 205 l 52 548 q 111 677 52 614 q 289 751 182 751 l 289 612 q 198 553 218 612 q 194 529 194 541 l 194 224 q 241 149 194 172 q 290 138 263 138 l 290 -1 q 87 104 159 -1 q 52 205 52 157 m 350 -1 l 350 138 q 435 194 415 138 q 441 221 441 209 l 441 529 q 388 605 441 586 q 349 612 370 612 l 349 751 q 545 648 476 751 q 581 548 581 595 l 581 205 q 524 75 581 138 q 350 -1 454 0 z "},"ó":{"ha":632,"x_min":52,"x_max":581,"o":"m 270 833 l 320 1039 l 458 1039 l 369 833 l 270 833 m 52 205 l 52 548 q 111 677 52 614 q 289 751 182 751 l 289 612 q 198 553 218 612 q 194 529 194 541 l 194 224 q 241 149 194 172 q 290 138 263 138 l 290 -1 q 87 104 159 -1 q 52 205 52 157 m 350 -1 l 350 138 q 435 194 415 138 q 441 221 441 209 l 441 529 q 388 605 441 586 q 349 612 370 612 l 349 751 q 545 648 476 751 q 581 548 581 595 l 581 205 q 524 75 581 138 q 350 -1 454 0 z "},"ô":{"ha":632,"x_min":52,"x_max":581,"o":"m 179 833 l 281 1039 l 357 1039 l 461 833 l 368 833 l 319 932 l 271 833 l 179 833 m 52 205 l 52 548 q 111 677 52 614 q 289 751 182 751 l 289 612 q 198 553 218 612 q 194 529 194 541 l 194 224 q 241 149 194 172 q 290 138 263 138 l 290 -1 q 87 104 159 -1 q 52 205 52 157 m 350 -1 l 350 138 q 435 194 415 138 q 441 221 441 209 l 441 529 q 388 605 441 586 q 349 612 370 612 l 349 751 q 545 648 476 751 q 581 548 581 595 l 581 205 q 524 75 581 138 q 350 -1 454 0 z "},"ö":{"ha":632,"x_min":52,"x_max":581,"o":"m 134 914 q 180 989 134 966 q 217 998 198 998 q 292 949 270 998 q 300 914 300 932 q 254 840 300 861 q 217 831 236 831 q 142 879 164 831 q 134 914 134 897 m 338 914 q 384 989 338 966 q 420 998 401 998 q 495 949 473 998 q 503 914 503 932 q 457 840 503 861 q 420 831 439 831 q 346 879 368 831 q 338 914 338 897 m 52 205 l 52 548 q 111 677 52 614 q 289 751 182 751 l 289 612 q 198 553 218 612 q 194 529 194 541 l 194 224 q 241 149 194 172 q 290 138 263 138 l 290 -1 q 87 104 159 -1 q 52 205 52 157 m 350 -1 l 350 138 q 435 194 415 138 q 441 221 441 209 l 441 529 q 388 605 441 586 q 349 612 370 612 l 349 751 q 545 648 476 751 q 581 548 581 595 l 581 205 q 524 75 581 138 q 350 -1 454 0 z "},"œ":{"ha":944,"x_min":37,"x_max":905,"o":"m 469 64 q 652 0 541 0 q 887 115 825 0 q 905 163 898 138 l 795 203 q 650 118 772 119 q 543 164 576 118 q 528 209 528 186 l 528 297 l 903 297 l 903 513 q 818 655 903 595 q 685 700 753 700 l 685 575 q 765 533 736 575 q 779 491 779 513 l 779 425 l 528 425 l 528 491 q 572 562 529 537 q 620 574 595 574 l 620 700 q 468 637 528 699 q 315 700 407 700 l 315 571 q 401 513 387 571 q 404 491 404 502 l 404 205 q 361 134 404 157 q 315 123 340 123 l 315 -1 q 469 64 410 0 m 37 191 q 90 73 37 133 q 259 -1 156 0 l 259 123 q 174 178 195 123 q 168 208 168 193 l 168 492 q 221 566 168 548 q 259 571 239 571 l 259 700 q 68 600 134 700 q 37 510 37 552 l 37 191 z "},"˛":{"ha":297,"x_min":-73,"x_max":144,"o":"m 144 -259 q -57 -140 -8 -259 q -73 -54 -73 -99 l 31 -54 q 113 -155 31 -138 q 144 -157 129 -157 l 144 -259 z "},"ò":{"ha":632,"x_min":52,"x_max":581,"o":"m 179 1039 l 317 1039 l 368 833 l 269 833 l 179 1039 m 52 205 l 52 548 q 111 677 52 614 q 289 751 182 751 l 289 612 q 198 553 218 612 q 194 529 194 541 l 194 224 q 241 149 194 172 q 290 138 263 138 l 290 -1 q 87 104 159 -1 q 52 205 52 157 m 350 -1 l 350 138 q 435 194 415 138 q 441 221 441 209 l 441 529 q 388 605 441 586 q 349 612 370 612 l 349 751 q 545 648 476 751 q 581 548 581 595 l 581 205 q 524 75 581 138 q 350 -1 454 0 z "},"ő":{"ha":632,"x_min":52,"x_max":581,"o":"m 376 833 l 426 1039 l 564 1039 l 475 833 l 376 833 m 187 833 l 237 1039 l 376 1039 l 286 833 l 187 833 m 52 205 l 52 548 q 111 677 52 614 q 289 751 182 751 l 289 612 q 198 553 218 612 q 194 529 194 541 l 194 224 q 241 149 194 172 q 290 138 263 138 l 290 -1 q 87 104 159 -1 q 52 205 52 157 m 350 -1 l 350 138 q 435 194 415 138 q 441 221 441 209 l 441 529 q 388 605 441 586 q 349 612 370 612 l 349 751 q 545 648 476 751 q 581 548 581 595 l 581 205 q 524 75 581 138 q 350 -1 454 0 z "},"ō":{"ha":632,"x_min":52,"x_max":581,"o":"m 106 833 l 106 922 l 534 922 l 534 833 l 106 833 m 52 205 l 52 548 q 111 677 52 614 q 289 751 182 751 l 289 612 q 198 553 218 612 q 194 529 194 541 l 194 224 q 241 149 194 172 q 290 138 263 138 l 290 -1 q 87 104 159 -1 q 52 205 52 157 m 350 -1 l 350 138 q 435 194 415 138 q 441 221 441 209 l 441 529 q 388 605 441 586 q 349 612 370 612 l 349 751 q 545 648 476 751 q 581 548 581 595 l 581 205 q 524 75 581 138 q 350 -1 454 0 z "},"½":{"ha":779,"x_min":0,"x_max":734,"o":"m 416 0 l 416 84 l 723 84 l 723 0 l 416 0 m 0 0 l 586 949 l 673 949 l 94 0 l 0 0 m 72 845 l 72 914 l 117 949 l 206 949 l 206 475 l 117 475 l 117 845 l 72 845 m 412 342 q 479 453 414 414 q 548 475 511 473 l 548 389 q 494 336 500 384 q 492 327 492 331 l 412 342 m 416 118 q 517 231 416 184 q 544 243 521 233 q 636 298 620 277 q 646 327 646 312 q 583 389 643 385 l 583 475 q 724 387 692 475 q 734 327 734 359 q 639 201 732 247 q 600 183 627 194 q 525 133 534 156 q 522 118 522 125 l 416 118 z "},"¼":{"ha":685,"x_min":0,"x_max":673,"o":"m 515 0 l 515 475 l 605 475 l 605 161 l 642 161 l 642 83 l 605 83 l 605 0 l 515 0 m 72 845 l 72 914 l 117 949 l 206 949 l 206 475 l 117 475 l 117 845 l 72 845 m 317 83 l 317 161 l 479 441 l 479 278 l 414 161 l 479 161 l 479 83 l 317 83 m 0 0 l 586 949 l 673 949 l 94 0 l 0 0 z "},"¹":{"ha":187,"x_min":14,"x_max":126,"o":"m 14 854 l 14 917 l 54 948 l 126 948 l 126 522 l 54 522 l 54 854 l 14 854 z "},"ª":{"ha":330,"x_min":22,"x_max":301,"o":"m 26 468 l 26 540 l 298 540 l 298 468 l 26 468 m 22 667 q 72 594 22 620 q 136 579 100 579 l 136 646 q 84 681 85 648 l 84 696 q 92 715 85 709 q 168 738 95 718 q 213 754 199 746 l 213 686 q 175 647 213 650 q 170 646 171 647 l 170 579 q 241 602 214 581 q 301 579 266 579 l 301 647 q 282 669 283 648 l 282 852 q 237 935 282 902 q 168 955 208 955 l 168 890 q 212 856 206 890 q 213 846 213 850 l 213 833 q 121 787 213 814 q 58 765 71 772 q 22 700 23 745 l 22 667 m 27 861 l 90 838 q 127 888 90 883 q 136 890 132 888 l 136 955 q 46 913 80 955 q 27 861 28 888 z "},"º":{"ha":312,"x_min":35,"x_max":277,"o":"m 35 510 l 35 586 l 277 586 l 277 510 l 35 510 m 37 712 l 37 865 q 75 935 37 905 q 142 956 104 956 l 142 894 q 102 863 107 894 q 100 857 100 860 l 100 720 q 132 684 100 690 q 144 682 138 682 l 144 620 q 46 680 75 620 q 37 712 37 697 m 171 620 l 171 682 q 210 712 205 682 q 212 719 212 716 l 212 857 q 170 894 203 890 l 170 956 q 264 899 236 956 q 274 865 274 880 l 274 712 q 236 642 274 673 q 171 620 208 620 z "},"ø":{"ha":644,"x_min":5,"x_max":671,"o":"m 5 106 l 92 184 q 91 203 91 189 l 91 510 q 146 631 91 572 q 313 700 214 700 l 313 571 q 227 515 245 571 q 222 492 222 503 l 222 304 l 452 515 q 369 571 433 570 l 369 700 q 549 605 488 699 l 609 659 l 671 590 l 583 510 q 583 502 583 509 q 585 492 585 494 l 585 191 q 529 68 585 127 q 369 -1 464 0 l 369 127 q 452 182 433 127 q 456 206 456 195 l 456 392 l 228 183 q 313 127 245 129 l 313 -1 q 129 92 190 0 l 68 37 l 5 106 z "},"õ":{"ha":632,"x_min":52,"x_max":581,"o":"m 129 856 l 129 970 q 224 1000 182 1000 q 320 968 258 1000 q 401 944 368 944 q 510 982 449 945 l 510 869 q 396 831 448 831 q 296 863 359 831 q 218 886 250 886 q 129 856 176 884 m 52 205 l 52 548 q 111 677 52 614 q 289 751 182 751 l 289 612 q 198 553 218 612 q 194 529 194 541 l 194 224 q 241 149 194 172 q 290 138 263 138 l 290 -1 q 87 104 159 -1 q 52 205 52 157 m 350 -1 l 350 138 q 435 194 415 138 q 441 221 441 209 l 441 529 q 388 605 441 586 q 349 612 370 612 l 349 751 q 545 648 476 751 q 581 548 581 595 l 581 205 q 524 75 581 138 q 350 -1 454 0 z "},"p":{"ha":637,"x_min":54,"x_max":581,"o":"m 274 0 l 274 140 l 350 140 q 434 190 414 140 q 438 208 438 199 l 438 544 q 407 593 438 571 q 346 612 381 612 l 271 612 l 271 751 l 346 751 q 545 647 475 751 q 581 547 581 594 l 581 205 q 524 76 581 140 q 350 0 454 1 l 274 0 m 54 -263 l 54 751 l 205 751 l 205 -263 l 54 -263 z "},"¶":{"ha":606,"x_min":47,"x_max":533,"o":"m 47 701 q 152 479 47 545 q 277 446 206 446 l 277 -7 l 369 -7 l 369 956 l 277 956 q 91 854 157 956 q 47 701 47 787 m 441 -7 l 533 -7 l 533 956 l 441 956 l 441 -7 z "},"(":{"ha":298,"x_min":54,"x_max":263,"o":"m 54 256 q 111 65 54 132 q 263 -38 160 8 l 263 56 q 178 180 195 98 q 170 269 170 220 l 170 707 q 235 873 170 823 q 263 892 247 883 l 262 985 q 106 883 148 939 q 54 692 54 815 l 54 256 z "},")":{"ha":301,"x_min":35,"x_max":247,"o":"m 35 -39 l 35 54 q 117 156 96 94 q 132 277 132 203 l 132 707 q 54 882 132 827 q 35 894 45 888 l 37 986 q 216 849 171 935 q 247 692 247 787 l 247 259 q 168 45 247 121 q 35 -39 118 -4 z "},"∂":{"ha":570,"x_min":38,"x_max":532,"o":"m 38 191 l 38 510 q 95 631 38 572 q 260 700 161 700 l 260 571 q 174 510 194 571 q 170 483 170 496 l 170 209 q 214 138 170 160 q 260 127 236 127 l 260 -1 q 69 99 136 -1 q 38 191 38 148 m 95 892 l 95 968 q 486 812 395 968 q 532 602 532 730 l 532 191 q 476 68 532 127 q 316 -1 412 0 l 316 127 q 397 184 378 127 q 403 212 403 198 l 403 487 q 350 566 403 548 q 316 571 334 571 l 316 700 q 399 678 365 700 q 252 867 399 814 q 95 892 183 892 z "},"%":{"ha":722,"x_min":46,"x_max":674,"o":"m 46 784 q 104 883 46 850 q 161 898 132 898 q 259 842 227 898 q 275 784 275 814 q 221 686 275 720 q 161 670 193 670 q 62 726 96 670 q 46 784 46 753 m 170 -27 l 407 975 l 544 975 l 308 -27 l 170 -27 m 446 161 q 503 262 446 228 q 560 277 530 277 q 659 218 627 277 q 674 161 674 191 q 618 64 674 96 q 560 47 591 47 q 461 104 495 47 q 446 161 446 132 z "},".":{"ha":264,"x_min":45,"x_max":220,"o":"m 45 81 q 92 160 45 136 q 132 170 111 170 q 210 121 186 170 q 220 81 220 102 q 171 3 220 27 q 132 -7 152 -7 q 56 39 80 -7 q 45 81 45 60 z "},"·":{"ha":301,"x_min":79,"x_max":254,"o":"m 79 477 q 126 556 79 532 q 165 566 145 566 q 244 517 220 566 q 254 477 254 498 q 205 399 254 423 q 165 389 186 389 q 90 435 114 389 q 79 477 79 456 z "},"‰":{"ha":1217,"x_min":23,"x_max":1194,"o":"m 164 477 l 164 563 q 110 708 110 576 l 110 730 q 164 867 111 856 l 164 952 q 39 841 72 949 q 23 715 23 788 q 130 483 23 515 q 164 477 146 477 m 203 477 q 324 575 288 477 q 345 715 345 632 q 235 948 345 917 q 203 952 218 952 l 203 867 q 258 730 258 854 l 258 708 q 203 563 256 575 l 203 477 m 662 0 l 662 85 q 608 231 608 99 l 608 252 q 662 389 609 378 l 662 475 q 537 363 570 472 q 521 237 521 311 q 628 5 521 38 q 662 0 644 0 m 701 0 q 822 98 785 0 q 842 237 842 155 q 732 471 842 439 q 701 475 716 475 l 701 389 q 755 252 755 377 l 755 231 q 701 85 754 98 l 701 0 m 1013 0 l 1013 85 q 958 231 958 99 l 958 252 q 1013 389 959 378 l 1013 475 q 884 357 917 472 q 871 237 871 305 q 981 4 871 35 q 1013 0 997 0 m 1051 0 q 1172 95 1135 0 q 1194 237 1194 152 q 1084 469 1194 437 q 1051 475 1067 475 l 1051 389 q 1107 252 1104 377 l 1107 231 q 1051 85 1105 98 l 1051 0 m 98 0 l 191 0 l 770 949 l 684 949 l 98 0 z "},"π":{"ha":680,"x_min":18,"x_max":662,"o":"m 18 563 l 18 703 l 662 703 l 662 563 l 570 563 l 570 193 q 643 118 581 122 l 643 -5 q 458 94 507 -5 q 439 180 439 133 l 439 563 l 244 563 l 244 -1 l 110 -1 l 110 563 l 18 563 z "},"+":{"ha":570,"x_min":30,"x_max":538,"o":"m 30 330 l 30 467 l 214 467 l 214 675 l 351 675 l 351 467 l 538 467 l 538 330 l 351 330 l 351 118 l 214 118 l 214 330 l 30 330 z "},"±":{"ha":582,"x_min":37,"x_max":553,"o":"m 37 90 l 37 227 l 547 227 l 547 90 l 37 90 m 45 548 l 45 685 l 229 685 l 229 894 l 366 894 l 366 685 l 553 685 l 553 548 l 366 548 l 366 336 l 229 336 l 229 548 l 45 548 z "},"∏":{"ha":694,"x_min":30,"x_max":665,"o":"m 30 803 l 30 947 l 665 947 l 665 803 l 600 803 l 600 -190 l 460 -190 l 460 803 l 235 803 l 235 -190 l 95 -190 l 95 803 l 30 803 z "},"q":{"ha":631,"x_min":53,"x_max":576,"o":"m 283 0 q 88 104 156 0 q 53 205 53 157 l 53 547 q 109 675 53 612 q 283 751 178 750 l 359 751 l 359 612 l 283 612 q 199 560 218 612 q 195 544 195 551 l 195 208 q 229 153 195 175 q 283 140 252 140 l 357 140 l 357 0 l 283 0 m 425 -263 l 425 751 l 576 751 l 576 -263 l 425 -263 z "},"?":{"ha":632,"x_min":45,"x_max":587,"o":"m 45 829 q 232 948 123 928 q 300 954 264 954 q 544 826 469 954 q 587 666 585 757 q 562 534 587 591 q 500 448 537 476 q 428 401 464 419 q 366 378 392 382 l 342 374 l 342 187 l 202 187 l 202 496 q 416 557 366 499 q 449 667 449 598 q 374 795 449 754 q 292 815 336 815 q 134 736 194 814 l 45 829 m 189 53 q 236 127 189 106 q 271 136 254 136 q 346 88 324 136 q 354 53 354 71 q 307 -22 354 0 q 271 -30 289 -30 q 197 18 218 -30 q 189 53 189 35 z "},"¿":{"ha":604,"x_min":28,"x_max":571,"o":"m 571 109 q 384 -11 492 9 q 316 -16 351 -16 q 72 111 146 -16 q 28 271 31 180 q 54 404 28 346 q 115 490 79 461 q 188 536 152 518 q 250 559 224 555 l 274 563 l 274 750 l 414 750 l 414 441 q 199 380 250 438 q 167 270 167 339 q 241 142 167 183 q 324 122 279 122 q 481 201 422 123 l 571 109 m 427 884 q 380 810 427 831 q 345 802 362 802 q 270 849 292 802 q 262 884 262 867 q 309 959 262 937 q 345 967 327 967 q 419 920 397 967 q 427 884 427 902 z "},"\"":{"ha":461,"x_min":57,"x_max":406,"o":"m 57 631 l 57 998 l 195 998 l 195 631 l 57 631 m 267 631 l 267 998 l 406 998 l 406 631 l 267 631 z "},"„":{"ha":435,"x_min":18,"x_max":410,"o":"m 222 -31 l 273 175 l 410 175 l 359 -31 l 222 -31 m 18 -31 l 68 175 l 205 175 l 155 -31 l 18 -31 z "},"“":{"ha":437,"x_min":45,"x_max":393,"o":"m 45 631 l 45 998 l 183 998 l 183 631 l 45 631 m 255 631 l 255 998 l 393 998 l 393 631 l 255 631 z "},"”":{"ha":437,"x_min":45,"x_max":393,"o":"m 45 631 l 45 998 l 183 998 l 183 631 l 45 631 m 255 631 l 255 998 l 393 998 l 393 631 l 255 631 z "},"‘":{"ha":228,"x_min":45,"x_max":183,"o":"m 45 631 l 45 998 l 183 998 l 183 631 l 45 631 z "},"’":{"ha":228,"x_min":45,"x_max":183,"o":"m 45 631 l 45 998 l 183 998 l 183 631 l 45 631 z "},"‚":{"ha":228,"x_min":45,"x_max":183,"o":"m 45 631 l 45 998 l 183 998 l 183 631 l 45 631 z "},"'":{"ha":251,"x_min":57,"x_max":195,"o":"m 57 631 l 57 998 l 195 998 l 195 631 l 57 631 z "},"r":{"ha":439,"x_min":57,"x_max":422,"o":"m 57 0 l 57 751 l 203 751 l 203 658 q 317 743 241 718 q 387 755 353 755 l 422 755 l 388 613 q 248 536 308 612 q 203 415 203 477 l 203 0 l 57 0 z "},"ŕ":{"ha":439,"x_min":57,"x_max":422,"o":"m 213 833 l 263 1039 l 401 1039 l 312 833 l 213 833 m 57 0 l 57 751 l 203 751 l 203 658 q 317 743 241 718 q 387 755 353 755 l 422 755 l 388 613 q 248 536 308 612 q 203 415 203 477 l 203 0 l 57 0 z "},"√":{"ha":836,"x_min":8,"x_max":822,"o":"m 8 696 l 270 793 l 488 254 l 670 1111 l 822 1111 l 589 -1 l 434 -1 l 178 628 l 47 582 l 8 696 z "},"ř":{"ha":439,"x_min":57,"x_max":422,"o":"m 99 1039 l 191 1039 l 239 940 l 288 1039 l 381 1039 l 277 833 l 201 833 l 99 1039 m 57 0 l 57 751 l 203 751 l 203 658 q 317 743 241 718 q 387 755 353 755 l 422 755 l 388 613 q 248 536 308 612 q 203 415 203 477 l 203 0 l 57 0 z "},"®":{"ha":540,"x_min":42,"x_max":498,"o":"m 256 696 l 256 738 l 267 738 q 308 772 307 739 q 263 808 305 807 l 256 808 l 256 852 q 350 787 342 852 q 351 773 351 780 q 324 718 350 734 q 351 667 349 700 l 355 585 l 315 585 l 309 652 q 275 694 308 690 q 256 696 267 696 m 258 486 q 94 570 161 488 q 42 713 42 635 q 146 910 42 844 q 260 947 202 945 l 260 898 q 127 829 180 897 q 90 715 90 779 q 163 570 91 624 q 256 536 206 538 l 258 486 m 282 486 l 282 536 q 416 610 365 540 q 450 715 450 659 q 373 867 450 812 q 282 898 330 897 l 282 947 q 437 873 370 944 q 498 716 498 807 q 406 530 498 600 q 282 486 349 490 m 190 585 l 190 850 l 236 850 l 236 585 l 190 585 z "},"˚":{"ha":331,"x_min":46,"x_max":285,"o":"m 46 713 q 103 815 46 779 q 165 833 133 833 q 267 776 231 833 q 285 713 285 746 q 228 612 285 648 q 165 594 198 594 q 64 651 100 594 q 46 713 46 681 m 122 713 q 152 671 122 681 q 165 670 160 670 q 208 700 198 670 q 209 713 209 708 q 179 755 209 746 q 165 757 171 757 q 123 727 133 757 q 122 713 122 719 z "},"s":{"ha":601,"x_min":27,"x_max":574,"o":"m 27 198 l 161 222 q 217 142 161 170 q 264 130 241 130 l 264 -7 q 57 95 121 -7 q 27 198 27 144 m 34 543 q 149 728 34 667 q 260 757 205 757 l 260 623 q 174 571 195 623 q 168 543 168 556 q 239 471 168 502 q 420 418 298 446 q 553 321 514 399 q 574 229 574 279 q 465 31 574 95 q 323 -7 403 -7 l 323 129 q 412 165 377 129 q 434 222 434 191 q 328 302 434 270 q 260 321 307 309 q 163 349 191 338 q 41 480 62 393 q 34 543 34 509 m 321 623 l 321 757 q 514 669 441 757 q 560 549 560 612 l 426 526 q 351 617 426 595 q 321 623 335 623 z "},"ś":{"ha":601,"x_min":27,"x_max":574,"o":"m 243 834 l 293 1040 l 431 1040 l 342 834 l 243 834 m 27 198 l 161 222 q 217 142 161 170 q 264 130 241 130 l 264 -7 q 57 95 121 -7 q 27 198 27 144 m 34 543 q 149 728 34 667 q 260 757 205 757 l 260 623 q 174 571 195 623 q 168 543 168 556 q 239 471 168 502 q 420 418 298 446 q 553 321 514 399 q 574 229 574 279 q 465 31 574 95 q 323 -7 403 -7 l 323 129 q 412 165 377 129 q 434 222 434 191 q 328 302 434 270 q 260 321 307 309 q 163 349 191 338 q 41 480 62 393 q 34 543 34 509 m 321 623 l 321 757 q 514 669 441 757 q 560 549 560 612 l 426 526 q 351 617 426 595 q 321 623 335 623 z "},"š":{"ha":601,"x_min":28,"x_max":575,"o":"m 152 1040 l 244 1040 l 292 941 l 340 1040 l 434 1040 l 330 834 l 254 834 l 152 1040 m 28 198 l 163 222 q 218 142 163 170 q 266 130 243 130 l 266 -7 q 58 95 122 -7 q 28 198 28 144 m 35 543 q 151 728 35 667 q 262 757 206 757 l 262 623 q 175 571 197 623 q 170 543 170 556 q 240 471 170 502 q 422 418 300 446 q 555 321 515 399 q 575 229 575 279 q 467 31 575 95 q 324 -7 404 -7 l 324 129 q 414 165 378 129 q 435 222 435 191 q 330 302 435 270 q 262 321 308 309 q 164 349 193 338 q 42 480 64 393 q 35 543 35 509 m 323 623 l 323 757 q 515 669 442 757 q 562 549 562 612 l 427 526 q 353 617 427 595 q 323 623 336 623 z "},"§":{"ha":818,"x_min":73,"x_max":745,"o":"m 73 477 q 172 678 75 605 q 157 776 157 716 q 288 1001 157 936 q 403 1029 343 1029 l 549 1029 l 549 888 l 422 888 q 301 810 319 887 q 298 783 298 796 q 373 688 300 724 l 373 521 q 324 537 345 529 q 264 570 281 557 q 225 481 227 538 q 340 361 225 404 q 373 350 355 355 l 373 193 q 245 239 270 227 q 98 369 133 298 q 73 477 73 416 m 269 -42 l 393 -42 q 511 24 487 -43 q 518 65 518 43 q 444 161 517 126 l 444 327 q 492 309 475 317 q 556 275 534 294 q 593 362 593 311 q 486 483 593 442 q 444 498 467 491 l 444 655 q 571 608 551 618 q 722 475 686 551 q 745 366 745 427 q 647 164 743 241 q 661 68 661 125 q 547 -146 661 -77 q 414 -184 484 -184 l 269 -184 l 269 -42 z "},";":{"ha":358,"x_min":68,"x_max":290,"o":"m 68 -31 l 118 175 l 255 175 l 205 -31 l 68 -31 m 126 469 q 174 544 126 522 q 209 552 191 552 q 281 507 259 552 q 290 469 290 488 q 244 395 290 416 q 209 387 227 387 q 134 434 156 387 q 126 469 126 452 z "},"අ":{"ha":736,"x_min":41,"x_max":696,"o":"m 454 -229 l 595 -229 l 595 0 l 670 0 l 670 151 l 595 151 l 595 518 q 648 616 595 587 q 696 632 670 625 l 665 787 q 524 712 572 757 q 324 784 442 784 q 125 701 195 784 q 83 621 95 666 l 212 579 q 302 648 229 636 q 330 651 317 651 q 442 595 411 651 q 454 557 452 578 l 454 545 l 347 545 q 76 415 149 545 q 41 269 41 353 q 189 31 41 98 q 349 0 259 0 l 380 0 l 380 146 l 349 146 q 203 222 233 146 q 195 269 195 244 q 343 396 198 395 l 454 396 l 454 -229 z "},"ආ":{"ha":1093,"x_min":41,"x_max":1053,"o":"m 454 -229 l 595 -229 l 595 0 l 670 0 l 670 151 l 595 151 l 595 518 q 648 616 595 587 q 696 632 670 625 l 665 787 q 524 712 572 757 q 324 784 442 784 q 125 701 195 784 q 83 621 95 666 l 212 579 q 302 648 229 636 q 330 651 317 651 q 442 595 411 651 q 454 557 452 578 l 454 545 l 347 545 q 76 415 149 545 q 41 269 41 353 q 189 31 41 98 q 349 0 259 0 l 380 0 l 380 146 l 349 146 q 203 222 233 146 q 195 269 195 244 q 343 396 198 395 l 454 396 l 454 -229 m 765 0 l 792 0 q 1047 202 1015 0 q 1053 271 1053 236 l 1053 490 q 867 754 1053 716 q 792 761 831 761 l 765 761 l 765 610 l 792 610 q 901 480 899 608 l 901 271 q 792 151 898 152 l 765 151 l 765 0 z "},"ඈ":{"ha":1092,"x_min":41,"x_max":1051,"o":"m 454 -229 l 595 -229 l 595 0 l 670 0 l 670 151 l 595 151 l 595 518 q 648 616 595 587 q 696 632 670 625 l 665 787 q 524 712 572 757 q 324 784 442 784 q 125 701 195 784 q 83 621 95 666 l 212 579 q 302 648 229 636 q 330 651 317 651 q 442 595 411 651 q 454 557 452 578 l 454 545 l 347 545 q 76 415 149 545 q 41 269 41 353 q 189 31 41 98 q 349 0 259 0 l 380 0 l 380 146 l 349 146 q 203 222 233 146 q 195 269 195 244 q 343 396 198 395 l 454 396 l 454 -229 m 765 289 l 765 235 q 954 5 765 35 q 1019 0 985 0 l 1051 0 l 1051 153 l 1019 153 q 917 258 918 156 l 917 289 q 939 351 917 328 q 1051 441 960 374 l 1051 563 l 941 563 l 1051 656 l 1051 779 l 765 779 l 765 656 l 872 656 l 765 563 l 765 441 l 859 441 q 769 336 780 380 q 765 289 765 319 z "},"ඇ":{"ha":1090,"x_min":41,"x_max":1050,"o":"m 454 -229 l 595 -229 l 595 0 l 670 0 l 670 151 l 595 151 l 595 518 q 648 616 595 587 q 696 632 670 625 l 665 787 q 524 712 572 757 q 324 784 442 784 q 125 701 195 784 q 83 621 95 666 l 212 579 q 302 648 229 636 q 330 651 317 651 q 442 595 411 651 q 454 557 452 578 l 454 545 l 347 545 q 76 415 149 545 q 41 269 41 353 q 189 31 41 98 q 349 0 259 0 l 380 0 l 380 146 l 349 146 q 203 222 233 146 q 195 269 195 244 q 343 396 198 395 l 454 396 l 454 -229 m 1017 0 l 1050 0 l 1050 153 l 1017 153 q 917 248 925 153 q 916 266 916 258 l 916 361 q 939 475 916 433 q 1050 636 958 511 l 1050 779 l 764 779 l 764 629 l 875 629 q 776 475 791 519 q 764 372 764 435 l 764 273 q 921 15 764 66 q 1017 0 964 0 z "},"ඓ":{"ha":1420,"x_min":41,"x_max":1379,"o":"m 338 624 q 441 557 423 624 q 442 551 442 553 l 575 585 q 498 720 564 666 q 366 765 441 765 l 282 765 q 56 605 104 765 q 41 503 41 556 l 41 269 q 146 20 41 83 q 255 -7 193 -7 l 283 -7 l 283 134 q 189 225 201 134 q 186 269 186 244 l 186 503 q 252 617 186 593 q 293 624 271 624 l 338 624 m 316 339 l 365 339 q 429 316 418 339 q 434 290 434 305 l 434 218 q 349 134 431 136 l 349 -7 l 388 -7 q 553 96 503 -7 q 579 213 579 148 l 579 346 q 460 479 579 469 q 434 480 448 480 l 316 480 l 316 339 m 700 544 l 811 515 q 882 557 827 555 q 956 510 940 557 q 960 484 960 498 l 926 479 l 647 479 l 647 365 l 730 365 q 701 260 701 323 q 792 62 701 141 q 989 -5 873 -5 l 989 151 q 859 224 887 151 q 850 263 850 243 q 917 361 850 345 q 944 365 930 365 l 1076 365 l 1076 476 q 1027 618 1074 568 q 882 673 972 671 q 723 595 774 673 q 700 544 708 571 m 1172 620 l 1172 719 q 1063 844 1065 735 l 1063 875 q 1213 788 1183 875 q 1227 675 1227 746 l 1227 335 q 1065 151 1226 152 l 1065 -5 q 1379 335 1378 -1 l 1379 701 q 1099 1023 1379 1006 q 1063 1024 1081 1024 l 971 1024 l 971 845 q 1095 640 971 693 q 1172 620 1130 625 z "},"ඖ":{"ha":1385,"x_min":41,"x_max":1363,"o":"m 260 -8 q 406 57 353 -7 q 551 -8 460 -8 q 738 85 680 -8 q 770 206 770 138 l 770 703 q 637 986 770 920 q 431 1024 560 1024 l 431 875 q 583 833 544 875 q 623 692 623 789 l 623 217 q 578 146 623 167 q 541 140 560 140 q 468 190 486 140 q 463 217 463 203 l 463 270 l 350 270 l 350 217 q 307 148 350 168 q 271 140 290 140 q 194 189 214 140 q 189 217 189 203 l 189 460 q 220 506 189 498 q 231 507 227 507 q 270 473 263 507 q 271 461 271 467 l 271 430 q 343 321 271 350 q 397 311 370 311 q 513 370 473 311 q 534 449 534 404 l 534 636 l 430 636 l 430 458 q 399 427 425 433 q 368 458 372 433 l 368 496 q 282 631 368 594 q 213 644 250 644 q 73 578 123 644 q 41 473 41 533 l 41 206 q 140 23 41 80 q 260 -8 193 -8 m 195 728 q 302 869 195 844 q 354 875 327 875 l 354 1024 q 130 943 224 1024 q 47 766 49 868 l 195 728 m 1118 -11 q 1310 69 1238 -11 q 1363 218 1363 132 l 1363 604 q 1276 757 1360 713 q 1206 773 1242 773 q 1078 709 1120 773 q 1057 628 1057 674 l 1057 589 q 1020 551 1051 555 q 983 589 987 559 l 983 765 l 879 765 l 879 553 q 960 414 879 452 q 1023 400 990 400 q 1134 457 1097 400 q 1152 524 1152 487 l 1152 590 q 1181 631 1152 625 q 1188 632 1185 632 q 1225 590 1221 624 l 1225 218 q 1158 127 1225 146 q 1124 122 1142 122 q 1029 171 1058 122 q 1017 218 1017 193 l 1017 274 l 879 274 l 879 218 q 993 19 879 80 q 1118 -11 1050 -11 z "},"බ":{"ha":817,"x_min":41,"x_max":776,"o":"m 41 250 q 187 11 41 52 q 286 0 231 0 l 286 151 q 190 206 208 151 q 184 255 184 227 l 184 369 q 237 454 184 435 q 263 458 250 458 q 336 410 316 458 q 343 369 343 391 l 343 189 q 444 15 343 66 q 548 -9 492 -9 q 726 71 659 -9 q 776 224 776 133 l 776 684 q 568 1012 776 956 q 463 1024 519 1024 l 438 1024 l 438 875 l 463 875 q 623 718 605 875 q 625 662 625 690 l 625 222 q 578 152 625 167 q 557 149 567 149 q 495 191 511 149 q 490 222 490 206 l 490 373 q 380 582 490 522 q 271 609 330 609 q 94 532 161 609 q 41 384 41 469 l 41 250 m 56 766 l 203 728 q 311 869 203 844 q 362 875 335 875 l 362 1024 q 138 943 232 1024 q 56 766 57 868 z "},"භ":{"ha":1019,"x_min":41,"x_max":978,"o":"m 545 454 l 545 480 q 639 612 545 610 l 639 765 q 441 674 503 764 q 300 764 399 751 q 271 765 285 765 q 114 689 168 765 q 88 636 98 665 l 199 608 q 269 651 217 648 q 347 591 336 651 q 349 571 349 581 l 41 571 l 41 441 l 121 441 q 94 343 94 401 l 94 267 q 213 23 94 91 q 355 -11 273 -11 l 355 142 q 245 243 259 142 q 244 269 244 256 l 244 332 q 355 441 247 439 l 395 441 l 395 339 l 449 339 q 533 241 533 335 q 431 142 530 144 l 431 -11 q 667 217 666 -8 l 667 273 q 575 449 667 419 q 545 454 560 453 m 715 -11 q 959 151 902 -11 q 978 275 977 206 l 978 473 q 838 741 978 678 q 715 765 785 765 l 715 612 q 826 473 825 609 l 826 275 q 715 142 823 144 l 715 -11 z "},"ච":{"ha":814,"x_min":41,"x_max":773,"o":"m 382 -5 q 148 103 231 -5 q 95 260 95 174 q 123 365 96 326 l 41 365 l 41 479 l 320 479 l 354 484 q 297 555 354 543 q 275 557 286 557 q 208 522 224 557 q 205 515 206 519 l 94 544 q 244 670 126 654 q 275 673 260 673 q 420 618 368 671 q 469 476 469 566 l 469 365 l 338 365 q 254 307 277 365 q 245 264 245 286 q 308 161 245 194 q 382 145 340 145 l 382 -5 m 458 -5 l 458 145 q 623 335 621 148 l 623 682 q 541 861 623 827 q 458 875 507 875 l 458 1024 q 773 723 764 1024 q 773 703 773 712 l 773 335 q 458 -5 770 -3 m 239 728 l 91 766 q 195 959 91 880 q 382 1024 282 1024 l 382 875 q 260 810 300 875 q 239 728 239 774 z "},"ඡ":{"ha":875,"x_min":41,"x_max":856,"o":"m 389 -14 l 464 -14 q 802 225 777 -14 q 804 270 804 247 l 804 357 q 713 464 804 457 q 694 465 704 465 l 578 465 q 500 513 525 465 q 492 551 492 532 q 538 625 492 602 q 578 635 557 635 q 654 586 631 635 q 659 568 658 576 l 792 574 q 700 732 784 674 q 648 758 675 749 l 856 1032 l 700 1073 l 427 713 l 420 707 q 256 774 366 774 q 65 681 127 774 q 41 631 50 658 l 170 587 q 259 640 189 639 q 343 593 317 640 q 354 545 354 571 l 267 545 q 64 441 104 545 q 46 336 46 397 l 195 336 q 279 415 206 411 l 399 415 q 576 330 464 331 l 654 331 l 654 270 q 495 132 654 140 q 472 132 483 132 l 378 132 q 195 255 205 132 q 195 270 195 263 l 45 270 q 217 8 45 62 q 389 -14 288 -14 z "},"ද":{"ha":741,"x_min":41,"x_max":741,"o":"m 498 -277 q 286 -179 350 -277 q 252 -61 252 -127 l 400 -61 q 453 -132 400 -110 q 499 -140 476 -140 q 589 -94 563 -140 q 597 -72 594 -83 l 741 -109 q 590 -263 707 -227 q 498 -277 547 -277 m 41 269 q 194 518 41 453 q 347 545 262 545 l 456 545 q 381 643 456 620 q 331 651 357 651 q 221 601 254 651 q 212 579 214 590 l 83 621 q 224 768 110 727 q 326 785 273 785 q 534 701 457 785 q 595 537 595 635 l 595 396 l 343 396 q 195 269 197 393 q 296 152 195 175 q 349 146 320 146 l 400 146 q 537 224 503 148 l 674 187 q 510 19 636 65 q 400 0 456 0 l 349 0 q 92 104 175 0 q 41 269 41 171 z "},"ඩ":{"ha":854,"x_min":41,"x_max":814,"o":"m 327 -8 q 458 57 411 -7 q 605 -8 513 -8 q 783 85 726 -8 q 814 206 814 138 l 814 703 q 640 1005 814 948 q 495 1024 579 1024 l 495 875 q 640 808 609 875 q 661 682 661 765 l 661 214 q 625 152 661 172 q 585 142 606 142 q 513 197 525 142 q 510 214 510 206 l 510 270 l 396 270 l 396 214 q 358 151 396 170 q 321 142 342 142 q 248 197 263 142 q 245 214 245 206 l 245 304 q 308 363 248 362 l 510 363 l 510 475 q 461 617 509 567 q 316 671 407 670 q 157 594 209 671 q 134 543 142 570 l 245 514 q 316 556 259 555 q 392 503 377 556 q 395 477 395 491 l 41 477 l 41 363 l 117 363 q 99 304 99 351 l 99 206 q 199 23 99 81 q 327 -8 255 -8 m 106 766 l 252 728 q 355 867 252 837 q 419 875 387 875 l 419 1024 q 195 944 290 1024 q 106 766 107 869 z "},"ඪ":{"ha":854,"x_min":41,"x_max":814,"o":"m 327 -8 q 458 57 411 -7 q 605 -8 513 -8 q 783 85 726 -8 q 814 206 814 138 l 814 701 q 533 1023 814 1006 q 498 1024 517 1024 l 406 1024 l 406 845 q 529 640 406 693 q 606 620 564 625 l 606 719 q 498 844 499 735 l 498 875 q 647 788 617 875 q 662 675 662 746 l 662 214 q 625 152 662 172 q 585 142 608 142 q 513 197 525 142 q 510 214 510 206 l 510 270 l 396 270 l 396 214 q 358 151 396 170 q 321 142 342 142 q 248 197 263 142 q 245 214 245 206 l 245 304 q 308 363 248 362 l 510 363 l 510 475 q 461 617 509 567 q 316 671 407 670 q 157 594 209 671 q 134 543 142 570 l 245 514 q 316 556 259 555 q 392 503 377 556 q 395 477 395 491 l 41 477 l 41 363 l 117 363 q 99 304 99 351 l 99 206 q 199 23 99 81 q 327 -8 255 -8 z "},"ධ":{"ha":799,"x_min":41,"x_max":758,"o":"m 271 -8 q 403 57 355 -7 q 549 -8 458 -8 q 727 85 670 -8 q 758 206 758 138 l 758 703 q 589 1004 758 945 q 439 1024 526 1024 l 439 875 q 586 808 553 875 q 606 682 606 765 l 606 214 q 571 152 606 172 q 530 142 552 142 q 457 197 469 142 q 454 214 454 206 l 454 270 l 342 270 l 342 214 q 304 151 342 170 q 267 142 288 142 q 193 197 208 142 q 190 214 190 206 l 190 370 q 281 494 190 476 q 315 496 297 496 l 351 496 l 351 646 l 315 646 q 41 373 42 644 l 41 206 q 141 23 41 81 q 271 -8 198 -8 m 50 766 l 198 728 q 302 867 198 837 q 363 875 331 875 l 363 1024 q 140 944 236 1024 q 50 766 52 869 z "},"එ":{"ha":814,"x_min":41,"x_max":773,"o":"m 94 544 l 205 515 q 275 557 221 555 q 350 510 334 557 q 354 484 354 498 l 320 479 l 41 479 l 41 365 l 123 365 q 95 260 95 323 q 186 62 95 141 q 382 -5 267 -5 l 382 151 q 252 224 281 151 q 244 263 244 243 q 311 361 244 345 q 338 365 324 365 l 469 365 l 469 476 q 420 618 468 568 q 275 673 366 671 q 117 595 168 673 q 94 544 102 571 m 566 620 l 566 719 q 457 844 458 735 l 457 875 q 606 788 576 875 q 621 675 621 746 l 621 335 q 458 151 620 152 l 458 -5 q 773 335 772 -1 l 773 701 q 492 1023 773 1006 q 457 1024 475 1024 l 365 1024 l 365 845 q 488 640 365 693 q 566 620 524 625 z "},"ඒ":{"ha":814,"x_min":41,"x_max":773,"o":"m 41 365 l 123 365 q 95 260 95 323 q 186 62 95 141 q 382 -5 267 -5 l 382 151 q 252 224 281 151 q 244 263 244 243 q 311 361 244 345 q 338 365 324 365 l 469 365 l 469 476 q 420 618 468 568 q 275 673 366 671 q 117 595 168 673 q 94 544 102 571 l 205 515 q 275 557 221 555 q 350 510 334 557 q 354 484 354 498 l 320 479 l 41 479 l 41 365 m 365 845 q 488 640 365 693 q 566 620 524 625 l 566 719 q 457 844 458 735 l 457 875 q 606 788 576 875 q 621 675 621 746 l 621 335 q 458 151 620 152 l 458 -5 q 773 335 772 -1 l 773 701 q 772 743 773 730 l 772 1111 l 624 1111 l 624 993 q 457 1024 555 1024 l 365 1024 l 365 845 z "},"ෆ":{"ha":873,"x_min":41,"x_max":833,"o":"m 41 336 l 41 548 q 156 741 41 688 q 275 765 209 765 q 439 696 382 764 q 597 765 496 765 q 798 671 732 765 q 833 548 833 617 l 833 336 l 684 336 l 684 537 q 627 610 684 594 q 595 614 612 614 q 511 566 530 614 q 506 536 506 551 l 506 336 l 368 336 l 368 536 q 307 610 368 595 q 278 614 293 614 q 195 567 214 614 q 190 537 190 552 l 190 336 l 41 336 m 41 270 l 190 270 q 305 153 199 159 l 305 0 q 57 160 110 0 q 41 270 41 210 m 568 0 l 568 153 q 684 270 682 155 l 833 270 q 700 26 833 87 q 568 0 643 0 z "},"ග":{"ha":967,"x_min":41,"x_max":926,"o":"m 304 -11 l 304 142 q 193 275 194 145 l 193 469 q 304 612 195 610 l 304 765 q 60 605 115 765 q 41 479 41 549 l 41 275 q 172 16 41 83 q 304 -11 229 -11 m 663 -11 q 907 149 852 -11 q 926 275 926 205 l 926 479 q 795 738 926 671 q 663 765 738 765 l 663 612 q 774 469 773 609 l 774 275 q 663 142 772 144 l 663 -11 m 343 339 l 407 339 q 481 241 481 331 q 380 142 479 144 l 380 -11 q 617 217 616 -8 l 617 273 q 518 450 617 422 q 494 456 506 454 l 494 479 q 562 609 494 594 q 587 612 574 612 l 587 765 q 343 479 345 762 l 343 339 z "},"ඝ":{"ha":928,"x_min":41,"x_max":887,"o":"m 302 -11 q 456 106 446 -11 q 456 121 456 114 q 491 163 458 161 q 526 121 525 160 q 654 -9 526 1 q 680 -11 666 -11 q 854 80 798 -11 q 887 206 887 134 l 887 267 l 738 267 l 738 214 q 696 146 738 164 q 666 141 681 141 q 594 216 595 144 q 534 277 591 275 l 448 277 q 388 216 389 275 q 316 141 385 142 q 248 190 263 141 q 244 214 244 202 l 244 267 l 95 267 l 95 206 q 191 18 95 76 q 302 -11 240 -11 m 109 631 l 237 587 q 326 640 256 639 q 412 590 388 640 q 422 545 422 570 l 41 545 l 41 415 l 110 415 q 96 376 96 406 q 95 336 95 368 l 244 336 l 244 355 q 312 415 247 414 l 673 415 q 738 355 736 412 l 738 336 l 887 336 l 887 382 q 693 545 884 544 l 562 545 q 624 635 562 614 q 656 640 640 640 q 746 587 728 639 l 875 631 q 718 769 837 743 q 658 776 688 776 q 491 712 556 774 q 324 774 426 774 q 136 685 198 774 q 109 631 118 661 z "},"හ":{"ha":966,"x_min":41,"x_max":925,"o":"m 492 454 l 492 481 q 586 612 495 610 l 586 765 q 395 681 456 764 q 247 764 347 757 q 229 765 237 765 q 68 685 122 765 q 45 636 53 662 l 156 608 q 227 651 174 650 q 304 591 297 651 q 305 579 305 585 l 290 579 q 45 378 71 572 q 41 327 41 354 l 41 267 q 163 22 41 90 q 304 -11 222 -11 l 304 142 q 194 245 205 142 q 193 267 193 256 l 193 317 q 282 425 193 416 q 304 426 293 426 l 343 426 l 343 339 l 397 339 q 480 241 480 335 q 378 142 477 144 l 378 -11 q 616 217 614 -8 l 616 273 q 522 449 616 420 q 492 454 507 453 m 662 -11 q 906 149 850 -11 q 925 275 925 205 l 925 479 q 793 738 925 671 q 662 765 736 765 l 662 612 q 774 469 773 609 l 774 275 q 662 142 772 144 l 662 -11 z "},"්":{"ha":228,"x_min":41,"x_max":187,"o":"m 41 840 l 41 1111 l 187 1111 l 187 840 l 41 840 z "},"ඉ":{"ha":766,"x_min":37,"x_max":726,"o":"m 264 0 l 388 0 q 650 111 553 0 q 726 338 726 202 l 726 524 q 612 731 726 658 q 444 780 536 780 l 422 780 l 422 629 q 578 480 576 627 l 578 366 q 411 146 578 184 q 328 138 372 138 l 264 138 l 264 0 m 91 -109 q 231 -259 121 -218 q 338 -277 281 -277 q 551 -182 483 -277 q 587 -61 587 -129 l 439 -61 q 385 -130 439 -109 q 336 -140 361 -140 q 244 -95 273 -140 q 233 -72 236 -84 l 91 -109 m 37 429 q 129 267 37 317 q 254 239 182 239 q 458 381 456 241 l 458 495 l 317 495 l 317 449 q 267 391 317 397 q 254 389 259 389 q 187 439 197 389 q 186 456 186 448 l 186 510 q 269 618 186 589 q 326 629 297 629 l 347 629 l 347 780 l 326 780 q 113 699 199 780 q 37 526 37 628 l 37 429 z "},"ඊ":{"ha":793,"x_min":41,"x_max":781,"o":"m 41 324 q 198 19 41 92 q 327 -8 258 -8 l 327 148 q 199 239 222 148 q 191 319 191 271 l 191 568 q 212 667 191 635 q 270 732 231 696 l 591 1036 l 433 1076 l 136 804 q 42 623 49 724 q 41 579 41 606 l 41 324 m 262 627 l 262 621 l 408 621 q 521 566 496 621 q 536 457 536 529 l 536 319 q 475 161 536 193 q 403 148 446 148 l 403 -7 q 675 202 633 -7 q 686 317 686 255 l 686 496 q 472 765 684 764 l 400 765 l 262 627 m 583 897 q 633 812 583 841 q 682 799 656 799 q 769 850 741 799 q 781 897 781 872 q 730 983 781 955 q 682 996 707 996 q 595 944 624 996 q 583 897 583 921 m 68 1043 q 118 959 68 987 q 167 945 141 945 q 254 997 225 945 q 266 1043 266 1019 q 214 1130 266 1101 q 167 1142 191 1142 q 80 1090 109 1142 q 68 1043 68 1067 z "},"ජ":{"ha":872,"x_min":41,"x_max":852,"o":"m 41 631 l 170 587 q 259 640 189 639 q 346 590 321 640 q 355 545 355 570 l 267 545 q 64 441 104 545 q 46 336 46 397 l 195 336 q 255 414 195 404 q 278 415 266 415 l 576 415 q 654 362 646 415 q 655 336 655 351 l 804 336 q 703 528 804 488 q 572 545 654 545 l 494 545 q 557 635 494 616 q 590 640 574 640 q 678 587 661 639 l 807 631 q 652 769 769 741 l 852 1032 l 697 1073 l 423 712 q 258 774 359 774 q 64 680 126 774 q 41 631 50 656 m 388 -14 l 464 -14 q 804 250 792 -14 q 804 270 804 260 l 654 270 q 471 132 648 133 l 377 132 q 197 248 209 132 q 195 270 195 259 l 45 270 q 212 9 45 65 q 388 -14 283 -14 z "},"ඣ":{"ha":1530,"x_min":41,"x_max":1489,"o":"m 41 231 l 57 235 q 88 175 88 233 l 88 146 q 168 19 88 66 q 267 -8 216 -8 q 388 49 345 -7 q 521 -8 439 -8 q 667 61 612 -8 q 707 176 707 110 l 707 304 q 613 483 707 435 q 575 499 595 492 l 467 411 q 562 338 547 389 q 567 289 567 317 l 567 201 q 524 144 567 157 q 503 141 513 141 q 446 180 458 141 q 444 201 444 191 l 444 270 l 332 270 l 332 199 q 289 144 332 153 q 275 142 282 142 q 220 179 232 142 q 216 199 216 189 l 216 260 q 209 290 216 273 l 547 568 q 741 637 631 637 q 882 590 833 636 q 772 373 772 534 l 772 206 q 872 23 772 81 q 1002 -8 929 -8 q 1134 57 1086 -7 q 1280 -8 1188 -8 q 1458 85 1401 -8 q 1489 206 1489 138 l 1489 703 q 1289 1010 1489 960 q 1161 1024 1232 1024 l 1161 875 q 1317 802 1283 875 q 1337 682 1337 758 l 1337 214 q 1301 152 1337 172 q 1260 142 1283 142 q 1188 197 1200 142 q 1185 214 1185 206 l 1185 270 l 1073 270 l 1073 214 q 1035 151 1073 171 q 997 142 1017 142 q 924 197 939 142 q 921 214 921 206 l 921 370 q 1012 494 921 476 q 1046 496 1028 496 l 1074 496 q 899 755 1062 689 q 746 784 830 784 q 449 685 581 783 l 445 681 q 316 762 408 743 q 262 768 289 768 q 88 696 153 768 q 42 601 54 655 l 170 560 q 236 631 182 617 q 262 635 248 635 q 339 594 316 633 l 41 346 l 41 231 m 806 865 l 952 814 q 1085 875 985 875 l 1085 1024 q 859 940 947 1024 q 806 865 825 906 z "},"ඥ":{"ha":1457,"x_min":41,"x_max":1457,"o":"m 1066 -8 l 1118 -8 q 1331 77 1246 -8 q 1392 179 1373 121 l 1255 216 q 1118 138 1219 138 l 1066 138 q 935 208 967 138 q 924 254 924 229 q 1001 354 924 331 q 1061 362 1028 362 l 1314 362 l 1314 503 q 1019 768 1314 753 q 956 769 993 769 l 956 614 q 1111 591 1066 614 q 1161 509 1160 563 l 1059 509 q 821 400 897 507 q 735 456 785 449 l 735 479 q 834 614 738 601 q 853 616 844 616 l 882 616 l 882 769 l 853 769 q 593 564 632 768 q 586 479 586 524 l 586 339 l 647 339 q 723 241 723 331 q 621 142 720 144 l 621 -11 q 833 92 779 -9 q 1066 -8 914 -8 m 41 271 q 104 14 41 119 q 144 -43 122 -15 l 286 1 q 193 180 206 96 q 187 271 187 216 l 187 389 q 221 575 187 530 q 305 612 251 610 q 282 479 282 551 l 282 275 q 416 16 283 80 q 545 -11 472 -11 l 545 142 q 434 275 435 145 l 434 469 q 545 612 437 610 l 545 765 l 359 765 q 79 629 142 765 q 41 389 41 549 l 41 271 m 1213 -285 q 1434 -171 1366 -285 q 1457 -115 1449 -144 l 1313 -79 q 1240 -145 1301 -132 q 1214 -148 1227 -148 q 1126 -104 1153 -148 q 1115 -69 1115 -87 l 967 -69 q 1070 -251 967 -193 q 1213 -285 1131 -285 z "},"ක":{"ha":1069,"x_min":41,"x_max":1028,"o":"m 42 601 l 170 560 q 236 631 182 617 q 262 635 248 635 q 340 593 315 633 l 41 346 l 41 231 l 57 235 q 88 175 88 233 l 88 146 q 168 19 88 66 q 267 -8 216 -8 q 388 49 345 -7 q 521 -8 439 -8 q 667 61 612 -8 q 707 176 707 110 l 707 304 q 613 483 707 435 q 575 499 595 492 l 467 411 q 562 338 547 389 q 567 289 567 317 l 567 201 q 524 144 567 157 q 503 141 513 141 q 446 180 458 141 q 444 201 444 191 l 444 270 l 332 270 l 332 199 q 289 144 332 153 q 275 142 282 142 q 220 179 232 142 q 216 199 216 189 l 216 260 q 209 290 216 273 l 547 568 q 686 623 609 623 q 841 544 785 623 q 878 419 878 491 l 878 273 q 770 152 875 153 l 770 -1 q 1028 273 1027 1 l 1028 433 q 883 726 1028 637 q 705 773 804 773 q 445 681 560 772 q 316 762 408 743 q 262 768 289 768 q 88 696 153 768 q 42 601 54 655 z "},"ඛ":{"ha":833,"x_min":41,"x_max":792,"o":"m 586 -8 q 757 90 701 -8 q 792 247 792 153 l 792 684 q 557 1019 792 981 q 477 1024 519 1024 l 442 1024 l 442 875 l 477 875 q 627 787 597 875 q 640 684 640 746 l 640 225 q 591 159 640 172 q 571 156 581 156 q 507 197 524 156 q 502 225 502 210 l 502 400 q 396 582 502 525 q 277 610 342 610 q 94 530 161 610 q 41 374 41 467 l 41 252 q 191 11 41 52 q 289 0 235 0 l 289 151 q 193 212 209 151 q 187 264 187 233 l 187 363 q 241 453 187 431 q 271 458 256 458 q 346 410 324 458 q 355 363 355 388 l 355 -88 l 502 -88 l 502 7 q 586 -8 545 -8 m 209 728 q 316 869 209 845 q 366 875 340 875 l 366 1024 q 145 943 237 1024 q 61 766 62 868 l 209 728 z "},"ල":{"ha":841,"x_min":41,"x_max":800,"o":"m 347 298 q 460 107 347 155 q 567 88 506 88 q 770 199 711 88 q 800 334 800 256 l 800 450 q 477 779 800 770 q 461 779 469 779 l 461 628 q 651 450 650 625 l 651 334 q 598 247 651 266 q 567 241 583 241 q 488 300 500 241 q 487 319 487 309 l 487 355 l 557 355 l 557 481 l 278 481 l 278 355 l 347 355 l 347 298 m 378 -231 l 378 -80 q 197 43 227 -80 q 191 100 191 71 l 191 446 q 324 623 191 595 q 378 628 349 628 l 378 779 q 71 609 142 779 q 41 446 41 538 l 41 100 q 245 -212 41 -146 q 378 -231 307 -231 m 461 -83 l 461 -233 q 784 -22 723 -233 q 788 -5 787 -12 l 643 35 q 461 -83 605 -81 z "},"ළ":{"ha":826,"x_min":41,"x_max":799,"o":"m 153 568 l 281 586 q 339 654 283 652 q 396 598 389 654 q 396 591 396 594 l 492 591 q 532 650 492 639 q 548 652 540 652 q 605 593 601 644 l 732 593 q 636 760 732 716 q 551 776 598 776 q 446 731 483 774 q 335 776 404 776 q 172 686 216 776 q 153 601 153 648 l 153 568 m 41 104 q 217 -201 41 -125 q 384 -231 290 -231 l 384 -80 q 197 49 225 -80 q 191 103 191 75 l 191 217 q 197 271 191 251 q 328 125 232 168 q 437 103 378 103 l 490 103 q 708 216 636 103 q 734 266 723 240 l 609 298 q 500 233 583 240 q 486 233 492 233 l 445 233 q 319 308 365 233 q 292 380 298 340 q 324 384 308 384 l 734 384 l 734 526 l 293 525 q 115 450 190 525 q 41 263 41 376 l 41 104 m 467 -80 l 467 -231 q 787 -42 722 -231 q 799 1 795 -20 l 654 42 q 467 -80 621 -79 z "},"ම":{"ha":802,"x_min":41,"x_max":761,"o":"m 41 342 l 41 420 q 134 618 41 562 q 218 642 175 642 q 335 576 298 642 q 354 500 354 543 l 354 458 q 385 427 358 430 q 416 458 412 433 l 416 636 l 521 636 l 521 449 q 441 320 521 353 q 388 311 415 311 q 275 366 312 311 q 258 430 258 395 l 258 465 q 228 506 258 500 q 221 507 224 507 q 180 468 190 507 q 179 448 179 458 l 179 342 q 347 145 182 146 l 347 -5 q 50 232 99 -5 q 41 342 41 283 m 423 -5 l 423 145 q 590 224 552 145 q 610 338 610 269 l 610 682 q 507 864 610 833 q 423 873 473 873 l 423 1023 q 761 682 760 1020 l 761 338 q 423 -5 758 -4 m 45 765 q 156 962 45 884 q 347 1023 244 1023 l 347 873 q 206 798 243 873 q 193 727 193 766 l 45 765 z "},"ා":{"ha":369,"x_min":41,"x_max":328,"o":"m 41 0 l 41 153 l 68 153 q 176 275 175 156 l 176 490 q 68 621 170 617 l 41 621 l 41 774 l 68 774 q 324 566 292 774 q 328 499 328 533 l 328 275 q 138 7 328 42 q 68 0 104 0 l 41 0 z "},"ෑ":{"ha":376,"x_min":49,"x_max":335,"o":"m 49 289 l 49 235 q 237 5 49 35 q 302 0 269 0 l 335 0 l 335 153 l 302 153 q 201 258 202 156 l 201 289 q 222 351 201 328 q 335 441 244 374 l 335 563 l 225 563 l 335 656 l 335 779 l 49 779 l 49 656 l 156 656 l 49 563 l 49 441 l 141 441 q 53 336 64 380 q 49 289 49 319 z "},"ැ":{"ha":368,"x_min":41,"x_max":327,"o":"m 294 0 l 327 0 l 327 153 l 294 153 q 194 248 202 153 q 193 266 193 258 l 193 361 q 216 475 193 433 q 327 636 235 511 l 327 779 l 41 779 l 41 629 l 152 629 q 53 475 68 519 q 41 372 41 435 l 41 273 q 198 15 41 66 q 294 0 241 0 z "},"ෛ":{"ha":1204,"x_min":41,"x_max":1164,"o":"m 338 624 q 441 557 423 624 q 442 551 442 553 l 575 585 q 498 720 564 666 q 366 765 441 765 l 282 765 q 56 605 104 765 q 41 503 41 556 l 41 269 q 146 20 41 83 q 255 -7 193 -7 l 283 -7 l 283 134 q 189 225 201 134 q 186 269 186 244 l 186 503 q 252 617 186 593 q 293 624 271 624 l 338 624 m 316 339 l 365 339 q 429 316 418 339 q 434 290 434 305 l 434 218 q 349 134 431 136 l 349 -7 l 388 -7 q 553 96 503 -7 q 579 213 579 148 l 579 346 q 460 479 579 469 q 434 480 448 480 l 316 480 l 316 339 m 922 628 q 1025 562 1008 628 q 1027 555 1027 557 l 1160 589 q 1082 724 1149 670 q 951 769 1025 769 l 867 769 q 640 609 689 769 q 625 507 625 560 l 625 273 q 731 24 625 87 q 840 -3 777 -3 l 868 -3 l 868 138 q 773 229 785 138 q 770 273 770 248 l 770 507 q 837 621 770 597 q 878 628 856 628 l 922 628 m 901 343 l 949 343 q 1013 320 1002 343 q 1019 294 1019 309 l 1019 222 q 933 138 1016 140 l 933 -3 l 972 -3 q 1138 100 1088 -3 q 1164 217 1164 152 l 1164 350 q 1044 483 1164 473 q 1019 484 1032 484 l 901 484 l 901 343 z "},"ෞ":{"ha":1379,"x_min":41,"x_max":1358,"o":"m 338 624 q 441 557 423 624 q 442 551 442 553 l 575 585 q 498 720 564 666 q 366 765 441 765 l 282 765 q 56 605 104 765 q 41 503 41 556 l 41 269 q 146 20 41 83 q 255 -7 193 -7 l 283 -7 l 283 134 q 189 225 201 134 q 186 269 186 244 l 186 503 q 252 617 186 593 q 293 624 271 624 l 338 624 m 316 339 l 365 339 q 429 316 418 339 q 434 290 434 305 l 434 218 q 349 134 431 136 l 349 -7 l 388 -7 q 553 96 503 -7 q 579 213 579 148 l 579 346 q 460 479 579 469 q 434 480 448 480 l 316 480 l 316 339 m 1112 -11 q 1305 69 1233 -11 q 1358 218 1358 132 l 1358 604 q 1272 755 1356 712 q 1200 773 1238 773 q 1073 709 1115 773 q 1051 628 1051 674 l 1051 589 q 1015 551 1046 555 q 979 578 985 551 q 978 589 978 585 l 978 765 l 873 765 l 873 553 q 955 414 873 452 q 1017 400 985 400 q 1130 457 1093 400 q 1147 524 1147 487 l 1147 590 q 1184 632 1153 628 q 1218 601 1213 632 q 1219 590 1219 594 l 1219 218 q 1153 127 1219 146 q 1119 122 1137 122 q 1024 171 1053 122 q 1012 218 1012 193 l 1012 274 l 873 274 l 873 218 q 987 19 873 80 q 1112 -11 1044 -11 z "},"ෙ":{"ha":620,"x_min":41,"x_max":579,"o":"m 338 624 q 441 557 423 624 q 442 551 442 553 l 575 585 q 498 720 564 666 q 366 765 441 765 l 282 765 q 56 605 104 765 q 41 503 41 556 l 41 269 q 146 20 41 83 q 255 -7 193 -7 l 283 -7 l 283 134 q 189 225 201 134 q 186 269 186 244 l 186 503 q 252 617 186 593 q 293 624 271 624 l 338 624 m 316 339 l 365 339 q 429 316 418 339 q 434 290 434 305 l 434 218 q 349 134 431 136 l 349 -7 l 388 -7 q 553 96 503 -7 q 579 213 579 148 l 579 346 q 460 479 579 469 q 434 480 448 480 l 316 480 l 316 339 z "},"ේ":{"ha":1042,"x_min":41,"x_max":1001,"o":"m 338 624 q 441 557 423 624 q 442 551 442 553 l 575 585 q 498 720 564 666 q 366 765 441 765 l 282 765 q 56 605 104 765 q 41 503 41 556 l 41 269 q 146 20 41 83 q 255 -7 193 -7 l 283 -7 l 283 134 q 189 225 201 134 q 186 269 186 244 l 186 503 q 252 617 186 593 q 293 624 271 624 l 338 624 m 316 339 l 365 339 q 429 316 418 339 q 434 290 434 305 l 434 218 q 349 134 431 136 l 349 -7 l 388 -7 q 553 96 503 -7 q 579 213 579 148 l 579 346 q 460 479 579 469 q 434 480 448 480 l 316 480 l 316 339 m 854 840 l 1001 840 l 1001 1111 l 854 1111 l 854 840 z "},"ි":{"ha":0,"x_min":-781,"x_max":-72,"o":"m -781 817 l -781 854 q -686 1029 -781 968 q -543 1070 -624 1070 l -311 1070 q -117 985 -186 1070 q -72 854 -72 928 l -72 817 l -213 817 q -330 929 -213 926 q -332 929 -331 929 l -521 929 q -640 817 -639 925 l -781 817 z "},"ී":{"ha":0,"x_min":-815,"x_max":-71,"o":"m -203 770 q -87 842 -122 770 q -71 914 -71 876 q -157 1062 -71 1013 q -269 1089 -208 1089 l -576 1089 q -765 1002 -694 1089 q -815 861 -815 940 l -815 817 l -674 817 q -609 937 -674 906 q -555 948 -585 948 l -345 948 q -315 947 -328 948 q -334 887 -334 917 q -271 787 -334 819 q -203 770 -240 770 z "},"ෳ":{"ha":557,"x_min":35,"x_max":519,"o":"m 275 -11 q 84 72 152 -11 q 35 218 35 133 l 35 274 l 174 274 l 174 218 q 237 130 174 153 q 281 122 259 122 q 374 176 351 122 q 382 218 382 197 l 382 590 q 353 631 382 625 q 346 632 349 632 q 309 590 313 624 l 309 524 q 237 412 309 444 q 179 400 209 400 q 58 465 99 400 q 35 553 35 503 l 35 765 l 140 765 l 140 589 q 176 551 145 555 q 213 589 209 559 l 213 628 q 294 760 213 723 q 362 773 327 773 q 491 705 445 773 q 519 604 518 662 l 519 218 q 407 22 519 84 q 275 -11 347 -11 z "},"ෟ":{"ha":557,"x_min":33,"x_max":517,"o":"m 271 -11 q 81 72 151 -11 q 33 218 33 132 l 33 274 l 171 274 l 171 218 q 235 130 171 153 q 278 122 256 122 q 369 175 345 122 q 378 218 378 195 l 378 590 q 343 632 373 628 q 307 590 311 624 l 307 524 q 235 412 307 444 q 176 400 206 400 q 56 465 96 400 q 33 553 33 503 l 33 765 l 137 765 l 137 589 q 174 551 142 555 q 210 589 206 559 l 210 628 q 292 760 210 723 q 359 773 324 773 q 488 705 442 773 q 517 604 515 662 l 517 218 q 404 23 517 85 q 271 -11 343 -11 z "},"ො":{"ha":1080,"x_min":41,"x_max":1039,"o":"m 338 624 q 441 557 423 624 q 442 551 442 553 l 575 585 q 498 720 564 666 q 366 765 441 765 l 282 765 q 56 605 104 765 q 41 503 41 556 l 41 269 q 146 20 41 83 q 255 -7 193 -7 l 283 -7 l 283 134 q 189 225 201 134 q 186 269 186 244 l 186 503 q 252 617 186 593 q 293 624 271 624 l 338 624 m 316 339 l 365 339 q 429 316 418 339 q 434 290 434 305 l 434 218 q 349 134 431 136 l 349 -7 l 388 -7 q 553 96 503 -7 q 579 213 579 148 l 579 346 q 460 479 579 469 q 434 480 448 480 l 316 480 l 316 339 m 751 0 l 779 0 q 1035 209 1002 0 q 1039 275 1039 240 l 1039 499 q 849 768 1039 732 q 779 774 815 774 l 751 774 l 751 621 l 779 621 q 887 505 880 621 q 887 490 887 496 l 887 275 q 779 153 884 155 l 751 153 l 751 0 z "},"ෝ":{"ha":1080,"x_min":41,"x_max":1039,"o":"m 338 624 q 441 557 423 624 q 442 551 442 553 l 575 585 q 498 720 564 666 q 366 765 441 765 l 282 765 q 56 605 104 765 q 41 503 41 556 l 41 269 q 146 20 41 83 q 255 -7 193 -7 l 283 -7 l 283 134 q 189 225 201 134 q 186 269 186 244 l 186 503 q 252 617 186 593 q 293 624 271 624 l 338 624 m 316 339 l 365 339 q 429 316 418 339 q 434 290 434 305 l 434 218 q 349 134 431 136 l 349 -7 l 388 -7 q 553 96 503 -7 q 579 213 579 148 l 579 346 q 460 479 579 469 q 434 480 448 480 l 316 480 l 316 339 m 751 0 l 779 0 q 1035 209 1002 0 q 1039 275 1039 240 l 1039 499 q 849 768 1039 732 q 779 774 815 774 l 751 774 l 751 621 l 779 621 q 887 505 880 621 q 887 490 887 496 l 887 275 q 779 153 884 155 l 751 153 l 751 0 m 750 840 l 897 840 l 897 1111 l 750 1111 l 750 840 z "},"ෘ":{"ha":484,"x_min":33,"x_max":444,"o":"m 239 0 q 75 77 136 0 q 33 205 33 132 q 115 373 33 317 q 239 407 165 407 l 255 407 l 255 281 l 239 281 q 165 232 182 281 q 161 205 161 218 q 205 138 161 159 q 239 130 221 130 q 305 172 285 130 q 312 205 312 189 l 312 525 q 224 633 309 632 l 102 633 l 102 774 l 240 774 q 410 675 354 774 q 444 540 444 616 l 444 205 q 347 30 444 87 q 239 0 298 0 z "},"ෲ":{"ha":958,"x_min":41,"x_max":917,"o":"m 247 0 q 83 77 144 0 q 41 205 41 132 q 122 372 41 316 q 247 407 175 407 l 263 407 l 263 281 l 247 281 q 174 232 190 281 q 170 205 170 218 q 212 138 170 160 q 247 130 229 130 q 315 172 294 130 q 321 205 321 189 l 321 525 q 232 633 316 632 l 110 633 l 110 774 l 250 774 q 419 675 363 774 q 452 540 452 616 l 452 205 q 357 30 452 85 q 247 0 307 0 m 711 0 q 547 77 608 0 q 505 205 505 132 q 586 372 505 316 q 711 407 639 407 l 727 407 l 727 281 l 711 281 q 639 233 656 281 q 633 205 633 220 q 675 138 633 160 q 711 130 693 130 q 779 172 758 130 q 785 205 785 187 l 785 525 q 697 633 780 632 l 575 633 l 575 774 l 713 774 q 883 675 827 774 q 917 540 917 616 l 917 205 q 821 28 917 85 q 711 0 769 0 z "},"ු":{"ha":0,"x_min":-661,"x_max":-53,"o":"m -203 171 l -203 -127 l -338 -127 l -338 -278 l -53 -278 l -53 171 l -203 171 m -661 -127 l -661 -278 l -414 -278 l -414 -127 l -661 -127 z "},"ූ":{"ha":0,"x_min":-671,"x_max":-54,"o":"m -671 -85 l -671 -237 q -574 -275 -620 -275 q -476 -252 -548 -275 q -414 -240 -438 -240 l -414 -88 q -507 -111 -439 -88 q -574 -125 -547 -125 q -671 -85 -623 -123 m -205 -278 l -54 -278 l -54 167 l -205 167 l -205 -122 q -338 -88 -267 -88 l -338 -240 q -205 -278 -269 -241 z "},"ඹ":{"ha":814,"x_min":41,"x_max":773,"o":"m 256 -15 q 72 87 130 -15 q 41 217 41 144 l 41 471 q 129 624 41 578 q 213 644 168 644 q 345 578 304 644 q 366 496 366 543 l 366 458 q 397 427 372 433 q 429 458 425 433 l 429 636 l 533 636 l 533 449 q 453 320 533 353 q 400 311 427 311 q 289 366 326 311 q 271 430 271 395 l 271 461 q 239 506 271 499 q 229 507 233 507 q 189 475 197 507 q 187 460 187 467 l 187 225 q 229 149 187 172 q 260 141 244 141 q 302 187 301 144 q 320 264 302 248 q 354 277 334 277 l 456 277 q 507 187 509 266 q 549 141 510 142 q 616 190 595 141 q 623 227 623 208 l 623 684 q 498 871 623 848 q 441 875 472 875 l 441 1024 q 773 696 772 1021 l 773 217 q 677 19 773 80 q 555 -15 624 -15 q 461 34 484 -14 q 444 119 444 61 q 406 163 442 161 q 368 119 369 160 q 350 34 368 61 q 256 -15 326 -14 m 205 728 l 58 766 q 171 966 58 888 q 363 1024 259 1024 l 363 875 q 214 788 247 875 q 205 728 205 761 z "},"න":{"ha":1016,"x_min":41,"x_max":975,"o":"m 718 -8 q 975 266 974 -5 l 975 457 q 838 719 975 631 q 644 774 751 774 q 430 699 515 773 q 307 764 388 747 q 264 768 285 768 q 88 694 152 768 q 43 601 54 655 l 172 560 q 237 631 183 617 q 264 635 251 635 q 340 595 316 635 q 345 589 343 591 q 311 540 332 572 q 283 502 290 511 q 171 393 209 396 l 171 467 l 41 467 l 41 347 q 183 45 41 140 q 378 -9 267 -9 q 621 103 537 -9 q 677 273 677 178 q 586 471 677 401 q 537 499 563 488 l 453 388 q 525 277 524 353 q 457 159 525 198 q 376 137 420 137 q 193 244 240 138 q 342 358 256 254 q 381 408 358 378 l 487 548 q 637 625 547 624 q 787 553 731 625 q 825 438 825 505 l 825 266 q 718 145 822 146 l 718 -8 z "},"ඳ":{"ha":979,"x_min":41,"x_max":979,"o":"m 589 0 l 640 0 q 854 85 770 0 q 914 187 895 129 l 777 224 q 640 146 742 146 l 589 146 q 444 222 473 146 q 435 269 435 244 q 583 396 438 395 l 836 396 l 837 524 q 694 757 837 697 q 567 781 637 781 q 396 735 465 780 q 332 742 359 742 q 113 636 195 742 q 41 400 41 543 l 41 283 q 90 41 41 133 q 136 -31 109 4 l 278 14 q 191 187 202 103 q 187 283 187 220 l 187 400 q 283 582 187 538 q 355 597 317 597 q 444 581 400 597 l 448 579 q 567 648 476 644 q 675 602 639 648 q 696 541 696 576 l 587 541 q 312 408 384 541 q 281 269 281 349 q 429 31 281 98 q 589 0 499 0 m 735 -277 q 956 -164 888 -277 q 979 -109 971 -137 l 836 -72 q 760 -137 823 -126 q 736 -140 747 -140 q 647 -95 674 -140 q 637 -61 637 -80 l 490 -61 q 595 -244 490 -187 q 735 -277 656 -277 z "},"ඦ":{"ha":1099,"x_min":41,"x_max":1077,"o":"m 613 -14 l 689 -14 q 1029 250 1017 -14 q 1029 270 1029 260 l 879 270 q 697 132 876 133 l 604 132 q 422 244 437 132 q 420 270 420 258 l 270 270 q 437 9 270 65 q 613 -14 509 -14 m 140 -42 l 281 3 q 189 182 201 98 q 183 271 183 217 l 183 433 q 292 609 183 598 q 305 609 298 609 q 347 604 327 609 l 396 587 q 484 640 415 639 q 571 590 547 640 q 581 545 581 570 l 492 545 q 289 441 330 545 q 271 336 271 397 l 420 336 q 480 414 420 404 q 503 415 491 415 l 802 415 q 879 362 871 415 q 880 336 880 351 l 1029 336 q 928 528 1029 488 q 798 545 879 545 l 719 545 q 783 635 719 616 q 815 640 799 640 q 905 587 887 639 l 1034 631 q 878 769 993 741 l 1077 1032 l 922 1073 l 648 712 q 483 774 585 774 q 370 750 420 774 q 297 754 335 754 q 98 651 172 754 q 41 457 41 571 l 41 267 q 91 31 41 123 q 140 -42 111 -4 z "},"ඞ":{"ha":799,"x_min":41,"x_max":758,"o":"m 271 -8 q 403 57 355 -7 q 549 -8 458 -8 q 727 85 670 -8 q 758 206 758 138 l 758 701 q 586 1002 758 945 q 438 1023 524 1023 l 438 872 q 585 810 551 872 q 606 680 606 766 l 606 214 q 571 152 606 172 q 530 142 552 142 q 457 197 469 142 q 454 214 454 206 l 454 270 l 342 270 l 342 214 q 304 151 342 170 q 267 142 288 142 q 193 197 208 142 q 190 214 190 206 l 190 298 q 235 359 190 350 q 277 363 252 363 l 331 363 q 468 446 429 363 q 484 519 484 481 q 419 648 484 605 q 331 674 381 674 l 235 674 q 85 587 123 674 q 72 518 72 555 l 182 518 q 236 562 189 559 l 324 562 q 366 528 361 562 q 368 519 368 522 q 335 477 368 486 q 323 476 328 476 l 225 476 q 53 382 83 476 q 41 279 41 345 l 41 206 q 141 23 41 81 q 271 -8 198 -8 m 49 765 l 195 726 q 301 865 195 836 q 362 873 330 873 l 362 1023 q 140 944 236 1023 q 49 765 50 868 z "},"ණ":{"ha":1358,"x_min":4,"x_max":1317,"o":"m 4 27 l 148 -9 q 213 41 165 30 q 239 43 227 43 q 368 15 270 43 q 454 0 422 0 q 650 125 589 0 q 685 304 685 199 l 685 481 q 614 736 684 658 l 838 1031 l 681 1072 l 483 811 q 378 822 434 822 q 155 732 240 822 q 81 540 81 655 q 183 316 81 392 q 326 270 247 270 l 426 270 l 426 415 l 354 415 q 233 502 259 415 q 228 541 228 522 q 279 648 228 608 q 378 680 319 680 q 543 481 541 677 l 543 304 q 426 151 541 152 q 311 172 401 151 q 216 186 256 186 q 37 85 110 186 q 4 27 16 57 m 884 336 l 1029 336 l 1029 528 q 1082 609 1029 597 q 1099 610 1090 610 q 1168 528 1166 608 l 1168 336 l 1317 336 l 1317 560 q 1195 750 1317 708 q 1108 764 1156 764 q 962 703 1013 762 q 830 764 913 762 q 709 723 750 764 l 757 586 q 814 610 777 610 q 880 548 865 610 q 884 507 884 529 l 884 336 m 741 221 q 856 30 741 92 q 1028 -8 928 -8 q 1261 83 1181 -8 q 1317 237 1317 146 l 1317 270 l 1168 270 l 1168 241 q 1076 140 1168 161 q 1027 134 1053 134 q 907 187 944 134 q 891 243 891 212 l 891 270 l 741 270 l 741 221 z "},"ඬ":{"ha":1046,"x_min":41,"x_max":1005,"o":"m 518 -8 q 650 57 602 -7 q 798 -8 705 -8 q 972 83 916 -8 q 1005 206 1005 137 l 1005 703 q 836 1004 1005 945 q 686 1024 773 1024 l 686 875 q 833 808 800 875 q 853 682 853 765 l 853 214 q 818 152 853 172 q 777 142 799 142 q 704 195 719 142 q 701 214 701 205 l 701 270 l 589 270 l 589 214 q 551 151 589 170 q 514 142 534 142 q 439 197 454 142 q 437 214 437 206 l 437 283 q 500 345 439 343 l 701 345 l 701 456 q 613 636 701 578 q 486 671 560 671 q 382 650 429 671 q 297 662 338 662 q 99 566 172 662 q 41 381 41 488 l 41 266 q 95 24 41 119 q 132 -30 111 -3 l 274 15 q 183 190 195 107 q 179 264 179 221 l 179 351 q 281 522 179 505 q 304 524 293 524 q 395 502 339 522 l 399 500 q 486 543 422 543 q 563 499 540 543 q 572 458 572 480 l 252 458 l 252 345 l 309 345 q 290 283 290 332 l 290 206 q 391 23 290 81 q 518 -8 446 -8 m 297 766 l 445 728 q 548 867 445 836 q 610 875 578 875 l 610 1024 q 387 944 483 1024 q 297 766 298 869 z "},"ඟ":{"ha":1208,"x_min":41,"x_max":1168,"o":"m 41 283 q 90 41 41 133 q 136 -31 109 4 l 278 14 q 191 187 202 103 q 187 283 187 220 l 187 389 q 221 575 187 530 q 305 612 251 610 q 282 479 282 551 l 282 275 q 416 16 283 80 q 545 -11 472 -11 l 545 142 q 434 275 435 145 l 434 469 q 545 612 437 610 l 545 765 l 359 765 q 79 629 142 765 q 41 389 41 549 l 41 283 m 905 -11 q 1149 149 1093 -11 q 1168 275 1168 205 l 1168 479 q 1036 738 1168 671 q 905 765 979 765 l 905 612 q 1017 469 1016 609 l 1017 275 q 905 142 1015 144 l 905 -11 m 586 339 l 647 339 q 723 241 723 331 q 621 142 720 144 l 621 -11 q 859 217 857 -8 l 859 273 q 754 453 859 427 q 735 456 745 454 l 735 479 q 784 602 738 579 q 829 612 803 612 l 829 765 q 586 479 587 762 l 586 339 z "},"ඤ":{"ha":1563,"x_min":41,"x_max":1563,"o":"m 267 231 l 283 235 q 315 175 315 233 l 315 146 q 393 20 315 66 q 495 -8 442 -8 q 614 49 571 -7 q 747 -8 666 -8 q 892 58 837 -8 q 918 100 909 79 q 1172 -1 1001 -1 l 1223 -1 q 1436 83 1352 -1 q 1499 186 1480 127 l 1360 222 q 1223 145 1325 145 l 1172 145 q 1027 224 1055 145 q 1019 269 1019 244 q 1166 395 1021 393 l 1420 395 l 1420 536 q 1154 798 1420 764 q 1063 803 1111 803 l 1063 662 q 1267 540 1265 659 l 1171 540 q 906 425 983 538 q 802 499 873 475 l 693 411 q 788 338 773 389 q 793 289 793 317 l 793 201 q 751 144 793 157 q 731 141 741 141 q 673 182 685 141 q 670 201 670 191 l 670 270 l 559 270 l 559 199 q 515 144 559 153 q 502 142 509 142 q 446 179 460 142 q 442 199 442 189 l 442 260 q 435 290 442 273 l 773 568 q 989 662 892 659 l 989 804 q 720 718 845 804 q 671 680 697 700 q 551 761 637 739 q 488 768 519 768 q 345 723 404 766 q 294 727 324 727 q 103 627 175 727 q 41 403 41 540 l 41 266 q 102 12 41 115 q 144 -49 121 -19 l 286 -4 q 193 174 206 91 q 187 266 187 209 l 187 403 q 302 582 194 575 q 365 570 327 582 l 396 560 q 463 631 408 617 q 488 635 475 635 q 567 593 541 633 l 267 346 l 267 231 m 1320 -278 q 1538 -165 1470 -278 q 1563 -109 1553 -138 l 1419 -72 q 1345 -138 1407 -125 q 1321 -141 1333 -141 q 1232 -96 1257 -141 q 1222 -62 1222 -80 l 1074 -62 q 1177 -244 1074 -186 q 1320 -278 1238 -278 z "},"ඕ":{"ha":811,"x_min":41,"x_max":770,"o":"m 260 -8 q 406 57 353 -7 q 551 -8 460 -8 q 738 85 680 -8 q 770 206 770 138 l 770 643 q 616 867 770 822 q 472 884 556 884 l 301 884 q 240 921 251 884 q 239 933 239 928 q 286 982 239 977 q 301 983 294 983 l 380 983 l 380 1111 l 258 1111 q 127 1047 178 1111 q 98 967 98 1008 q 137 884 99 918 l 90 884 l 90 743 l 472 743 q 606 696 578 743 q 623 621 623 667 l 623 217 q 578 146 623 167 q 541 140 560 140 q 468 190 486 140 q 463 217 463 203 l 463 270 l 350 270 l 350 217 q 307 148 350 168 q 271 140 290 140 q 194 189 214 140 q 189 217 189 203 l 189 460 q 220 506 189 498 q 231 507 227 507 q 270 473 263 507 q 271 461 271 467 l 271 430 q 342 323 271 354 q 401 311 370 311 q 517 374 481 311 q 534 449 534 407 l 534 636 l 430 636 l 430 458 q 399 427 425 433 q 368 458 372 433 l 368 496 q 282 631 368 594 q 213 644 250 644 q 73 578 123 644 q 41 473 41 533 l 41 206 q 140 23 41 80 q 260 -8 193 -8 m 614 913 l 761 913 q 699 1073 761 1029 q 532 1111 643 1111 l 456 1111 l 456 983 l 502 983 q 600 962 581 983 q 614 913 614 944 z "},"ඔ":{"ha":811,"x_min":41,"x_max":770,"o":"m 260 -8 q 406 57 353 -7 q 551 -8 460 -8 q 738 85 680 -8 q 770 206 770 138 l 770 703 q 637 986 770 920 q 431 1024 560 1024 l 431 875 q 583 833 544 875 q 623 692 623 789 l 623 217 q 578 146 623 167 q 541 140 560 140 q 468 190 486 140 q 463 217 463 203 l 463 270 l 350 270 l 350 217 q 307 148 350 168 q 271 140 290 140 q 194 189 214 140 q 189 217 189 203 l 189 460 q 220 506 189 498 q 231 507 227 507 q 270 473 263 507 q 271 461 271 467 l 271 430 q 343 321 271 350 q 397 311 370 311 q 513 370 473 311 q 534 449 534 404 l 534 636 l 430 636 l 430 458 q 399 427 425 433 q 368 458 372 433 l 368 496 q 282 631 368 594 q 213 644 250 644 q 73 578 123 644 q 41 473 41 533 l 41 206 q 140 23 41 80 q 260 -8 193 -8 m 195 728 q 302 869 195 844 q 354 875 327 875 l 354 1024 q 130 943 224 1024 q 47 766 49 868 l 195 728 z "},"ප":{"ha":849,"x_min":41,"x_max":807,"o":"m 41 631 l 170 587 q 259 640 189 639 q 346 590 321 640 q 355 545 355 570 l 267 545 q 64 441 104 545 q 46 336 46 397 l 195 336 q 255 414 195 404 q 278 415 266 415 l 576 415 q 654 362 646 415 q 655 336 655 351 l 804 336 q 703 528 804 488 q 572 545 654 545 l 494 545 q 557 635 494 616 q 590 640 574 640 q 678 587 661 639 l 807 631 q 655 768 772 739 q 591 776 624 776 q 425 712 490 774 q 258 774 359 774 q 64 680 126 774 q 41 631 50 656 m 388 -14 l 464 -14 q 804 250 792 -14 q 804 270 804 260 l 654 270 q 471 132 648 133 l 377 132 q 197 248 209 132 q 195 270 195 259 l 45 270 q 212 9 45 65 q 388 -14 283 -14 z "},"ඵ":{"ha":762,"x_min":43,"x_max":722,"o":"m 331 -5 l 331 151 q 202 217 235 151 q 193 259 193 239 q 263 359 193 343 q 324 365 289 365 l 425 365 l 425 495 q 334 648 425 600 q 232 671 289 671 q 61 571 107 671 q 50 543 54 557 l 160 514 q 232 556 175 555 q 307 513 292 556 q 309 492 309 502 q 114 437 178 491 q 43 285 47 384 q 43 256 43 271 q 137 61 43 140 q 331 -5 218 -5 m 313 845 q 431 643 313 697 q 514 620 469 625 l 514 719 q 407 844 408 734 l 407 875 q 556 788 526 875 q 571 675 571 746 l 571 335 q 407 151 570 152 l 407 -5 q 722 335 720 -1 l 722 701 q 431 1024 722 1012 q 407 1024 419 1024 l 313 1024 l 313 845 z "},"ර":{"ha":727,"x_min":41,"x_max":686,"o":"m 41 324 q 198 19 41 92 q 327 -8 258 -8 l 327 148 q 199 239 222 148 q 191 319 191 271 l 191 568 q 212 667 191 635 q 270 732 231 696 l 591 1036 l 433 1076 l 136 804 q 42 623 49 724 q 41 579 41 606 l 41 324 m 262 627 l 262 621 l 408 621 q 521 566 496 621 q 536 457 536 529 l 536 319 q 475 161 536 193 q 403 148 446 148 l 403 -7 q 675 202 633 -7 q 686 317 686 255 l 686 496 q 472 765 684 764 l 400 765 l 262 627 z "},"ස":{"ha":928,"x_min":41,"x_max":887,"o":"m 95 209 q 195 26 95 84 q 331 -8 255 -8 q 488 61 433 -7 q 652 -8 547 -8 q 857 92 798 -8 q 887 209 887 142 l 887 270 l 738 270 l 738 220 q 680 146 738 161 q 650 142 665 142 q 566 190 586 142 q 560 222 560 206 l 560 270 l 422 270 l 422 222 q 361 146 422 161 q 332 142 347 142 q 250 190 269 142 q 244 220 244 205 l 244 270 l 95 270 l 95 209 m 109 631 l 237 587 q 326 640 256 639 q 412 590 388 640 q 422 545 422 570 l 41 545 l 41 415 l 110 415 q 96 372 96 406 q 95 336 95 365 l 244 336 q 252 374 245 366 q 312 415 260 415 l 673 415 q 730 376 722 412 q 738 336 738 368 l 887 336 l 887 382 q 693 545 884 544 l 562 545 q 624 635 562 614 q 656 640 640 640 q 746 587 728 639 l 875 631 q 718 769 837 743 q 658 776 688 776 q 491 712 556 774 q 324 774 426 774 q 136 685 198 774 q 109 631 118 661 z "},"ශ":{"ha":967,"x_min":41,"x_max":926,"o":"m 663 -11 q 907 149 852 -11 q 926 275 926 205 l 926 479 q 795 738 926 671 q 663 765 738 765 l 663 612 q 774 469 773 609 l 774 275 q 663 142 772 144 l 663 -11 m 304 -11 l 304 142 q 193 275 194 145 l 193 469 q 304 612 195 610 l 304 765 q 60 605 115 765 q 41 479 41 549 l 41 275 q 172 16 41 83 q 304 -11 229 -11 m 343 339 l 397 339 q 481 241 480 336 q 380 142 479 144 l 380 -11 q 617 227 616 -8 l 617 231 q 751 319 633 317 l 751 434 q 583 389 637 433 q 499 441 551 433 l 494 441 l 494 479 q 587 612 494 610 l 587 765 q 343 479 345 762 l 343 339 z "},"ෂ":{"ha":879,"x_min":41,"x_max":838,"o":"m 58 631 l 187 587 q 277 640 206 639 q 363 586 340 640 q 372 551 370 570 l 263 551 q 60 444 100 551 q 42 336 42 399 l 191 336 q 245 416 191 406 q 274 419 258 419 l 426 419 q 346 228 346 336 l 491 229 q 598 419 492 334 l 610 419 q 688 363 680 419 q 689 336 689 351 l 838 336 q 736 532 838 492 q 606 551 688 551 l 511 551 q 582 637 515 621 q 608 640 594 640 q 696 587 678 639 l 825 631 q 673 768 789 739 q 609 776 642 776 q 442 712 506 774 q 274 774 377 774 q 83 681 145 774 q 58 631 68 658 m 384 -14 l 498 -14 q 836 225 811 -14 q 838 270 838 247 l 688 270 q 529 132 688 140 q 506 132 517 132 l 373 132 q 193 248 205 132 q 191 270 191 259 l 41 270 q 208 9 41 65 q 384 -14 279 -14 z "},"ත":{"ha":1042,"x_min":41,"x_max":1000,"o":"m 41 225 q 62 228 50 228 q 126 180 98 228 q 136 163 129 175 q 152 136 146 144 q 408 -9 250 -8 q 644 106 570 -9 q 686 252 686 171 q 552 483 686 434 q 548 484 549 484 l 439 396 q 540 302 526 370 q 543 262 543 285 q 475 152 543 184 q 406 137 442 137 q 263 216 317 137 q 239 252 254 228 q 209 297 220 283 l 547 570 q 674 613 602 613 q 818 536 769 613 q 849 419 849 486 l 849 273 q 742 152 846 153 l 742 -1 q 1000 273 998 1 l 1000 433 q 863 716 1000 627 q 684 768 783 768 q 460 690 568 766 q 346 758 426 736 q 282 768 313 768 q 106 694 170 768 q 61 601 72 655 l 190 560 q 255 631 201 617 q 282 635 269 635 q 351 604 326 633 l 41 346 l 41 225 z "},"ථ":{"ha":754,"x_min":41,"x_max":713,"o":"m 305 845 q 423 643 305 697 q 506 620 461 625 l 506 719 q 397 844 399 735 l 397 875 q 547 789 517 875 q 562 675 562 747 l 562 335 q 399 151 560 152 l 399 -5 q 713 335 712 -1 l 713 701 q 433 1023 713 1006 q 397 1024 415 1024 l 305 1024 l 305 845 m 41 358 l 41 279 q 117 81 41 165 q 323 -5 195 -5 l 323 151 q 203 228 237 151 q 190 293 190 259 l 190 358 q 307 492 190 483 q 323 492 315 492 l 323 642 q 41 358 42 640 z "},"ට":{"ha":754,"x_min":41,"x_max":713,"o":"m 43 358 q 326 642 47 640 l 326 492 q 193 374 202 492 q 193 358 193 366 l 193 293 q 252 167 193 208 q 326 145 285 145 l 326 -5 q 87 125 165 -5 q 43 279 43 198 l 43 358 m 403 -5 l 403 145 q 549 237 519 145 q 563 334 563 277 l 563 692 q 458 869 563 845 q 403 875 434 875 l 403 1024 q 704 811 659 1024 q 713 703 713 762 l 713 323 q 513 8 713 62 q 403 -5 463 -5 m 41 766 q 144 960 41 882 q 326 1024 228 1024 l 326 875 q 209 810 245 875 q 189 728 189 774 l 41 766 z "},"ඨ":{"ha":804,"x_min":46,"x_max":764,"o":"m 277 -8 q 408 57 361 -7 q 555 -8 463 -8 q 732 85 675 -8 q 764 206 764 138 l 764 701 q 483 1023 764 1006 q 448 1024 465 1024 l 355 1024 l 355 845 q 473 643 355 697 q 556 620 511 625 l 556 719 q 448 844 449 735 l 448 875 q 597 789 567 875 q 612 675 612 747 l 612 214 q 575 152 612 172 q 534 142 557 142 q 463 197 475 142 q 460 214 460 206 l 460 270 l 347 270 l 347 214 q 309 151 347 171 q 271 142 292 142 q 198 197 213 142 q 195 214 195 206 l 195 370 q 286 494 195 476 q 320 496 302 496 l 357 496 l 357 646 l 320 646 q 46 373 47 644 l 46 206 q 146 23 46 81 q 277 -8 203 -8 z "},"උ":{"ha":762,"x_min":41,"x_max":772,"o":"m 439 -77 q 627 46 595 -75 l 772 5 q 492 -225 728 -202 q 439 -228 467 -228 l 439 -77 m 174 629 q 316 762 201 723 q 425 780 369 780 q 655 674 583 780 q 696 526 694 613 l 696 388 l 363 388 q 199 255 224 388 q 193 180 193 221 l 193 115 q 312 -66 193 -24 q 363 -77 340 -76 l 363 -229 q 151 -144 245 -229 q 41 115 41 -43 l 41 180 q 359 538 43 537 l 555 538 q 467 642 551 618 q 426 647 445 647 q 308 600 340 647 q 300 582 302 591 l 174 629 z "},"ඌ":{"ha":1299,"x_min":41,"x_max":1278,"o":"m 439 -77 q 627 46 595 -75 l 772 5 q 492 -225 728 -202 q 439 -228 467 -228 l 439 -77 m 174 629 q 316 762 201 723 q 425 780 369 780 q 655 674 583 780 q 696 526 694 613 l 696 388 l 363 388 q 199 255 224 388 q 193 180 193 221 l 193 115 q 312 -66 193 -24 q 363 -77 340 -76 l 363 -229 q 151 -144 245 -229 q 41 115 41 -43 l 41 180 q 359 538 43 537 l 555 538 q 467 642 551 618 q 426 647 445 647 q 308 600 340 647 q 300 582 302 591 l 174 629 m 1032 -11 q 842 72 911 -11 q 793 218 793 132 l 793 274 l 932 274 l 932 218 q 996 130 932 153 q 1039 122 1017 122 q 1130 175 1105 122 q 1139 218 1139 195 l 1139 590 q 1103 632 1134 628 q 1067 602 1074 632 q 1066 590 1066 595 l 1066 524 q 994 412 1066 444 q 937 400 967 400 q 817 465 857 400 q 793 553 793 503 l 793 765 l 898 765 l 898 589 q 935 551 903 555 q 970 578 964 551 q 971 589 971 585 l 971 628 q 1053 760 971 723 q 1120 773 1085 773 q 1249 704 1204 773 q 1278 604 1276 661 l 1278 218 q 1165 23 1278 85 q 1032 -11 1104 -11 z "},"ව":{"ha":764,"x_min":41,"x_max":723,"o":"m 332 -5 q 104 95 190 -5 q 45 256 45 167 q 84 406 45 357 q 115 437 98 423 q 311 492 179 492 q 256 553 311 543 q 233 556 245 556 q 161 514 175 555 l 52 543 q 210 670 85 659 q 233 671 221 671 q 396 595 342 671 q 426 495 426 552 l 426 365 l 326 365 q 205 315 228 365 q 194 259 194 292 q 255 163 194 194 q 332 145 289 145 l 332 -5 m 408 -5 l 408 145 q 572 335 571 148 l 572 682 q 491 861 572 827 q 408 875 457 875 l 408 1024 q 720 760 694 1024 q 723 703 723 732 l 723 335 q 408 -5 720 -3 m 41 766 q 145 959 41 880 q 332 1024 232 1024 l 332 875 q 210 810 250 875 q 189 728 189 774 l 41 766 z "},"ය":{"ha":879,"x_min":41,"x_max":836,"o":"m 41 209 q 141 26 41 84 q 277 -8 201 -8 q 434 61 378 -7 q 598 -8 492 -8 q 803 92 743 -8 q 833 209 833 142 l 833 270 l 684 270 l 684 220 q 625 146 684 161 q 595 142 610 142 q 511 190 532 142 q 506 222 506 206 l 506 270 l 368 270 l 368 222 q 307 146 368 161 q 278 142 293 142 q 195 190 214 142 q 190 220 190 205 l 190 270 l 41 270 l 41 209 m 399 415 l 613 415 q 681 380 673 415 q 682 362 682 372 l 682 336 l 833 336 l 833 376 q 650 545 830 544 l 538 545 q 624 635 541 633 q 715 587 690 633 l 836 629 q 624 766 777 765 q 408 602 445 766 q 399 515 399 562 l 399 415 m 41 336 l 190 336 l 190 439 q 309 621 190 606 q 332 623 321 623 l 359 623 l 359 764 l 336 764 q 98 655 179 764 q 41 461 41 578 l 41 336 z "},"෴":{"ha":2181,"x_min":203,"x_max":2001,"o":"m 772 650 l 882 589 q 671 191 713 259 q 515 27 593 65 q 366 0 457 0 l 203 0 l 203 123 l 366 123 q 515 184 457 123 q 680 463 571 244 q 772 650 684 471 m 1001 682 l 1111 623 l 804 0 l 693 61 l 1001 682 m 1137 524 l 1246 463 l 1017 0 l 907 61 l 1137 524 m 1232 0 l 1122 61 l 1278 378 q 1663 160 1553 203 q 1842 125 1756 125 l 2001 125 l 2001 0 l 1842 0 q 1454 121 1666 0 q 1328 198 1400 152 l 1232 0 z "},"ඏ":{"ha":1290,"x_min":41,"x_max":1249,"o":"m 609 -14 l 684 -14 q 985 109 909 -12 q 1047 7 987 41 q 1105 -8 1076 -8 q 1210 52 1175 -8 q 1214 61 1213 57 q 1249 274 1249 142 l 1107 274 q 1105 232 1107 245 q 1017 193 1053 231 q 1024 270 1024 233 l 873 270 q 715 132 873 140 q 692 132 703 132 l 598 132 q 415 255 425 132 q 415 270 415 263 l 264 270 q 270 195 264 225 q 184 232 235 232 q 183 274 183 247 l 41 274 q 76 61 41 137 q 170 -7 104 0 q 184 -8 178 -8 q 288 50 251 -8 q 305 103 302 76 q 609 -14 381 -14 m 266 336 l 415 336 q 475 414 415 404 q 498 415 486 415 l 796 415 q 873 362 865 415 q 875 336 875 351 l 1024 336 q 922 528 1024 488 q 792 545 873 545 l 715 545 q 777 635 715 614 q 810 640 793 640 q 899 587 882 639 l 952 605 q 987 609 970 609 q 1104 490 1086 609 q 1107 442 1107 467 l 1107 340 l 1249 340 l 1249 465 q 1152 700 1249 617 q 1002 754 1086 754 q 933 746 970 754 q 811 776 880 776 q 644 712 709 774 q 477 774 581 774 q 357 745 408 773 q 288 754 321 754 q 92 650 164 754 q 41 465 41 571 l 41 340 l 183 340 l 183 442 q 302 609 184 608 q 339 605 323 609 l 391 587 q 479 640 410 639 q 566 590 541 640 q 575 545 575 570 l 487 545 q 283 441 324 545 q 266 336 266 397 z "},"ඐ":{"ha":1850,"x_min":41,"x_max":1828,"o":"m 41 274 q 76 61 41 137 q 170 -7 104 0 q 184 -8 178 -8 q 288 50 251 -8 q 305 103 302 76 q 609 -14 381 -14 l 684 -14 q 985 109 909 -12 q 1047 7 987 41 q 1105 -8 1076 -8 q 1210 52 1175 -8 q 1214 61 1213 57 q 1249 274 1249 142 l 1107 274 q 1105 232 1107 245 q 1017 193 1053 231 q 1024 270 1024 233 l 873 270 q 715 132 873 140 q 692 132 703 132 l 598 132 q 415 255 425 132 q 415 270 415 263 l 264 270 q 270 195 264 225 q 184 232 235 232 q 183 274 183 247 l 41 274 m 266 336 l 415 336 q 475 414 415 404 q 498 415 486 415 l 796 415 q 873 362 865 415 q 875 336 875 351 l 1024 336 q 922 528 1024 488 q 792 545 873 545 l 715 545 q 777 635 715 614 q 810 640 793 640 q 899 587 882 639 l 952 605 q 987 609 970 609 q 1104 490 1086 609 q 1107 442 1107 467 l 1107 340 l 1249 340 l 1249 465 q 1152 700 1249 617 q 1002 754 1086 754 q 933 746 970 754 q 811 776 880 776 q 644 712 709 774 q 477 774 581 774 q 357 745 408 773 q 288 754 321 754 q 92 650 164 754 q 41 465 41 571 l 41 340 l 183 340 l 183 442 q 302 609 184 608 q 339 605 323 609 l 391 587 q 479 640 410 639 q 566 590 541 640 q 575 545 575 570 l 487 545 q 283 441 324 545 q 266 336 266 397 m 1583 -11 q 1775 69 1704 -11 q 1828 218 1828 132 l 1828 604 q 1742 757 1826 713 q 1671 773 1708 773 q 1544 709 1586 773 q 1522 628 1522 674 l 1522 589 q 1485 551 1516 555 q 1449 589 1453 559 l 1449 765 l 1344 765 l 1344 553 q 1426 414 1344 452 q 1488 400 1455 400 q 1599 457 1563 400 q 1617 524 1617 486 l 1617 590 q 1647 631 1617 625 q 1653 632 1651 632 q 1690 590 1686 624 l 1690 218 q 1622 126 1690 146 q 1588 122 1606 122 q 1493 172 1522 122 q 1482 218 1482 194 l 1482 274 l 1344 274 l 1344 218 q 1458 19 1344 80 q 1583 -11 1515 -11 z "},"ඍ":{"ha":1367,"x_min":41,"x_max":1345,"o":"m 1139 0 q 1302 76 1242 0 q 1345 205 1345 129 l 1345 540 q 1259 736 1345 671 q 1142 774 1207 774 l 1004 774 l 1004 633 l 1126 633 q 1214 525 1211 631 l 1214 205 q 1169 136 1214 155 q 1139 130 1154 130 q 1070 174 1090 130 q 1062 205 1062 189 q 1111 277 1062 259 q 1139 281 1126 281 l 1156 281 l 1156 407 l 1139 407 q 955 302 1006 407 q 933 205 933 258 q 1025 33 933 91 q 1139 0 1078 0 m 41 209 q 141 26 41 84 q 277 -8 201 -8 q 434 61 378 -7 q 598 -8 492 -8 q 803 92 743 -8 q 833 209 833 142 l 833 270 l 684 270 l 684 220 q 625 146 684 161 q 595 142 610 142 q 511 190 532 142 q 506 222 506 206 l 506 270 l 368 270 l 368 222 q 307 146 368 161 q 278 142 293 142 q 195 190 214 142 q 190 220 190 205 l 190 270 l 41 270 l 41 209 m 54 631 l 183 587 q 271 640 202 639 q 358 590 334 640 q 368 545 368 570 l 235 545 q 41 382 42 543 l 41 336 l 190 336 q 191 362 190 358 q 255 415 197 414 l 618 415 q 682 362 680 412 q 684 336 684 359 l 833 336 l 833 382 q 639 545 830 544 l 506 545 q 570 635 506 616 q 602 640 586 640 q 692 587 674 639 l 821 631 q 663 769 783 743 q 604 776 633 776 q 437 712 502 774 q 270 774 372 774 q 81 685 144 774 q 54 631 64 661 z "},"ඎ":{"ha":1860,"x_min":41,"x_max":1838,"o":"m 41 209 q 141 26 41 84 q 277 -8 201 -8 q 434 61 378 -7 q 598 -8 492 -8 q 803 92 743 -8 q 833 209 833 142 l 833 270 l 684 270 l 684 220 q 625 146 684 161 q 595 142 610 142 q 511 190 532 142 q 506 222 506 206 l 506 270 l 368 270 l 368 222 q 307 146 368 161 q 278 142 293 142 q 195 190 214 142 q 190 220 190 205 l 190 270 l 41 270 l 41 209 m 54 631 l 183 587 q 271 640 202 639 q 358 590 334 640 q 368 545 368 570 l 235 545 q 41 382 42 543 l 41 336 l 190 336 q 191 362 190 358 q 255 415 197 414 l 618 415 q 682 362 680 412 q 684 336 684 359 l 833 336 l 833 382 q 639 545 830 544 l 506 545 q 570 635 506 616 q 602 640 586 640 q 692 587 674 639 l 821 631 q 663 769 783 743 q 604 776 633 776 q 437 712 502 774 q 270 774 372 774 q 81 685 144 774 q 54 631 64 661 m 1139 0 q 1302 76 1242 0 q 1345 205 1345 129 l 1345 540 q 1259 736 1345 671 q 1142 774 1207 774 l 1004 774 l 1004 633 l 1126 633 q 1214 525 1211 631 l 1214 205 q 1169 136 1214 155 q 1139 130 1154 130 q 1070 174 1090 130 q 1062 205 1062 189 q 1111 277 1062 259 q 1139 281 1126 281 l 1156 281 l 1156 407 l 1139 407 q 955 302 1006 407 q 933 205 933 258 q 1025 33 933 91 q 1139 0 1078 0 m 1633 0 q 1796 76 1736 0 q 1838 205 1838 130 l 1838 540 q 1751 738 1838 674 q 1636 774 1701 774 l 1496 774 l 1496 633 l 1618 633 q 1708 525 1705 631 l 1706 205 q 1662 136 1706 155 q 1633 130 1648 130 q 1563 175 1583 130 q 1556 205 1556 190 q 1606 277 1556 262 q 1633 281 1619 281 l 1649 281 l 1649 407 l 1633 407 q 1447 301 1499 407 q 1427 205 1427 258 q 1519 33 1427 90 q 1633 0 1571 0 z "},"/":{"ha":502,"x_min":64,"x_max":438,"o":"m 64 -27 l 301 975 l 438 975 l 202 -27 l 64 -27 z "}," ":{"ha":316,"x_min":0,"x_max":0,"o":""},"£":{"ha":589,"x_min":27,"x_max":562,"o":"m 27 404 l 106 404 l 106 0 l 555 0 l 555 119 l 248 119 l 248 406 l 441 406 l 441 524 l 250 524 l 250 716 q 324 822 250 808 q 346 823 335 823 q 452 742 419 822 l 562 796 q 442 936 534 894 q 434 939 437 937 q 340 956 389 956 l 338 956 q 129 829 183 956 q 106 712 106 776 l 106 522 l 27 522 l 27 404 z "},"∑":{"ha":871,"x_min":41,"x_max":716,"o":"m 355 800 l 251 939 l 251 951 l 716 951 l 716 800 l 355 800 m 41 -190 l 41 -31 l 366 412 l 41 846 l 41 951 l 155 951 l 559 408 l 231 -30 l 716 -30 l 716 -190 l 41 -190 z "},"t":{"ha":411,"x_min":22,"x_max":401,"o":"m 22 608 l 22 747 l 114 747 l 114 964 l 258 964 l 258 747 l 347 747 l 347 606 l 258 606 l 259 231 q 340 148 262 149 l 369 148 l 401 0 l 338 0 q 127 132 165 0 q 114 244 114 179 l 114 608 l 22 608 z "},"ť":{"ha":621,"x_min":22,"x_max":506,"o":"m 319 802 l 369 1008 l 506 1008 l 456 802 l 319 802 m 22 608 l 22 747 l 114 747 l 114 964 l 258 964 l 258 747 l 347 747 l 347 606 l 258 606 l 259 231 q 340 148 262 149 l 369 148 l 401 0 l 338 0 q 127 132 165 0 q 114 244 114 179 l 114 608 l 22 608 z "},"þ":{"ha":572,"x_min":41,"x_max":537,"o":"m 41 -247 l 41 949 l 176 949 l 176 -247 l 41 -247 m 235 574 l 235 703 l 309 703 q 500 610 431 703 q 537 511 537 559 l 537 189 q 476 61 537 118 q 315 0 412 0 l 244 0 l 244 129 l 317 129 q 406 199 400 138 l 406 505 q 353 567 406 549 q 309 574 332 574 l 235 574 z "},"¾":{"ha":799,"x_min":45,"x_max":788,"o":"m 218 473 l 218 560 q 271 601 263 560 q 273 614 273 609 q 237 667 273 654 q 209 673 224 673 l 187 673 l 187 751 l 209 751 q 271 798 262 751 q 273 808 273 803 q 233 863 273 852 q 218 864 225 864 l 218 949 q 330 895 288 949 q 355 815 355 860 q 308 712 354 742 q 355 608 354 678 q 285 491 355 529 q 218 473 252 473 m 629 0 l 629 475 l 719 475 l 719 161 l 755 161 l 755 83 l 719 83 l 719 0 l 629 0 m 431 83 l 431 161 l 593 441 l 593 278 l 528 161 l 593 161 l 593 83 l 431 83 m 45 606 l 125 621 q 179 559 127 567 q 182 559 180 559 l 182 473 q 69 534 111 475 q 45 606 46 568 m 45 815 q 114 929 47 890 q 182 949 146 948 l 182 864 q 126 810 133 859 q 125 800 125 804 l 45 815 m 114 0 l 700 949 l 788 949 l 208 0 l 114 0 z "},"³":{"ha":312,"x_min":22,"x_max":286,"o":"m 163 525 l 163 591 q 217 628 206 594 q 220 646 220 637 q 138 704 217 703 l 138 770 q 220 830 218 772 q 172 883 220 875 q 163 884 167 884 l 163 951 q 267 898 232 951 q 286 831 286 868 q 244 738 285 768 q 286 644 285 708 q 214 534 286 564 q 163 525 189 525 m 22 632 l 84 644 q 130 591 92 600 l 130 525 q 38 581 71 526 q 22 632 23 606 m 22 844 q 73 933 23 899 q 130 951 100 949 l 130 884 q 84 836 88 876 q 84 831 84 833 l 22 844 z "},"˜":{"ha":452,"x_min":35,"x_max":416,"o":"m 35 153 l 35 267 q 130 297 88 297 q 227 266 164 297 q 308 241 274 241 q 416 279 355 243 l 416 167 q 302 129 354 129 q 202 160 266 129 q 125 183 156 183 q 35 153 83 182 z "},"™":{"ha":570,"x_min":35,"x_max":511,"o":"m 35 895 l 35 949 l 221 949 l 221 895 l 156 895 l 156 656 l 100 656 l 100 895 l 35 895 m 252 656 l 252 857 l 256 857 l 307 738 l 307 656 l 252 656 m 252 917 l 252 949 l 296 949 l 378 750 l 433 873 l 439 873 l 439 757 l 396 656 l 361 656 l 252 917 m 457 656 l 457 949 l 511 949 l 511 656 l 457 656 z "},"²":{"ha":305,"x_min":16,"x_max":279,"o":"m 16 846 q 69 936 18 902 q 126 954 96 952 l 126 887 q 85 860 99 887 q 79 834 80 848 l 16 846 m 27 528 l 27 597 l 273 597 l 273 528 l 27 528 m 27 627 q 109 735 27 682 q 141 755 140 754 q 208 814 198 793 q 213 834 213 825 q 174 886 213 875 q 157 887 165 887 l 157 954 q 274 875 251 954 q 279 834 279 854 q 220 730 279 774 q 201 718 210 724 q 172 700 191 711 q 110 644 119 667 q 107 627 107 635 l 27 627 z "},"u":{"ha":646,"x_min":52,"x_max":594,"o":"m 52 199 l 52 751 l 198 751 l 198 216 q 241 149 198 172 q 293 137 264 137 l 293 -7 q 88 96 161 -7 q 52 199 52 149 m 353 -7 l 353 137 q 442 190 420 137 q 448 216 448 203 l 448 751 l 594 751 l 594 199 q 537 73 594 136 q 353 -7 463 -5 z "},"ú":{"ha":646,"x_min":52,"x_max":594,"o":"m 336 833 l 387 1039 l 525 1039 l 435 833 l 336 833 m 52 199 l 52 751 l 198 751 l 198 216 q 241 149 198 172 q 293 137 264 137 l 293 -7 q 88 96 161 -7 q 52 199 52 149 m 353 -7 l 353 137 q 442 190 420 137 q 448 216 448 203 l 448 751 l 594 751 l 594 199 q 537 73 594 136 q 353 -7 463 -5 z "},"û":{"ha":646,"x_min":52,"x_max":594,"o":"m 182 833 l 283 1039 l 359 1039 l 464 833 l 370 833 l 321 932 l 274 833 l 182 833 m 52 199 l 52 751 l 198 751 l 198 216 q 241 149 198 172 q 293 137 264 137 l 293 -7 q 88 96 161 -7 q 52 199 52 149 m 353 -7 l 353 137 q 442 190 420 137 q 448 216 448 203 l 448 751 l 594 751 l 594 199 q 537 73 594 136 q 353 -7 463 -5 z "},"ü":{"ha":646,"x_min":52,"x_max":594,"o":"m 138 914 q 184 989 138 966 q 221 998 202 998 q 296 949 274 998 q 304 914 304 932 q 258 840 304 861 q 221 831 240 831 q 146 879 168 831 q 138 914 138 897 m 342 914 q 388 989 342 966 q 425 998 406 998 q 499 949 477 998 q 507 914 507 932 q 461 840 507 861 q 425 831 444 831 q 350 879 372 831 q 342 914 342 897 m 52 199 l 52 751 l 198 751 l 198 216 q 241 149 198 172 q 293 137 264 137 l 293 -7 q 88 96 161 -7 q 52 199 52 149 m 353 -7 l 353 137 q 442 190 420 137 q 448 216 448 203 l 448 751 l 594 751 l 594 199 q 537 73 594 136 q 353 -7 463 -5 z "},"ù":{"ha":646,"x_min":52,"x_max":594,"o":"m 183 1039 l 321 1039 l 372 833 l 273 833 l 183 1039 m 52 199 l 52 751 l 198 751 l 198 216 q 241 149 198 172 q 293 137 264 137 l 293 -7 q 88 96 161 -7 q 52 199 52 149 m 353 -7 l 353 137 q 442 190 420 137 q 448 216 448 203 l 448 751 l 594 751 l 594 199 q 537 73 594 136 q 353 -7 463 -5 z "},"ű":{"ha":646,"x_min":52,"x_max":594,"o":"m 376 833 l 426 1039 l 564 1039 l 475 833 l 376 833 m 187 833 l 237 1039 l 376 1039 l 286 833 l 187 833 m 52 199 l 52 751 l 198 751 l 198 216 q 241 149 198 172 q 293 137 264 137 l 293 -7 q 88 96 161 -7 q 52 199 52 149 m 353 -7 l 353 137 q 442 190 420 137 q 448 216 448 203 l 448 751 l 594 751 l 594 199 q 537 73 594 136 q 353 -7 463 -5 z "},"ū":{"ha":646,"x_min":52,"x_max":594,"o":"m 109 833 l 109 922 l 537 922 l 537 833 l 109 833 m 52 199 l 52 751 l 198 751 l 198 216 q 241 149 198 172 q 293 137 264 137 l 293 -7 q 88 96 161 -7 q 52 199 52 149 m 353 -7 l 353 137 q 442 190 420 137 q 448 216 448 203 l 448 751 l 594 751 l 594 199 q 537 73 594 136 q 353 -7 463 -5 z "},"_":{"ha":700,"x_min":45,"x_max":655,"o":"m 45 -160 l 655 -160 l 655 -278 l 45 -278 l 45 -160 z "},"­":{"ha":510,"x_min":37,"x_max":465,"o":"m 37 330 l 37 467 l 465 467 l 465 330 l 37 330 z "},"µ":{"ha":678,"x_min":60,"x_max":624,"o":"m 60 0 l 195 0 l 195 277 q 285 259 254 259 l 285 391 q 198 426 214 391 q 195 438 195 433 l 195 947 l 60 947 l 60 0 m 342 259 q 495 307 434 260 q 624 262 548 262 l 624 393 q 567 439 568 395 l 567 949 l 433 949 l 433 438 q 387 396 433 410 q 342 391 365 391 l 342 259 z "},"Ģ":{"ha":690,"x_min":53,"x_max":643,"o":"m 251 -296 l 301 -90 l 438 -90 l 388 -296 l 251 -296 m 53 260 q 187 33 53 109 q 320 -7 256 -7 l 320 144 q 247 174 286 144 q 203 260 205 209 l 203 689 q 250 781 203 745 q 320 806 281 804 l 320 956 q 94 829 172 956 q 53 711 58 769 l 53 260 m 389 -7 q 562 77 476 -5 q 643 239 642 159 l 643 479 l 389 479 l 389 339 l 490 339 l 490 258 q 427 159 490 198 q 389 144 404 144 l 389 -7 m 389 806 q 472 758 439 804 q 494 689 491 728 l 494 646 l 643 700 q 556 886 643 804 q 389 956 479 956 l 389 806 z "},"ģ":{"ha":609,"x_min":31,"x_max":559,"o":"m 312 841 l 362 1047 l 500 1047 l 411 841 l 312 841 m 31 -254 l 65 -121 l 327 -121 q 414 -68 391 -118 q 419 -49 419 -57 l 419 33 q 330 7 365 8 l 330 141 q 412 187 389 141 q 419 213 419 201 l 419 552 q 377 612 419 589 q 330 624 354 624 l 330 758 q 419 732 377 758 l 419 758 l 559 758 l 559 -49 q 506 -171 559 -107 q 336 -254 437 -252 l 31 -254 m 45 210 l 45 557 q 102 684 46 621 q 271 758 170 757 l 271 624 q 189 575 213 624 q 182 553 182 563 l 182 212 q 221 155 182 176 q 271 142 244 142 l 271 7 q 77 114 145 8 q 45 210 45 165 z "},"Ķ":{"ha":663,"x_min":56,"x_max":640,"o":"m 233 -289 l 283 -83 l 420 -83 l 370 -289 l 233 -289 m 56 0 l 56 949 l 208 949 l 208 0 l 56 0 m 264 463 l 481 949 l 635 949 l 418 463 l 640 0 l 488 0 l 264 463 z "},"ķ":{"ha":662,"x_min":56,"x_max":635,"o":"m 231 -289 l 281 -83 l 418 -83 l 368 -289 l 231 -289 m 56 0 l 56 964 l 205 964 l 205 0 l 56 0 m 241 378 l 468 751 l 633 751 l 403 378 l 635 0 l 471 0 l 241 378 z "},"Ļ":{"ha":589,"x_min":56,"x_max":566,"o":"m 214 -289 l 264 -83 l 401 -83 l 351 -289 l 214 -289 m 56 0 l 56 949 l 208 949 l 208 149 l 566 149 l 566 0 l 56 0 z "},"ļ":{"ha":269,"x_min":28,"x_max":227,"o":"m 28 -297 l 79 -91 l 216 -91 l 165 -297 l 28 -297 m 72 0 l 72 964 l 227 964 l 227 0 l 72 0 z "},"Ņ":{"ha":718,"x_min":57,"x_max":661,"o":"m 260 -289 l 311 -83 l 448 -83 l 397 -289 l 260 -289 m 57 0 l 57 708 l 68 708 l 209 481 l 209 0 l 57 0 m 57 852 l 57 949 l 183 949 l 661 183 l 661 0 l 587 0 l 57 852 m 509 553 l 509 949 l 661 949 l 661 327 l 650 327 l 509 553 z "},"ņ":{"ha":646,"x_min":52,"x_max":594,"o":"m 225 -289 l 275 -83 l 412 -83 l 362 -289 l 225 -289 m 52 0 l 52 548 q 111 677 52 613 q 293 754 184 753 l 293 610 q 206 562 231 610 q 198 530 198 545 l 198 0 l 52 0 m 353 610 l 353 754 q 555 650 481 754 q 594 548 594 595 l 594 0 l 448 0 l 448 530 q 408 595 448 571 q 353 610 384 610 z "},"Ŗ":{"ha":686,"x_min":57,"x_max":654,"o":"m 255 -289 l 305 -83 l 442 -83 l 392 -289 l 255 -289 m 57 0 l 57 949 l 209 949 l 209 0 l 57 0 m 278 400 l 278 536 l 354 536 q 484 648 472 536 q 486 671 486 661 q 382 806 486 785 q 343 808 363 808 l 278 808 l 278 949 l 361 949 q 604 815 541 945 q 629 690 629 761 q 537 472 628 540 q 627 327 608 431 q 631 294 629 309 l 654 0 l 513 0 l 492 241 q 431 385 481 355 q 357 400 401 400 l 278 400 z "},"ŗ":{"ha":439,"x_min":11,"x_max":422,"o":"m 11 -289 l 61 -83 l 198 -83 l 148 -289 l 11 -289 m 57 0 l 57 751 l 203 751 l 203 658 q 317 743 241 718 q 387 755 353 755 l 422 755 l 388 613 q 248 536 308 612 q 203 415 203 477 l 203 0 l 57 0 z "},"Ş":{"ha":661,"x_min":31,"x_max":629,"o":"m 152 -259 l 152 -157 q 259 -91 239 -157 q 264 -54 264 -73 l 369 -54 q 286 -222 369 -167 q 152 -259 232 -259 m 31 214 l 168 263 q 264 141 176 175 q 281 136 281 136 l 281 -4 q 83 96 164 -4 q 31 214 33 160 m 42 692 q 170 914 42 840 q 281 949 229 948 l 281 807 q 208 758 239 800 q 187 694 187 728 q 289 582 187 624 q 365 556 313 572 q 456 524 430 536 q 609 385 574 465 q 629 281 629 338 q 537 73 629 161 q 351 -4 454 -4 l 351 136 q 444 184 403 138 q 477 278 477 225 q 362 403 477 361 q 286 427 338 412 q 209 453 229 444 q 62 582 95 503 q 42 692 42 629 m 351 807 l 351 949 q 547 849 468 949 q 591 750 589 795 l 452 704 q 421 770 446 745 q 374 802 396 796 l 351 807 z "},"ş":{"ha":601,"x_min":27,"x_max":574,"o":"m 170 -259 l 170 -157 q 277 -91 256 -157 q 282 -54 282 -73 l 387 -54 q 304 -222 387 -167 q 170 -259 250 -259 m 27 198 l 161 222 q 217 142 161 170 q 264 130 241 130 l 264 -7 q 57 95 121 -7 q 27 198 27 144 m 34 543 q 149 728 34 667 q 260 757 205 757 l 260 623 q 174 571 195 623 q 168 543 168 556 q 239 471 168 502 q 420 418 298 446 q 553 321 514 399 q 574 229 574 279 q 465 31 574 95 q 323 -7 403 -7 l 323 129 q 412 165 377 129 q 434 222 434 191 q 328 302 434 270 q 260 321 307 309 q 163 349 191 338 q 41 480 62 393 q 34 543 34 509 m 321 623 l 321 757 q 514 669 441 757 q 560 549 560 612 l 426 526 q 351 617 426 595 q 321 623 335 623 z "},"Ţ":{"ha":632,"x_min":22,"x_max":609,"o":"m 149 -259 l 149 -157 q 256 -91 236 -157 q 262 -54 262 -73 l 366 -54 q 283 -222 366 -167 q 149 -259 229 -259 m 22 802 l 22 949 l 609 949 l 609 802 l 392 802 l 392 0 l 240 0 l 240 802 l 22 802 z "},"ţ":{"ha":411,"x_min":22,"x_max":401,"o":"m 183 -258 l 183 -156 q 290 -90 270 -156 q 296 -53 296 -72 l 400 -53 q 317 -221 400 -165 q 183 -258 263 -258 m 22 608 l 22 747 l 114 747 l 114 964 l 258 964 l 258 747 l 347 747 l 347 606 l 258 606 l 259 231 q 340 148 262 149 l 369 148 l 401 0 l 338 0 q 127 132 165 0 q 114 244 114 179 l 114 608 l 22 608 z "},"Ș":{"ha":661,"x_min":31,"x_max":629,"o":"m 216 -293 l 266 -87 l 403 -87 l 353 -293 l 216 -293 m 31 214 l 168 263 q 264 141 176 175 q 281 136 281 136 l 281 -4 q 83 96 164 -4 q 31 214 33 160 m 42 692 q 170 914 42 840 q 281 949 229 948 l 281 807 q 208 758 239 800 q 187 694 187 728 q 289 582 187 624 q 365 556 313 572 q 456 524 430 536 q 609 385 574 465 q 629 281 629 338 q 537 73 629 161 q 351 -4 454 -4 l 351 136 q 444 184 403 138 q 477 278 477 225 q 362 403 477 361 q 286 427 338 412 q 209 453 229 444 q 62 582 95 503 q 42 692 42 629 m 351 807 l 351 949 q 547 849 468 949 q 591 750 589 795 l 452 704 q 421 770 446 745 q 374 802 396 796 l 351 807 z "},"ș":{"ha":601,"x_min":27,"x_max":574,"o":"m 190 -296 l 240 -90 l 377 -90 l 327 -296 l 190 -296 m 27 198 l 161 222 q 217 142 161 170 q 264 130 241 130 l 264 -7 q 57 95 121 -7 q 27 198 27 144 m 34 543 q 149 728 34 667 q 260 757 205 757 l 260 623 q 174 571 195 623 q 168 543 168 556 q 239 471 168 502 q 420 418 298 446 q 553 321 514 399 q 574 229 574 279 q 465 31 574 95 q 323 -7 403 -7 l 323 129 q 412 165 377 129 q 434 222 434 191 q 328 302 434 270 q 260 321 307 309 q 163 349 191 338 q 41 480 62 393 q 34 543 34 509 m 321 623 l 321 757 q 514 669 441 757 q 560 549 560 612 l 426 526 q 351 617 426 595 q 321 623 335 623 z "},"Ț":{"ha":632,"x_min":22,"x_max":609,"o":"m 199 -289 l 250 -83 l 387 -83 l 336 -289 l 199 -289 m 22 802 l 22 949 l 609 949 l 609 802 l 392 802 l 392 0 l 240 0 l 240 802 l 22 802 z "},"ț":{"ha":411,"x_min":22,"x_max":422,"o":"m 235 -289 l 285 -83 l 422 -83 l 372 -289 l 235 -289 m 22 608 l 22 747 l 114 747 l 114 964 l 258 964 l 258 747 l 347 747 l 347 606 l 258 606 l 259 231 q 340 148 262 149 l 369 148 l 401 0 l 338 0 q 127 132 165 0 q 114 244 114 179 l 114 608 l 22 608 z "},"ˉ":{"ha":564,"x_min":68,"x_max":496,"o":"m 68 708 l 68 798 l 496 798 l 496 708 l 68 708 z "},"ℓ":{"ha":262,"x_min":65,"x_max":301,"o":"m 65 251 l 65 948 l 208 948 l 208 251 q 279 146 209 167 q 301 142 292 142 l 301 -8 q 148 53 217 -8 q 65 251 65 126 z "},"Ω":{"ha":621,"x_min":37,"x_max":590,"o":"m 37 0 l 37 75 l 114 75 q 57 194 58 132 l 57 513 q 114 636 57 578 q 279 703 180 703 l 279 574 q 193 518 210 574 q 189 495 189 507 l 189 212 q 235 140 189 161 q 279 130 255 130 l 279 0 l 37 0 m 349 0 l 349 130 q 435 189 419 130 q 438 212 438 201 l 438 495 q 396 563 438 540 q 349 574 374 574 l 349 703 q 538 604 475 703 q 570 513 570 556 l 570 194 q 518 79 570 137 q 514 75 515 76 l 590 75 l 590 0 l 349 0 z "},"∆":{"ha":810,"x_min":90,"x_max":720,"o":"m 90 0 l 298 796 l 311 796 l 370 574 l 255 136 l 552 136 l 338 952 l 469 952 l 720 0 l 90 0 z "},"∕":{"ha":723,"x_min":24,"x_max":699,"o":"m 24 -1 l 610 951 l 699 951 l 119 -1 l 24 -1 z "},"∙":{"ha":339,"x_min":45,"x_max":220,"o":"m 45 582 q 92 661 45 636 q 132 670 111 670 q 210 621 186 670 q 220 582 220 602 q 171 503 220 528 q 132 494 152 494 q 56 540 80 494 q 45 582 45 560 z "},"圓":{"ha":1143,"x_min":68,"x_max":1070,"o":"m 68 662 l 68 947 l 121 947 l 121 830 l 137 830 l 137 779 l 121 779 l 121 662 l 68 662 m 159 779 l 159 830 l 176 830 l 176 947 l 229 947 l 229 662 l 176 662 l 176 779 l 159 779 m 269 662 l 269 947 l 321 947 l 321 662 l 269 662 m 342 825 l 388 947 l 441 947 l 395 825 l 442 662 l 389 662 l 342 825 m 472 214 l 609 263 q 707 141 620 175 q 722 136 722 136 l 722 -64 l 642 -64 l 642 12 q 496 138 548 45 q 472 214 473 180 m 483 692 q 608 910 483 836 q 642 928 625 921 l 642 1017 l 722 1017 l 722 807 q 648 758 680 800 q 628 694 628 728 q 722 590 629 627 l 722 427 q 650 453 674 442 q 503 582 536 503 q 483 692 483 629 m 792 -64 l 792 136 q 884 184 844 138 q 918 278 918 225 q 812 396 918 355 q 792 403 803 399 l 792 562 q 897 524 854 544 q 1050 385 1015 465 q 1070 281 1070 338 q 977 75 1070 161 q 872 11 929 31 l 872 -64 l 792 -64 m 792 807 l 792 1017 l 872 1017 l 872 930 q 1015 798 963 895 q 1032 750 1028 769 l 891 704 q 859 770 884 745 q 814 802 834 796 l 792 807 z "},"ų":{"ha":646,"x_min":52,"x_max":594,"o":"m 490 -259 q 289 -140 338 -259 q 273 -54 273 -99 l 377 -54 q 458 -155 377 -138 q 490 -157 475 -157 l 490 -259 m 52 199 l 52 751 l 198 751 l 198 216 q 241 149 198 172 q 293 137 264 137 l 293 -7 q 88 96 161 -7 q 52 199 52 149 m 353 -7 l 353 137 q 442 190 420 137 q 448 216 448 203 l 448 751 l 594 751 l 594 199 q 537 73 594 136 q 353 -7 463 -5 z "},"ů":{"ha":646,"x_min":52,"x_max":594,"o":"m 203 963 q 260 1065 203 1028 q 323 1082 290 1082 q 425 1025 388 1082 q 442 963 442 996 q 385 861 442 898 q 323 844 355 844 q 221 901 258 844 q 203 963 203 930 m 279 963 q 309 921 279 930 q 323 920 317 920 q 365 949 355 920 q 366 963 366 958 q 336 1005 366 996 q 323 1006 328 1006 q 281 977 290 1006 q 279 963 279 968 m 52 199 l 52 751 l 198 751 l 198 216 q 241 149 198 172 q 293 137 264 137 l 293 -7 q 88 96 161 -7 q 52 199 52 149 m 353 -7 l 353 137 q 442 190 420 137 q 448 216 448 203 l 448 751 l 594 751 l 594 199 q 537 73 594 136 q 353 -7 463 -5 z "},"v":{"ha":586,"x_min":11,"x_max":575,"o":"m 11 751 l 172 751 l 377 145 l 330 0 l 248 0 l 11 751 m 320 472 l 414 751 l 575 751 l 412 256 l 395 256 l 320 472 z "},"ඃ":{"ha":525,"x_min":42,"x_max":483,"o":"m 296 -9 l 296 109 q 359 159 347 109 q 361 176 361 168 q 321 240 361 224 q 296 244 309 244 l 296 357 l 315 357 q 465 262 422 357 q 483 175 483 221 q 415 23 483 76 q 315 -9 372 -9 l 296 -9 m 210 -9 q 61 85 104 -9 q 42 175 42 127 q 113 327 42 277 q 210 357 155 357 l 229 357 l 229 244 q 165 198 180 244 q 163 176 163 187 q 203 113 163 129 q 229 109 216 109 l 229 -9 l 210 -9 m 296 404 l 296 522 q 359 572 347 522 q 361 590 361 582 q 321 654 361 637 q 296 658 309 658 l 296 770 l 315 770 q 465 675 422 770 q 483 589 483 635 q 415 437 483 490 q 315 404 372 404 l 296 404 m 210 404 q 61 499 104 404 q 42 589 42 541 q 113 741 42 690 q 210 770 155 770 l 229 770 l 229 658 q 165 612 180 658 q 163 590 163 601 q 203 526 163 543 q 229 522 216 522 l 229 404 l 210 404 z "},"w":{"ha":981,"x_min":11,"x_max":970,"o":"m 11 751 l 250 0 l 331 0 l 377 145 l 172 751 l 11 751 m 320 473 l 395 256 l 412 256 l 490 499 l 648 0 l 730 0 l 776 145 l 571 751 l 410 751 l 320 473 m 720 473 l 793 256 l 811 256 l 970 751 l 808 751 l 720 473 z "},"x":{"ha":549,"x_min":11,"x_max":538,"o":"m 11 0 l 194 381 l 15 751 l 163 751 l 275 538 l 385 751 l 534 751 l 358 381 l 538 0 l 391 0 l 275 225 l 159 0 l 11 0 z "},"y":{"ha":567,"x_min":8,"x_max":563,"o":"m 8 751 l 163 751 l 357 164 l 214 -264 l 65 -264 l 199 167 l 8 751 m 316 498 l 410 751 l 563 751 l 395 285 l 380 285 l 316 498 z "},"ý":{"ha":567,"x_min":8,"x_max":563,"o":"m 297 840 l 347 1046 l 486 1046 l 396 840 l 297 840 m 8 751 l 163 751 l 357 164 l 214 -264 l 65 -264 l 199 167 l 8 751 m 316 498 l 410 751 l 563 751 l 395 285 l 380 285 l 316 498 z "},"ÿ":{"ha":567,"x_min":8,"x_max":563,"o":"m 99 922 q 145 997 99 974 q 182 1006 163 1006 q 256 958 235 1006 q 264 922 264 940 q 218 848 264 869 q 182 840 201 840 q 107 887 129 840 q 99 922 99 905 m 302 922 q 349 997 302 974 q 385 1006 366 1006 q 460 958 438 1006 q 468 922 468 940 q 422 848 468 869 q 385 840 404 840 q 311 887 332 840 q 302 922 302 905 m 8 751 l 163 751 l 357 164 l 214 -264 l 65 -264 l 199 167 l 8 751 m 316 498 l 410 751 l 563 751 l 395 285 l 380 285 l 316 498 z "},"¥":{"ha":610,"x_min":23,"x_max":597,"o":"m 240 0 l 388 0 l 388 290 l 597 290 l 597 361 l 395 361 l 415 431 l 597 431 l 597 502 l 437 502 l 572 947 l 423 947 l 316 602 l 205 947 l 56 947 l 191 502 l 23 502 l 23 431 l 213 431 l 235 361 l 23 361 l 23 290 l 240 290 l 240 0 z "},"z":{"ha":511,"x_min":41,"x_max":471,"o":"m 41 0 l 41 141 l 308 610 l 41 610 l 41 751 l 471 751 l 471 613 l 209 141 l 471 141 l 471 0 l 41 0 z "},"ź":{"ha":511,"x_min":41,"x_max":471,"o":"m 206 833 l 256 1039 l 395 1039 l 305 833 l 206 833 m 41 0 l 41 141 l 308 610 l 41 610 l 41 751 l 471 751 l 471 613 l 209 141 l 471 141 l 471 0 l 41 0 z "},"ž":{"ha":511,"x_min":41,"x_max":471,"o":"m 115 1039 l 208 1039 l 255 940 l 304 1039 l 397 1039 l 293 833 l 217 833 l 115 1039 m 41 0 l 41 141 l 308 610 l 41 610 l 41 751 l 471 751 l 471 613 l 209 141 l 471 141 l 471 0 l 41 0 z "},"ż":{"ha":511,"x_min":41,"x_max":471,"o":"m 172 917 q 218 994 172 971 q 256 1002 237 1002 q 332 955 309 1002 q 340 917 340 936 q 293 841 340 863 q 256 833 275 833 q 180 880 202 833 q 172 917 172 898 m 41 0 l 41 141 l 308 610 l 41 610 l 41 751 l 471 751 l 471 613 l 209 141 l 471 141 l 471 0 l 41 0 z "},"‍":{"ha":0,"x_min":-247,"x_max":244,"o":"m -65 4 l 65 4 l 65 747 l 183 663 l 244 747 l 90 859 l 239 967 l 176 1048 l 0 922 l -176 1048 l -244 967 l -91 859 l -247 747 l -176 663 l -65 745 l -65 4 z "},"‌":{"ha":0,"x_min":-69,"x_max":65,"o":"m -69 3 l -69 1005 l 65 1005 l 65 3 l -69 3 z "}}}
